<svg width="94" height="94" viewBox="0 0 94 94" fill="none" xmlns="http://www.w3.org/2000/svg">
<g style="mix-blend-mode:lighten" filter="url(#filter0_f_574_12925)">
<circle cx="51.1667" cy="42" r="24" fill="white" fill-opacity="0.3"/>
</g>
<path d="M0.878174 43.4078L21.6015 23.7031V52.6806L16.1159 57.8966L0.878174 43.4078Z" fill="white"/>
<path d="M80.6628 43.4078L59.9395 23.7031V52.6806L65.4251 57.8966L80.6628 43.4078Z" fill="white"/>
<path fill-rule="evenodd" clip-rule="evenodd" d="M28.8657 23.7031H21.6016V84.8369H59.9397V23.7031H52.6754C52.4042 30.0438 47.178 35.1011 40.7706 35.1011C34.3632 35.1011 29.1369 30.0438 28.8657 23.7031Z" fill="url(#paint0_linear_574_12925)"/>
<path d="M21.6016 84.8359L59.9397 84.8359L59.9397 46.4978L21.6016 84.8359Z" fill="url(#paint1_linear_574_12925)"/>
<g filter="url(#filter1_ii_574_12925)">
<path fill-rule="evenodd" clip-rule="evenodd" d="M45.4451 53.9366C45.4451 53.7835 45.351 53.6455 45.2066 53.5944C44.1855 53.2326 43.0828 53.0352 41.9327 53.0352C36.6587 53.0352 32.3833 57.1859 32.3833 62.3062C32.3833 67.4264 36.6587 71.5771 41.9327 71.5771C43.0828 71.5771 44.1855 71.3797 45.2066 71.0179C45.351 70.9668 45.4451 70.8288 45.4451 70.6757V67.3198C45.4451 67.0457 45.1556 66.8644 44.8965 66.9538C44.4078 67.1226 43.883 67.2142 43.3368 67.2142C40.6998 67.2142 38.5621 65.0778 38.5621 62.4424C38.5621 59.807 40.6998 57.6706 43.3368 57.6706C43.883 57.6706 44.4078 57.7622 44.8965 57.931C45.1556 58.0204 45.4451 57.8391 45.4451 57.565V53.9366Z" fill="white"/>
</g>
<g filter="url(#filter2_ii_574_12925)">
<circle cx="40.9495" cy="46.6512" r="4.29764" fill="white"/>
</g>
<defs>
<filter id="filter0_f_574_12925" x="9.30427" y="0.137526" width="83.7249" height="83.7249" filterUnits="userSpaceOnUse" color-interpolation-filters="sRGB">
<feFlood flood-opacity="0" result="BackgroundImageFix"/>
<feBlend mode="normal" in="SourceGraphic" in2="BackgroundImageFix" result="shape"/>
<feGaussianBlur stdDeviation="8.93124" result="effect1_foregroundBlur_574_12925"/>
</filter>
<filter id="filter1_ii_574_12925" x="32.3833" y="53.0352" width="13.0618" height="21.6569" filterUnits="userSpaceOnUse" color-interpolation-filters="sRGB">
<feFlood flood-opacity="0" result="BackgroundImageFix"/>
<feBlend mode="normal" in="SourceGraphic" in2="BackgroundImageFix" result="shape"/>
<feColorMatrix in="SourceAlpha" type="matrix" values="0 0 0 0 0 0 0 0 0 0 0 0 0 0 0 0 0 0 127 0" result="hardAlpha"/>
<feOffset dy="3.11584"/>
<feGaussianBlur stdDeviation="1.55792"/>
<feComposite in2="hardAlpha" operator="arithmetic" k2="-1" k3="1"/>
<feColorMatrix type="matrix" values="0 0 0 0 1 0 0 0 0 1 0 0 0 0 1 0 0 0 0.15 0"/>
<feBlend mode="normal" in2="shape" result="effect1_innerShadow_574_12925"/>
<feColorMatrix in="SourceAlpha" type="matrix" values="0 0 0 0 0 0 0 0 0 0 0 0 0 0 0 0 0 0 127 0" result="hardAlpha"/>
<feOffset/>
<feGaussianBlur stdDeviation="23.3688"/>
<feComposite in2="hardAlpha" operator="arithmetic" k2="-1" k3="1"/>
<feColorMatrix type="matrix" values="0 0 0 0 1 0 0 0 0 1 0 0 0 0 1 0 0 0 0.05 0"/>
<feBlend mode="normal" in2="effect1_innerShadow_574_12925" result="effect2_innerShadow_574_12925"/>
</filter>
<filter id="filter2_ii_574_12925" x="36.6519" y="42.3535" width="8.59521" height="11.7115" filterUnits="userSpaceOnUse" color-interpolation-filters="sRGB">
<feFlood flood-opacity="0" result="BackgroundImageFix"/>
<feBlend mode="normal" in="SourceGraphic" in2="BackgroundImageFix" result="shape"/>
<feColorMatrix in="SourceAlpha" type="matrix" values="0 0 0 0 0 0 0 0 0 0 0 0 0 0 0 0 0 0 127 0" result="hardAlpha"/>
<feOffset dy="3.11584"/>
<feGaussianBlur stdDeviation="1.55792"/>
<feComposite in2="hardAlpha" operator="arithmetic" k2="-1" k3="1"/>
<feColorMatrix type="matrix" values="0 0 0 0 1 0 0 0 0 1 0 0 0 0 1 0 0 0 0.15 0"/>
<feBlend mode="normal" in2="shape" result="effect1_innerShadow_574_12925"/>
<feColorMatrix in="SourceAlpha" type="matrix" values="0 0 0 0 0 0 0 0 0 0 0 0 0 0 0 0 0 0 127 0" result="hardAlpha"/>
<feOffset/>
<feGaussianBlur stdDeviation="23.3688"/>
<feComposite in2="hardAlpha" operator="arithmetic" k2="-1" k3="1"/>
<feColorMatrix type="matrix" values="0 0 0 0 1 0 0 0 0 1 0 0 0 0 1 0 0 0 0.05 0"/>
<feBlend mode="normal" in2="effect1_innerShadow_574_12925" result="effect2_innerShadow_574_12925"/>
</filter>
<linearGradient id="paint0_linear_574_12925" x1="17.1779" y1="6.04228" x2="72.6291" y2="10.6073" gradientUnits="userSpaceOnUse">
<stop offset="0.0261371" stop-color="white" stop-opacity="0.81"/>
<stop offset="1" stop-color="white" stop-opacity="0"/>
</linearGradient>
<linearGradient id="paint1_linear_574_12925" x1="29.2692" y1="86.1139" x2="29.2692" y2="46.4978" gradientUnits="userSpaceOnUse">
<stop stop-color="white" stop-opacity="0"/>
<stop offset="1" stop-color="white"/>
</linearGradient>
</defs>
</svg>
