<svg width="276" height="163" viewBox="0 0 276 163" fill="none" xmlns="http://www.w3.org/2000/svg">
<path fill-rule="evenodd" clip-rule="evenodd" d="M43.3956 6.44438C35.8416 9.82241 29.6501 12.5973 29.6366 12.6109C29.6232 12.6245 31.0696 13.2645 32.851 14.0332C34.6323 14.8019 37.2697 15.94 38.7121 16.5622L41.3345 17.6936V23.3248V28.9561L41.4725 29.0842C42.6877 30.2124 49.8992 30.9466 58.0475 30.7717C63.6545 30.6513 67.9644 30.1323 69.5887 29.3819C69.8281 29.2713 70.0697 29.1149 70.1254 29.0344C70.2177 28.901 70.2267 28.3956 70.2267 23.3207V17.7534L73.0331 16.5432C74.5766 15.8775 77.2556 14.7224 78.9864 13.9763L82.1332 12.6197L81.5934 12.3632C81.2965 12.2222 75.6984 9.46116 69.1532 6.22765C62.608 2.99421 57.2252 0.338239 57.1914 0.325574C57.1577 0.312972 50.9496 3.06641 43.3956 6.44438ZM251.156 8.83122C250.953 8.87642 250.628 8.97444 250.432 9.04913L250.076 9.1849L250.118 9.47426C250.191 9.98854 250.433 10.8783 250.629 11.3563C250.909 12.0355 251.356 12.6849 251.906 13.2116C253.104 14.3598 254.552 14.8187 256.738 14.7439C257.518 14.7172 257.845 14.6772 258.333 14.5494C260.121 14.0804 261.423 12.9842 262.228 11.2715C262.457 10.7832 262.714 9.98016 262.806 9.46669L262.848 9.23183L262.5 9.07626C261.771 8.75002 260.853 8.64461 260.402 8.83532C260.078 8.97246 259.931 9.13182 259.546 9.76356C258.849 10.9077 258.353 11.3936 257.619 11.6544C257.12 11.8317 256.414 11.8717 255.792 11.7578C254.71 11.5599 254.089 11.0543 253.521 9.90728C253.158 9.17577 253.032 9.01684 252.689 8.85655C252.395 8.71898 251.71 8.70762 251.156 8.83122ZM126.981 16.6923C126.336 16.7801 125.457 17.0171 124.854 17.2657C122.676 18.1647 120.996 19.9993 120.259 22.2859C119.372 25.0367 119.626 28.9578 120.85 31.4295C121.238 32.2125 121.668 32.8109 122.302 33.4484C123.449 34.6023 124.868 35.333 126.639 35.6827C129.79 36.3047 133.501 35.6619 135.052 34.2251C135.696 33.628 135.857 33.1281 135.643 32.388C135.51 31.9308 135.006 30.9647 134.629 30.4447L134.319 30.0181L134.094 30.2356C133.013 31.2808 131.795 31.8761 130.434 32.0233C128.943 32.1846 127.607 31.884 126.647 31.171C125.74 30.4968 125.051 29.0922 124.895 27.5964L124.845 27.1153H130.347H135.849L135.886 26.9756C135.906 26.8988 135.941 26.3191 135.962 25.6874C136.076 22.3568 135.368 20.1096 133.7 18.5093C132.779 17.6246 131.774 17.1155 130.328 16.8012C129.662 16.6561 127.712 16.5927 126.981 16.6923ZM188.843 16.685C185.434 17.1195 183.022 19.0259 181.852 22.2109C180.856 24.9236 181.01 28.8054 182.217 31.384C182.333 31.6318 182.593 32.0843 182.795 32.3896C184.189 34.4994 186.31 35.6349 189.165 35.7996C191.23 35.9188 193.016 35.6044 194.431 34.8728C195.195 34.4774 195.694 34.0951 196.363 33.3938C198.012 31.6617 198.8 29.3119 198.8 26.122C198.8 22.9827 198.039 20.695 196.421 18.9746C195.356 17.8417 193.902 17.0902 192.175 16.7798C191.505 16.6593 189.493 16.6021 188.843 16.685ZM212.51 16.6924C211.208 16.8822 209.837 17.5373 208.915 18.4102L208.518 18.7867L208.407 18.4724C208.191 17.8562 207.584 17.3783 206.713 17.1375C206.397 17.0502 206.092 17.0285 205.241 17.0329C204.651 17.036 204.057 17.0651 203.922 17.0977L203.677 17.1568V30.3463V43.5358H206.192H208.707L208.723 38.8278L208.738 34.1197L209.05 34.4032C210.792 35.9888 214.079 36.3104 216.436 35.126C218.261 34.209 219.517 32.4744 220.147 30.0041C220.776 27.5341 220.764 24.0009 220.118 21.7556C219.715 20.3517 219.232 19.4468 218.432 18.5931C217.414 17.506 216.34 16.9371 214.887 16.7156C214.242 16.617 213.103 16.606 212.51 16.6924ZM141.425 16.9332C141.194 16.9626 140.966 17.002 140.918 17.0205C140.844 17.0494 140.832 18.369 140.832 26.1822V35.3101H143.285H145.739L145.738 27.286C145.737 18.6999 145.742 18.8483 145.438 18.2513C145.139 17.6636 144.562 17.2317 143.802 17.0257C143.371 16.9089 142.024 16.8564 141.425 16.9332ZM226.557 16.9037C226.49 16.9167 226.249 16.945 226.021 16.9666L225.607 17.0059V26.127V35.248H228.047H230.486L233.914 29.8624C235.8 26.9004 237.379 24.4359 237.425 24.386C237.494 24.3099 237.507 25.1865 237.507 29.7715V35.248H239.899H242.292V26.2227V17.1974L241.908 17.0998C241.288 16.9422 240.398 16.8544 239.838 16.8954C238.745 16.9755 238.094 17.2746 237.32 18.0514C236.852 18.5223 236.521 18.9967 234.253 22.4598C232.854 24.5942 231.434 26.7657 231.097 27.2854C230.759 27.805 230.463 28.2307 230.437 28.2315C230.412 28.2322 230.391 26.2004 230.39 23.7164C230.39 19.9468 230.375 19.1354 230.299 18.81C230.073 17.842 229.588 17.3304 228.612 17.0304C228.295 16.9328 226.864 16.8447 226.557 16.9037ZM248.947 16.9081C248.88 16.9186 248.638 16.945 248.411 16.9666L247.997 17.0059V26.127V35.248L250.435 35.2447L252.873 35.2415L256.339 29.7926L259.805 24.3438L259.821 29.7959L259.836 35.248H262.259H264.682V26.2446V17.2413L264.513 17.1752C263.859 16.9189 262.184 16.8146 261.492 16.9869C260.824 17.1534 260.274 17.4808 259.708 18.0498C259.236 18.5241 258.904 19.0018 256.518 22.6459C255.053 24.8826 253.634 27.0542 253.364 27.4715C253.094 27.8889 252.853 28.2309 252.827 28.2316C252.802 28.2322 252.781 26.2004 252.78 23.7164C252.78 19.9055 252.765 19.1377 252.687 18.8018C252.441 17.7485 251.8 17.1696 250.648 16.9616C250.227 16.8857 249.28 16.8559 248.947 16.9081ZM154.204 16.9768C153.8 17.0452 153.232 17.2864 152.823 17.5638C152.018 18.1087 151.596 18.6317 149.477 21.7099C148.607 22.974 148.017 23.625 147.505 23.884C147.299 23.9881 147.079 24.0733 147.017 24.0733C146.91 24.0733 146.905 24.1664 146.905 25.8601V27.6469L147.182 27.73C147.6 27.8547 148.156 28.2475 148.69 28.7949C149.222 29.3391 149.696 30.0468 151.229 32.5863C152.6 34.8571 152.985 35.2418 154.178 35.5355C154.843 35.6994 156.118 35.6848 156.777 35.5059C157.302 35.3632 158.144 35.0035 158.212 34.893C158.232 34.8596 157.237 33.2187 156.001 31.2463C154.102 28.2156 153.679 27.5798 153.268 27.1403C152.606 26.4323 152.037 26.0594 151.107 25.7238C151.009 25.6884 151.084 25.6321 151.49 25.4392C152.072 25.1622 152.594 24.7743 153 24.3176C153.156 24.1419 153.773 23.3236 154.372 22.4992C154.97 21.6748 155.629 20.8289 155.837 20.6195C156.26 20.1936 156.81 19.8875 157.328 19.7896C157.511 19.755 157.671 19.7165 157.683 19.7038C157.737 19.6497 157.563 18.575 157.453 18.2758C157.123 17.3833 156.261 16.9263 154.94 16.9433C154.62 16.9475 154.289 16.9625 154.204 16.9768ZM100.997 19.8363C100.354 25.9237 100.021 27.9098 99.3974 29.37C98.6797 31.0504 97.5904 31.8743 95.9188 32.0011L95.4484 32.0368L95.4257 32.4163C95.3914 32.9906 95.4734 33.684 95.6247 34.0995C95.8051 34.5948 96.3119 35.1092 96.8229 35.3155C97.1499 35.4476 97.2826 35.4626 98.1374 35.4637C98.9446 35.4648 99.1605 35.4438 99.5666 35.3248C101.838 34.6594 103.455 32.5061 104.332 28.9778C104.594 27.9287 104.716 27.1449 105.108 23.9957L105.461 21.1555H107.627H109.792V28.2328V35.3101H112.307H114.823V26.1841V17.0581H108.057H101.291L100.997 19.8363ZM162.717 17.1547C161.938 17.3456 161.36 17.795 161.038 18.4588C160.864 18.8197 160.86 18.8483 160.861 19.8207C160.862 20.3671 160.883 20.8909 160.908 20.9848L160.954 21.1555H163.959H166.963V28.2328V35.3101H169.478H171.994V28.2328V21.1555H173.799C175.698 21.1555 176.343 21.1016 176.881 20.8979C177.574 20.6352 178.097 20.0385 178.287 19.291C178.369 18.969 178.382 18.7281 178.351 18.0741C178.33 17.6257 178.296 17.2136 178.275 17.1584C178.241 17.0668 177.583 17.0586 170.653 17.0633C164.405 17.0676 163.006 17.0836 162.717 17.1547ZM128.95 20.1269C130.451 20.4175 131.239 21.5683 131.366 23.6543L131.403 24.2596H128.103H124.803L124.841 23.7164C124.926 22.5192 125.275 21.6296 125.918 20.9709C126.696 20.1749 127.722 19.8892 128.95 20.1269ZM212.489 20.5624C213.121 20.6979 213.564 20.9403 214.019 21.3991C214.911 22.2982 215.301 23.6914 215.301 25.9775C215.301 28.6251 214.747 30.3219 213.597 31.1924C213.158 31.5244 212.704 31.7001 212.069 31.7833C211.108 31.9092 209.921 31.5874 209.119 30.9828L208.734 30.6925L208.751 26.312L208.768 21.9315L208.949 21.601C209.24 21.0688 209.744 20.74 210.536 20.5659C211.039 20.4553 211.982 20.4536 212.489 20.5624ZM190.856 20.6285C192.342 20.9455 193.218 22.1142 193.563 24.2367C193.696 25.0569 193.715 27.1141 193.597 27.9403C193.284 30.1361 192.513 31.3549 191.132 31.8396C190.56 32.0404 189.435 32.041 188.87 31.8409C188.017 31.539 187.44 30.9965 186.989 30.0714C186.454 28.9733 186.251 27.7241 186.304 25.8475C186.352 24.1623 186.581 23.1676 187.143 22.2083C187.911 20.8962 189.314 20.2994 190.856 20.6285ZM52.9895 49.9041C42.8515 50.3863 33.1809 53.5942 24.7557 59.2699C19.5074 62.8054 14.6575 67.4774 10.8961 72.621C6.92268 78.0545 3.91396 84.2427 2.11105 90.6898C-0.800132 101.1 -0.698549 112.105 2.40445 122.475C6.79993 137.164 17.0965 149.499 30.7223 156.4C40.5543 161.38 51.4724 163.264 62.5282 161.889C66.8383 161.353 71.5593 160.154 75.6248 158.563L76.0849 158.383L76.1003 145.394C76.1088 138.25 76.1058 132.405 76.0936 132.405C76.0813 132.405 75.7707 132.548 75.4033 132.722C72.3245 134.183 69.0496 135.066 65.5033 135.39C64.5208 135.48 61.8951 135.48 60.9027 135.39C54.7038 134.829 49.3084 132.592 44.5549 128.614C43.5509 127.774 41.4464 125.594 40.5842 124.501C35.4745 118.023 33.2967 109.884 34.4928 101.737C35.4667 95.1031 38.6921 88.9751 43.6041 84.4259C50.3041 78.2209 59.4265 75.5534 68.3557 77.1881C70.7467 77.6258 73.7082 78.5988 75.6373 79.5804L76.1158 79.824L76.1003 66.8087L76.0849 53.7934L75.3794 53.5204C68.3783 50.8115 60.5381 49.5451 52.9895 49.9041Z" fill="#FA0056"/>
<path d="M98.3672 56.6433C98.4558 56.6176 99.137 56.5255 100.192 56.3967C100.293 56.3844 100.735 56.3702 101.174 56.3653C103.624 56.3378 105.331 57.1422 106.072 58.6735C106.334 59.2154 106.46 59.6951 106.54 60.4609C106.578 60.8299 106.601 67.7948 106.601 79.4965L106.602 97.9502H102.431H98.2598V77.3123C98.2598 57.7105 98.2652 56.6729 98.3672 56.6433Z" fill="black"/>
<path d="M117.83 56.6715C118.309 56.5674 118.972 56.4702 119.576 56.4153C119.88 56.3877 120.667 56.3743 121.325 56.3854C122.367 56.403 122.598 56.4258 123.118 56.5631C123.447 56.6497 123.916 56.8268 124.161 56.9566C124.735 57.2606 125.499 57.9983 125.973 58.7052C126.171 59.0007 129.851 65.0529 134.15 72.1547L141.966 85.067L141.982 70.8677L141.997 56.6684L142.135 56.638C142.612 56.5329 143.744 56.404 144.457 56.3736C146.407 56.2903 147.816 56.7183 148.782 57.6874C149.275 58.1816 149.589 58.7421 149.807 59.5134L149.941 59.9874L149.957 78.9693L149.973 97.9512L146.436 97.9352L142.9 97.9191L134.259 84.4193C129.506 76.9944 125.59 70.8916 125.557 70.8576C125.516 70.8166 125.496 75.3574 125.496 84.373V97.9502H121.509H117.521V77.3443V56.7384L117.83 56.6715Z" fill="black"/>
<path d="M158.366 58.1417C159.085 57.3536 160.091 56.8593 161.355 56.6727C161.555 56.6432 168.333 56.6157 176.419 56.6115L191.119 56.604L191.153 56.7437C191.172 56.8205 191.22 57.2744 191.26 57.7525C191.347 58.805 191.303 60.0451 191.161 60.5151C190.842 61.5781 190.13 62.4247 189.159 62.8958C187.987 63.4644 187.703 63.4908 182.743 63.4931L178.618 63.495V80.7226V97.9502H174.416H170.214V80.7226V63.495H163.84H157.466L157.414 63.0139C157.386 62.7492 157.363 61.974 157.363 61.2911C157.363 60.156 157.375 60.0122 157.506 59.6149C157.699 59.0291 157.952 58.5963 158.366 58.1417Z" fill="black"/>
<path d="M198.8 97.9502V77.277V56.6037L211.512 56.6194L224.225 56.635L224.279 56.9454C224.309 57.1161 224.336 57.8704 224.341 58.6216C224.35 60.1591 224.304 60.44 223.914 61.2485C223.386 62.3414 222.36 62.9115 220.546 63.1201C220.204 63.1593 217.551 63.1838 213.599 63.1841L207.204 63.1846V68.2753V73.366H213.645H220.086V76.6563V79.9466H213.645H207.204V85.6869V91.4272L214.365 91.4459L221.527 91.4645L222.116 91.6285C223.052 91.8887 223.592 92.188 224.171 92.7664C224.535 93.1294 224.72 93.3735 224.861 93.6736C225.222 94.4461 225.269 94.7398 225.267 96.1809C225.265 96.8979 225.243 97.5894 225.218 97.7174L225.171 97.9502H211.986H198.8Z" fill="black"/>
<path d="M113.687 115.959C114.059 115.921 114.459 115.88 114.577 115.866C115.144 115.802 118.572 115.886 119.239 115.98C121.405 116.286 123.27 116.847 125.036 117.723C127.291 118.842 128.671 120.085 129.056 121.346C129.205 121.833 129.214 122.569 129.077 123.035C128.798 123.986 128.089 125.052 126.829 126.413L126.314 126.97L125.767 126.463C123.516 124.375 121.598 123.353 119.078 122.898C118.405 122.777 118.075 122.756 116.847 122.754C115.629 122.753 115.291 122.774 114.669 122.888C111.463 123.476 109.134 125.298 107.587 128.427C106.291 131.047 105.691 134.589 105.868 138.561C106.01 141.728 106.532 144.097 107.556 146.218C109.4 150.038 112.651 152.034 117.031 152.036C119.034 152.037 120.561 151.686 122.35 150.813C123.512 150.246 124.285 149.718 125.601 148.594L126.165 148.111L126.471 148.483C127.621 149.881 128.518 151.313 128.803 152.204C128.957 152.685 128.974 153.468 128.84 153.925C128.636 154.62 127.75 155.669 126.845 156.286C124.829 157.661 121.976 158.572 118.687 158.892C117.903 158.968 117.246 158.982 115.773 158.956C113.543 158.917 112.369 158.782 110.712 158.377C103.23 156.548 98.6151 150.725 97.5584 141.78C97.3063 139.645 97.2734 135.939 97.4889 133.957C97.8384 130.743 98.562 128.098 99.7856 125.563C101.253 122.522 103.55 119.948 106.193 118.382C108.407 117.07 111.01 116.228 113.687 115.959Z" fill="black"/>
<path d="M184.678 116.767C185.198 116.644 186.188 116.477 186.685 116.428C186.82 116.415 187.51 116.41 188.218 116.417C189.697 116.432 189.91 116.473 190.825 116.925C191.317 117.167 191.49 117.296 191.929 117.748C192.271 118.098 192.558 118.469 192.762 118.824C192.95 119.15 194.946 123.828 197.789 130.604C200.383 136.785 202.522 141.842 202.544 141.842C202.565 141.842 204.675 136.932 207.233 130.931C209.79 124.93 211.965 119.852 212.065 119.648C212.621 118.512 213.597 117.427 214.479 116.965C215.361 116.503 215.668 116.435 217.007 116.403C218.595 116.366 219.836 116.497 220.806 116.805C221.044 116.881 221.128 116.938 221.128 117.024C221.128 117.087 221.777 126.218 222.57 137.315C223.363 148.412 224.011 157.587 224.011 157.706V157.921H220.087H216.162L216.134 157.781C216.118 157.704 215.703 151.733 215.212 144.511C214.249 130.372 214.264 130.571 214.2 130.647C214.176 130.675 212.31 134.882 210.054 139.995L205.951 149.291H202.445H198.939L196.3 143.409C194.849 140.174 193.044 136.15 192.289 134.466C191.116 131.849 190.911 131.43 190.875 131.579C190.851 131.675 190.457 137.494 189.998 144.511C189.54 151.528 189.149 157.416 189.129 157.595L189.094 157.921H185.107H181.121L181.158 157.564C181.179 157.368 181.845 148.225 182.638 137.248C183.432 126.27 184.095 117.2 184.112 117.091C184.142 116.9 184.158 116.891 184.678 116.767Z" fill="black"/>
<path d="M236.601 116.774C237.076 116.654 238.085 116.484 238.642 116.428C238.777 116.414 239.467 116.41 240.175 116.418C241.648 116.434 241.879 116.478 242.754 116.913C243.701 117.383 244.39 118.144 245.003 119.399C245.153 119.707 247.344 124.894 249.872 130.928C252.4 136.961 254.485 141.878 254.505 141.854C254.525 141.83 256.62 136.936 259.16 130.977C261.7 125.019 263.896 119.907 264.04 119.617C264.677 118.334 265.514 117.429 266.552 116.9C267.333 116.503 267.67 116.434 268.964 116.403C270.552 116.366 271.793 116.497 272.763 116.805C273.058 116.899 273.086 116.924 273.089 117.098C273.091 117.203 273.747 126.424 274.546 137.589L276 157.89L272.079 157.906C269.923 157.915 268.144 157.907 268.126 157.889C268.108 157.87 267.673 151.753 267.16 144.294C266.646 136.835 266.215 130.699 266.202 130.659C266.176 130.581 266.032 130.903 261.121 142.012L257.903 149.291L254.387 149.276L250.872 149.26L246.873 140.33C243.085 131.87 242.872 131.412 242.83 131.638C242.805 131.77 242.41 137.549 241.952 144.48C241.494 151.412 241.103 157.271 241.083 157.502L241.047 157.921H237.061H233.074L233.111 157.564C233.131 157.368 233.799 148.197 234.595 137.186C235.391 126.174 236.054 117.105 236.068 117.033C236.09 116.924 236.186 116.878 236.601 116.774Z" fill="black"/>
<path fill-rule="evenodd" clip-rule="evenodd" d="M152.456 115.9C146.208 116.438 141.507 119.432 138.57 124.745C137.467 126.739 136.57 129.407 136.145 131.955C135.827 133.864 135.774 134.613 135.772 137.217C135.771 139.701 135.814 140.467 136.055 142.181C137.282 150.923 141.785 156.641 148.837 158.412C150.742 158.89 152.834 159.074 155.183 158.968C158.101 158.837 160.46 158.289 162.667 157.229C166.194 155.534 168.835 152.675 170.63 148.609C171.564 146.493 172.206 143.833 172.524 140.755C172.678 139.269 172.678 135.326 172.525 133.771C172.17 130.181 171.471 127.521 170.208 124.957C169.286 123.084 168.323 121.737 166.925 120.361C164.231 117.711 160.879 116.274 156.504 115.895C155.647 115.82 153.343 115.823 152.456 115.9ZM160.492 124.989C159.352 123.821 158.059 123.117 156.414 122.772C155.749 122.632 153.669 122.564 152.977 122.66C149.93 123.079 147.668 124.724 146.237 127.56C145.234 129.549 144.699 131.692 144.447 134.733C144.362 135.769 144.362 138.709 144.447 139.793C144.8 144.257 146.013 147.587 148.076 149.755C149.708 151.469 151.666 152.271 154.218 152.271C155.751 152.271 156.934 152.031 158.062 151.491C161.115 150.03 163.036 146.758 163.765 141.78C164 140.174 164.047 139.384 164.045 137.155C164.042 134.896 163.979 133.982 163.711 132.298C163.221 129.216 162.074 126.613 160.492 124.989Z" fill="black"/>
<path fill-rule="evenodd" clip-rule="evenodd" d="M239.991 56.2948C238.382 56.3696 236.133 56.534 234.624 56.6873L233.305 56.8213L233.289 77.3857L233.274 97.9502H237.476H241.678V90.159V82.3678H243.353H245.027L248.547 88.4362C250.483 91.7739 252.241 94.7701 252.452 95.0944C253.725 97.0475 255.159 98.0775 257.086 98.4241C257.819 98.5557 259.389 98.5555 260.244 98.4236C261.242 98.2699 262.837 97.8174 263.305 97.5555C263.425 97.4883 263.168 97.0372 258.412 88.9862C255.65 84.3121 253.399 80.4807 253.408 80.472C253.418 80.4634 253.605 80.3808 253.824 80.2887C256.495 79.1658 258.525 77.2601 259.775 74.7007C260.377 73.4691 260.793 72.0284 261.012 70.4171C261.11 69.6976 261.109 67.2998 261.01 66.537C260.814 65.0196 260.508 63.9708 259.894 62.719C259.382 61.6737 258.897 61.0041 258.048 60.1709C255.916 58.0795 252.716 56.8801 247.935 56.3805C246.826 56.2647 241.806 56.2106 239.991 56.2948ZM251.521 65.3093C250.653 63.6435 249.266 62.7426 246.953 62.3414C245.901 62.159 243.294 62.174 241.663 62.372C241.637 62.3751 241.617 65.5903 241.617 69.5169V76.6563H243.398C245.737 76.6563 246.601 76.559 247.843 76.1556C249.778 75.5274 251.19 74.1801 251.859 72.325C252.192 71.4017 252.316 70.5632 252.314 69.2375C252.311 67.4957 252.091 66.403 251.521 65.3093Z" fill="black"/>
</svg>
