<svg width="79" height="80" viewBox="0 0 79 80" fill="none" xmlns="http://www.w3.org/2000/svg">
<g style="mix-blend-mode:lighten" filter="url(#filter0_f_1982_15837)">
<circle cx="43.6127" cy="35.5447" r="20.2673" fill="white" fill-opacity="0.3"/>
</g>
<rect x="64" y="54" width="58" height="17" transform="rotate(-180 64 54)" fill="url(#paint0_linear_1982_15837)"/>
<rect x="64" y="31" width="58" height="17" transform="rotate(-180 64 31)" fill="url(#paint1_linear_1982_15837)"/>
<rect x="64" y="78" width="58" height="17" transform="rotate(-180 64 78)" fill="url(#paint2_linear_1982_15837)"/>
<path d="M24 37L6 37L6 54L24 37Z" fill="url(#paint3_linear_1982_15837)"/>
<path d="M24 14L6 14L6 31L24 14Z" fill="url(#paint4_linear_1982_15837)"/>
<path d="M24 61L6 61L6 78L24 61Z" fill="url(#paint5_linear_1982_15837)"/>
<defs>
<filter id="filter0_f_1982_15837" x="8.70781" y="0.639819" width="69.8097" height="69.8102" filterUnits="userSpaceOnUse" color-interpolation-filters="sRGB">
<feFlood flood-opacity="0" result="BackgroundImageFix"/>
<feBlend mode="normal" in="SourceGraphic" in2="BackgroundImageFix" result="shape"/>
<feGaussianBlur stdDeviation="7.31876" result="effect1_foregroundBlur_1982_15837"/>
</filter>
<linearGradient id="paint0_linear_1982_15837" x1="57.3077" y1="49.0889" x2="127.655" y2="80.5958" gradientUnits="userSpaceOnUse">
<stop offset="0.0261371" stop-color="white" stop-opacity="0.81"/>
<stop offset="1" stop-color="white" stop-opacity="0"/>
</linearGradient>
<linearGradient id="paint1_linear_1982_15837" x1="57.3077" y1="26.0889" x2="127.655" y2="57.5958" gradientUnits="userSpaceOnUse">
<stop offset="0.0261371" stop-color="white" stop-opacity="0.81"/>
<stop offset="1" stop-color="white" stop-opacity="0"/>
</linearGradient>
<linearGradient id="paint2_linear_1982_15837" x1="57.3077" y1="73.0889" x2="127.655" y2="104.596" gradientUnits="userSpaceOnUse">
<stop offset="0.0261371" stop-color="white" stop-opacity="0.81"/>
<stop offset="1" stop-color="white" stop-opacity="0"/>
</linearGradient>
<linearGradient id="paint3_linear_1982_15837" x1="20.4" y1="36.4333" x2="20.4" y2="54" gradientUnits="userSpaceOnUse">
<stop stop-color="white" stop-opacity="0"/>
<stop offset="1" stop-color="white"/>
</linearGradient>
<linearGradient id="paint4_linear_1982_15837" x1="20.4" y1="13.4333" x2="20.4" y2="31" gradientUnits="userSpaceOnUse">
<stop stop-color="white" stop-opacity="0"/>
<stop offset="1" stop-color="white"/>
</linearGradient>
<linearGradient id="paint5_linear_1982_15837" x1="20.4" y1="60.4333" x2="20.4" y2="78" gradientUnits="userSpaceOnUse">
<stop stop-color="white" stop-opacity="0"/>
<stop offset="1" stop-color="white"/>
</linearGradient>
</defs>
</svg>
