<svg width="26" height="25" viewBox="0 0 26 25" fill="none" xmlns="http://www.w3.org/2000/svg">
<path d="M13.179 20.2974C17.5256 20.2974 21.0493 16.7737 21.0493 12.427C21.0493 8.08033 17.5256 4.55664 13.179 4.55664C8.83228 4.55664 5.30859 8.08033 5.30859 12.427C5.30859 16.7737 8.83228 20.2974 13.179 20.2974Z" fill="white"/>
<path fill-rule="evenodd" clip-rule="evenodd" d="M20.7253 12.4249C20.7253 12.4239 20.7253 12.423 20.7253 12.4221C20.7253 12.4212 20.7253 12.4202 20.7253 12.4193C16.6058 12.31 13.2864 8.99057 13.1771 4.8711C13.1762 4.8711 13.1752 4.87109 13.1743 4.87109C13.1734 4.87109 13.1724 4.8711 13.1715 4.8711C13.0622 8.99058 9.74277 12.31 5.62329 12.4193C5.62329 12.4202 5.62329 12.4212 5.62329 12.4221C5.62329 12.423 5.62329 12.4239 5.62329 12.4249C9.74281 12.5342 13.0623 15.8536 13.1716 19.9731C13.1725 19.9731 13.1734 19.9731 13.1743 19.9731C13.1752 19.9731 13.1762 19.9731 13.1771 19.9731C13.2864 15.8536 16.6058 12.5342 20.7253 12.4249Z" fill="black"/>
</svg>
