<svg width="93" height="43" viewBox="0 0 93 43" fill="none" xmlns="http://www.w3.org/2000/svg">
<path d="M29.5968 18.5408H26.3823V2.77917H26.8257C26.9365 2.77917 27.0474 2.77917 27.1582 2.77917C27.2691 2.77917 27.3799 2.77917 27.4908 2.77917C27.7125 2.77917 27.9341 2.77917 28.1558 2.8894C28.3775 2.8894 28.5992 2.99962 28.8209 3.10984C29.0426 3.22006 29.2643 3.4405 29.3751 3.66094C29.486 3.77117 29.5968 4.10183 29.5968 4.43249V18.5408Z" fill="black"/>
<path d="M42.2333 13.6909V2.77904H42.5659C42.6767 2.77904 42.7875 2.77904 42.8984 2.77904C43.0092 2.77904 43.1201 2.77904 43.2309 2.77904C43.4526 2.77904 43.6743 2.77904 43.896 2.88927C44.1177 2.88927 44.3394 2.99949 44.561 3.10971C44.7827 3.21993 44.8936 3.44037 45.1153 3.66081C45.2261 3.88126 45.3369 4.21192 45.3369 4.65281V18.7611H42.5659L35.8044 8.17989V18.6509H32.7007V2.77904C32.8116 2.66882 33.0333 2.66882 33.255 2.66882C33.4767 2.66882 33.8092 2.66882 34.0309 2.66882C34.5851 2.66882 34.9176 2.77904 35.2502 2.88927C35.5827 3.10971 35.8044 3.33015 36.0261 3.66081L42.2333 13.6909Z" fill="black"/>
<path d="M52.0983 5.31413H47.1104C47.1104 5.09369 47.1104 4.98347 46.9995 4.87325C46.9995 4.76303 46.9995 4.54258 46.9995 4.43236C46.9995 3.99148 47.1104 3.66081 47.4429 3.21993C47.7754 2.88927 48.3296 2.66882 48.9947 2.66882H60.1899C60.1899 2.99949 60.3008 3.33015 60.3008 3.66081C60.3008 4.1017 60.1899 4.43236 59.8574 4.76303C59.5249 5.09369 59.0815 5.31413 58.3056 5.31413H55.3128V18.5407H51.9875V5.31413H52.0983Z" fill="black"/>
<path d="M70.4981 16.1158C71.274 16.1158 71.8282 16.3363 72.0499 16.6669C72.3824 16.9976 72.4932 17.4385 72.4932 17.8794C72.4932 18.0998 72.4932 18.21 72.4932 18.3202C72.4932 18.4305 72.4932 18.5407 72.4932 18.7611H62.1848V2.66882H72.1607C72.1607 2.88927 72.1607 2.99949 72.2716 3.10971C72.2716 3.21993 72.2716 3.33015 72.2716 3.55059C72.2716 4.1017 72.1607 4.54258 71.8282 4.76303C71.4956 4.98347 71.0523 5.20391 70.2764 5.20391H65.6209V9.06166H70.7197V11.5967H65.6209V16.0056H70.4981V16.1158Z" fill="black"/>
<path d="M85.462 7.29829C85.462 7.95962 85.3512 8.51072 85.2403 9.06183C85.0186 9.50272 84.797 9.9436 84.5753 10.3845C84.2427 10.7151 83.9102 11.0458 83.5777 11.3765C83.2451 11.5969 82.8018 11.8174 82.4692 11.9276L86.3488 18.4306C86.0162 18.5409 85.6837 18.6511 85.3512 18.7613C85.0186 18.8715 84.6861 18.8715 84.3536 18.8715C83.7994 18.8715 83.2451 18.7613 82.9126 18.5409C82.4692 18.3204 82.1367 17.8795 81.8042 17.3284L79.1439 12.5889H77.8138V18.5409H74.4885V2.77922C75.2644 2.669 76.0403 2.669 76.8162 2.669C77.5921 2.669 78.2572 2.55878 78.8114 2.55878C81.1391 2.55878 82.8018 2.99966 83.9102 3.77121C84.9078 4.54276 85.462 5.64497 85.462 7.29829ZM82.0259 7.51873C82.0259 6.52674 81.8042 5.86541 81.2499 5.42453C80.6957 5.09387 80.0307 4.87342 79.1439 4.87342C78.8114 4.87342 78.5897 4.87342 78.368 4.87342C78.1463 4.87342 78.0355 4.87342 77.8138 4.87342V10.3845H78.9222C79.9198 10.3845 80.5849 10.164 81.1391 9.72316C81.8042 9.28227 82.0259 8.51072 82.0259 7.51873Z" fill="black"/>
<path d="M38.2426 40.5551C38.1318 40.6653 38.0209 40.7755 37.7992 40.8857C37.5776 40.9959 37.245 41.2164 36.9125 41.3266C36.58 41.4368 36.1366 41.547 35.5824 41.6573C35.0281 41.7675 34.4739 41.7675 33.8089 41.7675C32.4787 41.7675 31.3703 41.547 30.4835 41.1062C29.5968 40.6653 28.8209 40.1142 28.1558 39.3426C27.4908 38.5711 27.0474 37.6893 26.8257 36.6973C26.4932 35.7053 26.3823 34.6031 26.3823 33.3907C26.3823 32.1782 26.4932 31.076 26.8257 30.084C27.1582 29.092 27.6016 28.2103 28.2667 27.4387C28.9317 26.6672 29.7076 26.1161 30.5944 25.6752C31.4811 25.2343 32.5896 25.0139 33.9197 25.0139C34.5848 25.0139 35.139 25.1241 35.5824 25.2343C36.1366 25.3445 36.4691 25.4547 36.9125 25.6752C37.245 25.7854 37.5776 26.0058 37.7992 26.1161C38.0209 26.3365 38.2426 26.4467 38.3535 26.557C38.4643 26.6672 38.5752 26.8876 38.686 26.9978C38.7968 27.2183 38.7968 27.3285 38.7968 27.5489C38.7968 27.8796 38.686 28.2103 38.4643 28.5409C38.2426 28.8716 37.9101 29.2023 37.6884 29.4227C37.4667 29.2023 37.245 29.092 37.0233 28.8716C36.8016 28.6512 36.4691 28.5409 36.2474 28.3205C35.9149 28.2103 35.5824 27.9898 35.2498 27.9898C34.9173 27.8796 34.4739 27.8796 34.0306 27.8796C33.2546 27.8796 32.5896 27.9898 32.0354 28.3205C31.4811 28.6512 31.0378 29.092 30.7052 29.6431C30.3727 30.1943 30.151 30.7454 30.0402 31.4067C29.9293 32.068 29.8185 32.7293 29.8185 33.5009C29.8185 34.2724 29.9293 34.9338 30.0402 35.5951C30.151 36.2564 30.4835 36.9178 30.8161 37.3586C31.1486 37.9097 31.592 38.3506 32.1462 38.5711C32.7004 38.9017 33.3655 39.012 34.2522 39.012C34.6956 39.012 35.139 38.9017 35.4715 38.7915C35.8041 38.6813 36.1366 38.5711 36.4691 38.3506C36.8016 38.2404 37.0233 38.02 37.245 37.7995C37.4667 37.5791 37.6884 37.4689 37.7992 37.3586C37.9101 37.4689 38.0209 37.5791 38.1318 37.7995C38.2426 37.9097 38.3535 38.1302 38.4643 38.3506C38.5752 38.5711 38.686 38.6813 38.7968 38.9017C38.9077 39.1222 38.9077 39.2324 38.9077 39.3426C38.9077 39.5631 38.9077 39.6733 38.7968 39.8937C38.5752 40.2244 38.4643 40.4448 38.2426 40.5551Z" fill="black"/>
<path d="M54.6473 33.5007C54.6473 34.6029 54.5365 35.7051 54.2039 36.6971C53.9823 37.6891 53.5389 38.5708 52.8738 39.3424C52.3196 40.1139 51.5437 40.665 50.6569 41.1059C49.7702 41.5468 48.6618 41.7673 47.3316 41.7673C46.0015 41.7673 44.8931 41.5468 44.0063 41.1059C43.1196 40.665 42.3436 40.0037 41.7894 39.2322C41.2352 38.4606 40.7918 37.5788 40.5701 36.5869C40.3485 35.5949 40.1268 34.4926 40.1268 33.3904C40.1268 32.2882 40.2376 31.186 40.5701 30.194C40.9027 29.202 41.3461 28.3203 41.9003 27.5487C42.4545 26.7772 43.2304 26.2261 44.228 25.7852C45.1147 25.3443 46.2232 25.1238 47.5533 25.1238C48.7726 25.1238 49.881 25.3443 50.7678 25.7852C51.6545 26.2261 52.4304 26.7772 52.9847 27.5487C53.5389 28.3203 53.9823 29.202 54.2039 30.194C54.5365 31.2962 54.6473 32.2882 54.6473 33.5007ZM51.322 33.5007C51.322 32.7291 51.2112 32.0678 51.1003 31.2962C50.9895 30.6349 50.7678 29.9736 50.4353 29.5327C50.1027 28.9816 49.7702 28.6509 49.216 28.3203C48.7726 27.9896 48.1075 27.8794 47.4425 27.8794C46.6666 27.8794 46.1123 27.9896 45.5581 28.3203C45.0039 28.6509 44.6714 28.9816 44.3388 29.5327C44.0063 30.0838 43.7846 30.6349 43.6738 31.2962C43.5629 31.9576 43.4521 32.7291 43.4521 33.5007C43.4521 34.2722 43.5629 34.9335 43.6738 35.7051C43.7846 36.3664 44.0063 37.0277 44.3388 37.5788C44.6714 38.13 45.0039 38.5708 45.5581 38.9015C46.0015 39.2322 46.6666 39.3424 47.3316 39.3424C47.9967 39.3424 48.6618 39.2322 49.1051 38.9015C49.5485 38.5708 49.9919 38.13 50.3244 37.5788C50.6569 37.0277 50.8786 36.4766 50.9895 35.7051C51.2112 35.0438 51.322 34.2722 51.322 33.5007Z" fill="black"/>
<path d="M59.8571 25.4546C60.4113 25.4546 60.7438 25.5648 61.0764 25.7853C61.4089 26.0057 61.6306 26.3364 61.7414 26.7772L65.3993 35.2643L69.0571 26.8875C69.2788 26.3364 69.6114 26.0057 69.9439 25.7853C70.2764 25.5648 70.609 25.4546 71.0523 25.4546C71.3849 25.4546 71.7174 25.4546 72.0499 25.5648C72.3825 25.5648 72.6041 25.675 72.715 25.675L73.8234 41.4367H70.7198L69.9439 30.9657L66.7294 38.13H63.9583L60.8547 31.1861L60.1896 41.4367H57.086L58.3053 25.675C58.4161 25.675 58.7487 25.5648 58.9703 25.5648C59.192 25.5648 59.5246 25.4546 59.8571 25.4546Z" fill="black"/>
<path d="M79.0332 25.4546C79.5875 25.4546 79.92 25.5648 80.2525 25.7853C80.5851 26.0057 80.8067 26.3364 80.9176 26.7772L84.5754 35.2643L88.2333 26.8875C88.455 26.3364 88.7875 26.0057 89.12 25.7853C89.4526 25.5648 89.7851 25.4546 90.2285 25.4546C90.561 25.4546 90.8935 25.4546 91.2261 25.5648C91.5586 25.5648 91.7803 25.675 91.8911 25.675L92.9996 41.4367H89.8959L89.12 30.9657L85.9056 38.13H83.2453L80.1417 31.1861L79.4766 41.4367H76.373L77.5923 25.675C77.7031 25.675 78.0356 25.5648 78.2573 25.5648C78.3682 25.5648 78.7007 25.4546 79.0332 25.4546Z" fill="black"/>
<path d="M19.2804 16.2306C14.1843 14.2605 8.2048 15.3112 4.12788 19.2514C-1.37596 24.5707 -1.37596 33.1734 4.12788 38.4927C8.2048 42.4329 14.1843 43.4836 19.2804 41.5135V35.2092C18.2612 35.6689 17.174 35.9316 16.0189 35.9316C11.942 35.9316 8.68044 32.7794 8.68044 28.8392C8.68044 24.899 11.942 21.7469 16.0189 21.7469C17.174 21.7469 18.3292 22.0095 19.2804 22.4692V16.2306Z" fill="#FA0056"/>
<path d="M16.6747 9.25046C18.6367 7.28361 18.6367 4.02813 16.6747 1.99345C14.7128 0.0265972 11.4654 0.0265972 9.43584 1.99345C7.40624 3.9603 7.4739 7.21579 9.43584 9.25046C11.4654 11.2173 14.7128 11.2173 16.6747 9.25046Z" fill="#FA0056"/>
</svg>
