<svg width="94" height="94" viewBox="0 0 94 94" fill="none" xmlns="http://www.w3.org/2000/svg">
<g style="mix-blend-mode:lighten" opacity="0.3" filter="url(#filter0_f_2552_19790)">
<circle cx="51.167" cy="42" r="24" fill="white"/>
</g>
<path d="M78.291 77.0742L59.8539 77.0742L50.6353 58.6371L41.4167 58.6371L32.1981 58.6371L22.9795 77.0742L4.54237 77.0742L4.54238 44.7924C4.54238 31.5375 15.2875 20.7924 28.5424 20.7924L55.291 20.7924C67.9936 20.7924 78.291 31.0898 78.291 43.7924L78.291 77.0742Z" fill="url(#paint0_linear_2552_19790)"/>
<g filter="url(#filter1_ii_2552_19790)">
<path d="M59.7744 44.5345C59.7744 41.589 62.1622 39.2012 65.1077 39.2012C68.0533 39.2012 70.4411 41.589 70.4411 44.5345C70.4411 47.48 68.0533 49.8678 65.1077 49.8678C62.1622 49.8678 59.7744 47.48 59.7744 44.5345Z" fill="white"/>
</g>
<g filter="url(#filter2_ii_2552_19790)">
<path d="M49.0186 33.888C49.0186 30.9425 51.4064 28.5547 54.3519 28.5547C57.2974 28.5547 59.6852 30.9425 59.6852 33.888C59.6852 36.8335 57.2974 39.2214 54.3519 39.2214C51.4064 39.2214 49.0186 36.8335 49.0186 33.888Z" fill="white"/>
</g>
<path d="M24.5563 52.8157L12.1445 39.9075H24.5563V27.5859L36.404 39.9075H24.5563V52.8157Z" fill="white"/>
<defs>
<filter id="filter0_f_2552_19790" x="9.30452" y="0.137526" width="83.7249" height="83.7249" filterUnits="userSpaceOnUse" color-interpolation-filters="sRGB">
<feFlood flood-opacity="0" result="BackgroundImageFix"/>
<feBlend mode="normal" in="SourceGraphic" in2="BackgroundImageFix" result="shape"/>
<feGaussianBlur stdDeviation="8.93124" result="effect1_foregroundBlur_2552_19790"/>
</filter>
<filter id="filter1_ii_2552_19790" x="59.7744" y="39.2012" width="10.667" height="13.7819" filterUnits="userSpaceOnUse" color-interpolation-filters="sRGB">
<feFlood flood-opacity="0" result="BackgroundImageFix"/>
<feBlend mode="normal" in="SourceGraphic" in2="BackgroundImageFix" result="shape"/>
<feColorMatrix in="SourceAlpha" type="matrix" values="0 0 0 0 0 0 0 0 0 0 0 0 0 0 0 0 0 0 127 0" result="hardAlpha"/>
<feOffset dy="3.11584"/>
<feGaussianBlur stdDeviation="1.55792"/>
<feComposite in2="hardAlpha" operator="arithmetic" k2="-1" k3="1"/>
<feColorMatrix type="matrix" values="0 0 0 0 1 0 0 0 0 1 0 0 0 0 1 0 0 0 0.15 0"/>
<feBlend mode="normal" in2="shape" result="effect1_innerShadow_2552_19790"/>
<feColorMatrix in="SourceAlpha" type="matrix" values="0 0 0 0 0 0 0 0 0 0 0 0 0 0 0 0 0 0 127 0" result="hardAlpha"/>
<feOffset/>
<feGaussianBlur stdDeviation="23.3688"/>
<feComposite in2="hardAlpha" operator="arithmetic" k2="-1" k3="1"/>
<feColorMatrix type="matrix" values="0 0 0 0 1 0 0 0 0 1 0 0 0 0 1 0 0 0 0.05 0"/>
<feBlend mode="normal" in2="effect1_innerShadow_2552_19790" result="effect2_innerShadow_2552_19790"/>
</filter>
<filter id="filter2_ii_2552_19790" x="49.0186" y="28.5547" width="10.667" height="13.7819" filterUnits="userSpaceOnUse" color-interpolation-filters="sRGB">
<feFlood flood-opacity="0" result="BackgroundImageFix"/>
<feBlend mode="normal" in="SourceGraphic" in2="BackgroundImageFix" result="shape"/>
<feColorMatrix in="SourceAlpha" type="matrix" values="0 0 0 0 0 0 0 0 0 0 0 0 0 0 0 0 0 0 127 0" result="hardAlpha"/>
<feOffset dy="3.11584"/>
<feGaussianBlur stdDeviation="1.55792"/>
<feComposite in2="hardAlpha" operator="arithmetic" k2="-1" k3="1"/>
<feColorMatrix type="matrix" values="0 0 0 0 1 0 0 0 0 1 0 0 0 0 1 0 0 0 0.15 0"/>
<feBlend mode="normal" in2="shape" result="effect1_innerShadow_2552_19790"/>
<feColorMatrix in="SourceAlpha" type="matrix" values="0 0 0 0 0 0 0 0 0 0 0 0 0 0 0 0 0 0 127 0" result="hardAlpha"/>
<feOffset/>
<feGaussianBlur stdDeviation="23.3688"/>
<feComposite in2="hardAlpha" operator="arithmetic" k2="-1" k3="1"/>
<feColorMatrix type="matrix" values="0 0 0 0 1 0 0 0 0 1 0 0 0 0 1 0 0 0 0.05 0"/>
<feBlend mode="normal" in2="effect1_innerShadow_2552_19790" result="effect2_innerShadow_2552_19790"/>
</filter>
<linearGradient id="paint0_linear_2552_19790" x1="86.8005" y1="93.3334" x2="-17.5042" y2="75.3914" gradientUnits="userSpaceOnUse">
<stop offset="0.0261371" stop-color="white" stop-opacity="0.81"/>
<stop offset="1" stop-color="white" stop-opacity="0"/>
</linearGradient>
</defs>
</svg>
