<svg width="100" height="98" viewBox="0 0 100 98" fill="none" xmlns="http://www.w3.org/2000/svg">
<circle cx="40.5" cy="58" r="36" fill="url(#paint0_linear_1671_31588)"/>
<path d="M65.9558 83.4558C70.9905 78.4212 74.4192 72.0066 75.8083 65.0233C77.1973 58.0399 76.4844 50.8015 73.7597 44.2234C71.0349 37.6453 66.4207 32.0228 60.5005 28.0671C54.5804 24.1114 47.6201 22 40.5 22L40.5 58L65.9558 83.4558Z" fill="url(#paint1_linear_1671_31588)"/>
<g style="mix-blend-mode:lighten" filter="url(#filter0_f_1671_31588)">
<ellipse cx="57.8333" cy="42" rx="24" ry="24" fill="white" fill-opacity="0.3"/>
</g>
<g filter="url(#filter1_ii_1671_31588)">
<path d="M35.4336 57.7816C35.4336 55.102 37.6059 52.9297 40.2855 52.9297C42.9651 52.9297 45.1374 55.102 45.1374 57.7816C45.1374 60.4612 42.9651 62.6335 40.2855 62.6335C37.6059 62.6335 35.4336 60.4612 35.4336 57.7816Z" fill="white"/>
</g>
<path d="M66.9536 86.8815L42.4688 62.3967C41.7989 61.7268 41.7989 60.6407 42.4688 59.9708C43.1387 59.3009 44.2249 59.3009 44.8948 59.9708L69.3796 84.4556C69.7013 84.7773 69.882 85.2136 69.882 85.6685C69.882 86.6159 69.114 87.3839 68.1666 87.3839C67.7116 87.3839 67.2753 87.2032 66.9536 86.8815Z" fill="white"/>
<path d="M42.6581 32.1723L42.6581 54.8232C42.6581 56.1901 41.55 57.2982 40.1831 57.2982C38.8162 57.2982 37.7081 56.1901 37.7081 54.8232L37.7081 32.1723C37.7081 31.5159 37.9688 30.8864 38.433 30.4223C39.3995 29.4557 40.9666 29.4557 41.9332 30.4223C42.3973 30.8864 42.6581 31.5159 42.6581 32.1723Z" fill="white"/>
<defs>
<filter id="filter0_f_1671_31588" x="15.9708" y="0.137526" width="83.7249" height="83.7249" filterUnits="userSpaceOnUse" color-interpolation-filters="sRGB">
<feFlood flood-opacity="0" result="BackgroundImageFix"/>
<feBlend mode="normal" in="SourceGraphic" in2="BackgroundImageFix" result="shape"/>
<feGaussianBlur stdDeviation="8.93124" result="effect1_foregroundBlur_1671_31588"/>
</filter>
<filter id="filter1_ii_1671_31588" x="35.4336" y="52.9297" width="9.70386" height="12.819" filterUnits="userSpaceOnUse" color-interpolation-filters="sRGB">
<feFlood flood-opacity="0" result="BackgroundImageFix"/>
<feBlend mode="normal" in="SourceGraphic" in2="BackgroundImageFix" result="shape"/>
<feColorMatrix in="SourceAlpha" type="matrix" values="0 0 0 0 0 0 0 0 0 0 0 0 0 0 0 0 0 0 127 0" result="hardAlpha"/>
<feOffset dy="3.11584"/>
<feGaussianBlur stdDeviation="1.55792"/>
<feComposite in2="hardAlpha" operator="arithmetic" k2="-1" k3="1"/>
<feColorMatrix type="matrix" values="0 0 0 0 1 0 0 0 0 1 0 0 0 0 1 0 0 0 0.15 0"/>
<feBlend mode="normal" in2="shape" result="effect1_innerShadow_1671_31588"/>
<feColorMatrix in="SourceAlpha" type="matrix" values="0 0 0 0 0 0 0 0 0 0 0 0 0 0 0 0 0 0 127 0" result="hardAlpha"/>
<feOffset/>
<feGaussianBlur stdDeviation="23.3688"/>
<feComposite in2="hardAlpha" operator="arithmetic" k2="-1" k3="1"/>
<feColorMatrix type="matrix" values="0 0 0 0 1 0 0 0 0 1 0 0 0 0 1 0 0 0 0.05 0"/>
<feBlend mode="normal" in2="effect1_innerShadow_1671_31588" result="effect2_innerShadow_1671_31588"/>
</filter>
<linearGradient id="paint0_linear_1671_31588" x1="-3.80768" y1="-2.86034" x2="99.4042" y2="10.1209" gradientUnits="userSpaceOnUse">
<stop offset="0.0261371" stop-color="white" stop-opacity="0.81"/>
<stop offset="1" stop-color="white" stop-opacity="0"/>
</linearGradient>
<linearGradient id="paint1_linear_1671_31588" x1="47.5633" y1="66.5189" x2="37.8595" y2="21.8815" gradientUnits="userSpaceOnUse">
<stop offset="0.0261371" stop-color="white" stop-opacity="0.81"/>
<stop offset="0.859375" stop-color="white" stop-opacity="0"/>
</linearGradient>
</defs>
</svg>
