<svg width="84" height="74" viewBox="0 0 84 74" fill="none" xmlns="http://www.w3.org/2000/svg">
<g clip-path="url(#clip0_1982_15821)">
<g style="mix-blend-mode:lighten" filter="url(#filter0_f_1982_15821)">
<path d="M37.3164 57.9773C49.0245 57.9773 58.5159 48.4492 58.5159 36.6957C58.5159 24.9422 49.0245 15.4141 37.3164 15.4141C25.6083 15.4141 16.1169 24.9422 16.1169 36.6957C16.1169 48.4492 25.6083 57.9773 37.3164 57.9773Z" fill="white" fill-opacity="0.3"/>
</g>
<path d="M83 0H13V45H83V0Z" fill="url(#paint0_linear_1982_15821)"/>
<path d="M13 24H37V0L13 24Z" fill="url(#paint1_linear_1982_15821)"/>
<path d="M37 27L18 45H56L37 27Z" fill="url(#paint2_linear_1982_15821)"/>
<path d="M55.8655 19L28.7773 45.0108H82.9537L55.8655 19Z" fill="url(#paint3_linear_1982_15821)"/>
<path d="M37 24C41.4183 24 45 20.4183 45 16C45 11.5817 41.4183 8 37 8C32.5817 8 29 11.5817 29 16C29 20.4183 32.5817 24 37 24Z" fill="white"/>
<rect x="13" y="51.4023" width="17.2086" height="17.2086" fill="url(#paint4_linear_1982_15821)"/>
<rect x="36" y="51" width="47" height="18" fill="url(#paint5_linear_1982_15821)"/>
<path d="M13 58.5L18.6667 64L30 53" stroke="white" stroke-width="5"/>
</g>
<defs>
<filter id="filter0_f_1982_15821" x="-1.74554" y="-2.44842" width="78.1239" height="78.2875" filterUnits="userSpaceOnUse" color-interpolation-filters="sRGB">
<feFlood flood-opacity="0" result="BackgroundImageFix"/>
<feBlend mode="normal" in="SourceGraphic" in2="BackgroundImageFix" result="shape"/>
<feGaussianBlur stdDeviation="8.93124" result="effect1_foregroundBlur_1982_15821"/>
</filter>
<linearGradient id="paint0_linear_1982_15821" x1="-19.9001" y1="58.5" x2="84.8727" y2="40.7607" gradientUnits="userSpaceOnUse">
<stop offset="0.0261371" stop-color="white"/>
<stop offset="1" stop-color="white" stop-opacity="0"/>
</linearGradient>
<linearGradient id="paint1_linear_1982_15821" x1="17.8" y1="24.8" x2="17.8" y2="-1.4782e-06" gradientUnits="userSpaceOnUse">
<stop stop-color="white" stop-opacity="0"/>
<stop offset="1" stop-color="white"/>
</linearGradient>
<linearGradient id="paint2_linear_1982_15821" x1="0.14001" y1="50.4001" x2="55.7129" y2="37.6306" gradientUnits="userSpaceOnUse">
<stop offset="0.0261371" stop-color="white"/>
<stop offset="1" stop-color="white" stop-opacity="0"/>
</linearGradient>
<linearGradient id="paint3_linear_1982_15821" x1="3.31452" y1="52.814" x2="82.6502" y2="34.8284" gradientUnits="userSpaceOnUse">
<stop offset="0.0261371" stop-color="white"/>
<stop offset="1" stop-color="white" stop-opacity="0"/>
</linearGradient>
<linearGradient id="paint4_linear_1982_15821" x1="11.0144" y1="46.431" x2="35.6486" y2="49.6648" gradientUnits="userSpaceOnUse">
<stop offset="0.0261371" stop-color="white" stop-opacity="0.81"/>
<stop offset="1" stop-color="white" stop-opacity="0"/>
</linearGradient>
<linearGradient id="paint5_linear_1982_15821" x1="30.5769" y1="45.8" x2="91.8213" y2="66.793" gradientUnits="userSpaceOnUse">
<stop offset="0.0261371" stop-color="white" stop-opacity="0.81"/>
<stop offset="1" stop-color="white" stop-opacity="0"/>
</linearGradient>
<clipPath id="clip0_1982_15821">
<rect width="84" height="74" fill="white"/>
</clipPath>
</defs>
</svg>
