<svg width="211" height="211" viewBox="0 0 211 211" fill="none" xmlns="http://www.w3.org/2000/svg">
<g opacity="0.2">
<path fill-rule="evenodd" clip-rule="evenodd" d="M158.25 133.631V77.3658V77.364C158.248 61.8272 133.845 49.2324 103.742 49.2324C73.6387 49.2324 49.2352 61.8272 49.2334 77.364V77.3658V133.631C49.2334 133.632 49.2334 133.633 49.2334 133.634C49.2334 149.172 73.6376 161.767 103.742 161.767C133.846 161.767 158.25 149.172 158.25 133.634C158.25 133.633 158.25 133.632 158.25 133.631Z" fill="url(#paint0_linear_309_7436)"/>
<rect width="125.619" height="125.619" transform="matrix(-0.835391 0.549657 0.835391 0.549657 104.941 10.5508)" fill="url(#paint1_linear_309_7436)"/>
<rect width="29.1605" height="29.1605" transform="matrix(-0.539245 0.842149 -0.559984 -0.828504 200.854 119.109)" fill="white"/>
<path d="M104.941 10.5508V148.646L209.882 79.5982L104.941 10.5508Z" fill="url(#paint2_linear_309_7436)"/>
<g style="mix-blend-mode:lighten" filter="url(#filter0_f_309_7436)">
<ellipse cx="133.194" cy="73.85" rx="101.544" ry="100.225" fill="white" fill-opacity="0.3"/>
</g>
</g>
<defs>
<filter id="filter0_f_309_7436" x="12.671" y="-45.3539" width="241.045" height="238.407" filterUnits="userSpaceOnUse" color-interpolation-filters="sRGB">
<feFlood flood-opacity="0" result="BackgroundImageFix"/>
<feBlend mode="normal" in="SourceGraphic" in2="BackgroundImageFix" result="shape"/>
<feGaussianBlur stdDeviation="9.48944" result="effect1_foregroundBlur_309_7436"/>
</filter>
<linearGradient id="paint0_linear_309_7436" x1="158.25" y1="119.567" x2="45.7167" y2="119.567" gradientUnits="userSpaceOnUse">
<stop offset="0.0261371" stop-color="white"/>
<stop offset="1" stop-color="white" stop-opacity="0"/>
</linearGradient>
<linearGradient id="paint1_linear_309_7436" x1="-69.1838" y1="29.7841" x2="129.762" y2="31.9675" gradientUnits="userSpaceOnUse">
<stop offset="0.0261371" stop-color="white"/>
<stop offset="1" stop-color="white" stop-opacity="0"/>
</linearGradient>
<linearGradient id="paint2_linear_309_7436" x1="187.618" y1="-11.1056" x2="89.1511" y2="141.869" gradientUnits="userSpaceOnUse">
<stop offset="0.0261371" stop-color="white"/>
<stop offset="1" stop-color="white" stop-opacity="0"/>
</linearGradient>
</defs>
</svg>
