<svg width="12" height="18" viewBox="0 0 12 18" fill="none" xmlns="http://www.w3.org/2000/svg">
<path d="M3.55563 10.3232L3.43584 10.3123C1.90803 10.1735 1.14412 10.104 0.901464 9.58142C0.658813 9.05884 1.09869 8.43044 1.97846 7.17364L5.56119 2.05544C6.14238 1.22517 6.43298 0.810035 6.6836 0.898309C6.93423 0.986584 6.90052 1.4922 6.83311 2.50343L6.62987 5.55194C6.56852 6.47214 6.53785 6.93224 6.80227 7.24188C7.06668 7.55152 7.52591 7.59326 8.44437 7.67676L8.56416 7.68765C10.092 7.82654 10.8559 7.89599 11.0985 8.41858C11.3412 8.94116 10.9013 9.56956 10.0215 10.8264L6.43881 15.9446C5.85762 16.7748 5.56702 17.19 5.3164 17.1017C5.06577 17.0134 5.09948 16.5078 5.16689 15.4966L5.37013 12.4481C5.43148 11.5279 5.46215 11.0678 5.19773 10.7581C4.93332 10.4485 4.47409 10.4067 3.55563 10.3232Z" fill="#AD073D"/>
</svg>
