<svg width="96" height="98" viewBox="0 0 96 98" fill="none" xmlns="http://www.w3.org/2000/svg">
<g style="mix-blend-mode:lighten" filter="url(#filter0_f_114_4502)">
<circle cx="52.8943" cy="43.4158" r="24.7327" fill="white" fill-opacity="0.3"/>
</g>
<path d="M14.4213 37.9199H68.0088V58.5305C68.0088 76.7431 53.2445 91.5073 35.0319 91.5073H14.4213V37.9199Z" fill="url(#paint0_linear_114_4502)"/>
<path d="M30.0001 40V31.9923C30.0001 25.9214 34.9215 21 40.9924 21H42.0078C48.0786 21 53.0001 25.9214 53.0001 31.9923V40" stroke="white" stroke-width="8.24422" stroke-linecap="square"/>
<path d="M68.0088 37.9199H14.4213V91.5073L68.0088 37.9199Z" fill="url(#paint1_linear_114_4502)"/>
<path d="M15.0001 65L42.0001 65L42.0001 38L15.0001 65Z" fill="url(#paint2_linear_114_4502)"/>
<defs>
<filter id="filter0_f_114_4502" x="10.2991" y="0.820631" width="85.1903" height="85.1903" filterUnits="userSpaceOnUse" color-interpolation-filters="sRGB">
<feFlood flood-opacity="0" result="BackgroundImageFix"/>
<feBlend mode="normal" in="SourceGraphic" in2="BackgroundImageFix" result="shape"/>
<feGaussianBlur stdDeviation="8.93124" result="effect1_foregroundBlur_114_4502"/>
</filter>
<linearGradient id="paint0_linear_114_4502" x1="8.23817" y1="22.4391" x2="12.3879" y2="95.8298" gradientUnits="userSpaceOnUse">
<stop offset="0.0261371" stop-color="white" stop-opacity="0.81"/>
<stop offset="1" stop-color="white" stop-opacity="0"/>
</linearGradient>
<linearGradient id="paint1_linear_114_4502" x1="44.6501" y1="50.2863" x2="14.4213" y2="106.622" gradientUnits="userSpaceOnUse">
<stop stop-color="white" stop-opacity="0"/>
<stop offset="1" stop-color="white"/>
</linearGradient>
<linearGradient id="paint2_linear_114_4502" x1="20.4001" y1="65.9" x2="20.4001" y2="38" gradientUnits="userSpaceOnUse">
<stop stop-color="white" stop-opacity="0"/>
<stop offset="1" stop-color="white"/>
</linearGradient>
</defs>
</svg>
