<svg width="211" height="211" viewBox="0 0 211 211" fill="none" xmlns="http://www.w3.org/2000/svg">
<g opacity="0.2">
<g style="mix-blend-mode:lighten" filter="url(#filter0_f_309_7478)">
<ellipse cx="133.194" cy="73.8496" rx="93.6312" ry="92.3125" fill="white" fill-opacity="0.3"/>
</g>
<path d="M35.1665 59.7793H172.316V115.069C172.316 160.279 135.666 196.929 90.4562 196.929H35.1665V59.7793Z" fill="url(#paint0_linear_309_7478)"/>
<path d="M75.0381 65.1085V43.7672C75.0381 28.6972 87.2548 16.4805 102.325 16.4805H106.617C121.687 16.4805 133.904 28.6972 133.904 43.7672V65.1085" stroke="white" stroke-width="20.4651" stroke-linecap="square"/>
<path d="M172.317 196.929L172.317 59.7793L35.1674 59.7793L172.317 196.929Z" fill="url(#paint1_linear_309_7478)"/>
<path d="M34.2876 60.6625L34.2876 197.812L171.438 197.813L34.2876 60.6625Z" fill="url(#paint2_linear_309_7478)"/>
</g>
<defs>
<filter id="filter0_f_309_7478" x="-4.77847" y="-62.8039" width="275.945" height="273.307" filterUnits="userSpaceOnUse" color-interpolation-filters="sRGB">
<feFlood flood-opacity="0" result="BackgroundImageFix"/>
<feBlend mode="normal" in="SourceGraphic" in2="BackgroundImageFix" result="shape"/>
<feGaussianBlur stdDeviation="22.1705" result="effect1_foregroundBlur_309_7478"/>
</filter>
<linearGradient id="paint0_linear_309_7478" x1="19.3415" y1="20.1582" x2="29.9623" y2="207.992" gradientUnits="userSpaceOnUse">
<stop offset="0.0261371" stop-color="white" stop-opacity="0.81"/>
<stop offset="1" stop-color="white" stop-opacity="0"/>
</linearGradient>
<linearGradient id="paint1_linear_309_7478" x1="140.667" y1="137.146" x2="-3.51594" y2="59.7793" gradientUnits="userSpaceOnUse">
<stop stop-color="white" stop-opacity="0"/>
<stop offset="1" stop-color="white"/>
</linearGradient>
<linearGradient id="paint2_linear_309_7478" x1="29.7159" y1="88.0925" x2="171.438" y2="88.0925" gradientUnits="userSpaceOnUse">
<stop stop-color="white" stop-opacity="0"/>
<stop offset="1" stop-color="white"/>
</linearGradient>
</defs>
</svg>
