<svg width="67" height="66" viewBox="0 0 67 66" fill="none" xmlns="http://www.w3.org/2000/svg">
<g clip-path="url(#clip0_538_10871)">
<path fill-rule="evenodd" clip-rule="evenodd" d="M33.043 23.0519C27.5488 23.0519 23.0948 27.5058 23.0948 33C23.0948 38.4942 27.5488 42.9481 33.043 42.9481C38.5372 42.9481 42.9911 38.4942 42.9911 33C42.9911 27.5058 38.5372 23.0519 33.043 23.0519ZM16.043 33C16.043 23.6112 23.6541 16 33.043 16C42.4318 16 50.043 23.6112 50.043 33C50.043 42.3888 42.4318 50 33.043 50C23.6541 50 16.043 42.3888 16.043 33Z" fill="#F09900"/>
<path fill-rule="evenodd" clip-rule="evenodd" d="M33.043 6.86989C18.6117 6.86989 6.91286 18.5687 6.91286 33C6.91286 47.4313 18.6117 59.1301 33.043 59.1301C38.4246 59.1301 43.4168 57.5069 47.5693 54.7239L51.3939 60.4308C46.1453 63.9483 39.8285 66 33.043 66C14.8176 66 0.0429688 51.2254 0.0429688 33C0.0429688 14.7746 14.8176 0 33.043 0C51.2684 0 66.043 14.7746 66.043 33C66.043 35.6838 65.7219 38.2972 65.1144 40.8021L65.1021 40.8528L65.0079 41.1955C63.4592 46.829 58.0046 50.467 52.2086 49.7323C50.6247 49.5316 49.1123 48.9444 47.8099 48.0327C44.6441 45.8166 42.7344 42.1814 42.7344 38.3017V33H49.6043V38.3017C49.6043 39.9244 50.4076 41.4653 51.7496 42.4047C52.1438 42.6807 52.6018 42.8573 53.0725 42.917C55.4776 43.2219 57.7411 41.7122 58.3838 39.3745L58.4499 39.1339C58.9221 37.17 59.1731 35.1166 59.1731 33C59.1731 18.5687 47.4742 6.86989 33.043 6.86989Z" fill="#F09900"/>
</g>
<defs>
<clipPath id="clip0_538_10871">
<rect width="66" height="66" fill="white" transform="translate(0.0429688)"/>
</clipPath>
</defs>
</svg>
