<svg width="65" height="30" viewBox="0 0 65 30" fill="none" xmlns="http://www.w3.org/2000/svg">
<path d="M21.2673 12.964H19.0552V2.11719H19.3603C19.4366 2.11719 19.5129 2.11719 19.5891 2.11719C19.6654 2.11719 19.7417 2.11719 19.818 2.11719C19.9705 2.11719 20.1231 2.11719 20.2757 2.19304C20.4282 2.19304 20.5808 2.26889 20.7334 2.34474C20.8859 2.4206 21.0385 2.5723 21.1148 2.724C21.191 2.79986 21.2673 3.02741 21.2673 3.25497V12.964Z" fill="url(#paint0_linear_265_7049)"/>
<path d="M29.9634 9.62622V2.11687H30.1923C30.2686 2.11687 30.3449 2.11687 30.4211 2.11687C30.4974 2.11687 30.5737 2.11687 30.65 2.11687C30.8025 2.11687 30.9551 2.11687 31.1077 2.19272C31.2602 2.19272 31.4128 2.26857 31.5653 2.34442C31.7179 2.42028 31.7942 2.57198 31.9467 2.72368C32.023 2.87539 32.0993 3.10294 32.0993 3.40635V13.1154H30.1923L25.5392 5.83362V13.0396H23.4033V2.11687C23.4796 2.04102 23.6322 2.04102 23.7847 2.04102C23.9373 2.04102 24.1661 2.04102 24.3187 2.04102C24.7001 2.04102 24.9289 2.11687 25.1578 2.19272C25.3866 2.34442 25.5392 2.49613 25.6917 2.72368L29.9634 9.62622Z" fill="url(#paint1_linear_265_7049)"/>
<path d="M36.7526 3.86147H33.3199C33.3199 3.70976 33.3199 3.63391 33.2437 3.55806C33.2437 3.48221 33.2437 3.3305 33.2437 3.25465C33.2437 2.95124 33.3199 2.72368 33.5488 2.42028C33.7776 2.19272 34.159 2.04102 34.6167 2.04102H42.321C42.321 2.26857 42.3973 2.49613 42.3973 2.72368C42.3973 3.02709 42.321 3.25465 42.0922 3.48221C41.8634 3.70976 41.5582 3.86147 41.0243 3.86147H38.9647V12.9637H36.6763V3.86147H36.7526Z" fill="url(#paint2_linear_265_7049)"/>
<path d="M49.4149 11.295C49.9489 11.295 50.3303 11.4467 50.4828 11.6742C50.7117 11.9018 50.7879 12.2052 50.7879 12.5086C50.7879 12.6603 50.7879 12.7362 50.7879 12.812C50.7879 12.8879 50.7879 12.9637 50.7879 13.1154H43.6938V2.04102H50.5591C50.5591 2.19272 50.5591 2.26857 50.6354 2.34442C50.6354 2.42028 50.6354 2.49613 50.6354 2.64783C50.6354 3.02709 50.5591 3.3305 50.3303 3.4822C50.1014 3.63391 49.7963 3.78561 49.2623 3.78561H46.0585V6.44044H49.5675V8.18503H46.0585V11.2191H49.4149V11.295Z" fill="url(#paint3_linear_265_7049)"/>
<path d="M59.7124 5.22648C59.7124 5.6816 59.6361 6.06086 59.5599 6.44012C59.4073 6.74352 59.2547 7.04693 59.1022 7.35034C58.8733 7.5779 58.6445 7.80545 58.4157 8.03301C58.1868 8.18471 57.8817 8.33642 57.6528 8.41227L60.3227 12.8875C60.0938 12.9634 59.865 13.0392 59.6361 13.1151C59.4073 13.191 59.1785 13.191 58.9496 13.191C58.5682 13.191 58.1868 13.1151 57.958 12.9634C57.6528 12.8117 57.424 12.5083 57.1952 12.129L55.3644 8.86738H54.4491V12.9634H52.1606V2.11655C52.6946 2.0407 53.2286 2.0407 53.7625 2.0407C54.2965 2.0407 54.7542 1.96484 55.1356 1.96484C56.7375 1.96484 57.8817 2.26825 58.6445 2.79922C59.331 3.33018 59.7124 4.0887 59.7124 5.22648ZM57.3477 5.37819C57.3477 4.69552 57.1952 4.24041 56.8138 3.937C56.4324 3.70944 55.9747 3.55774 55.3644 3.55774C55.1356 3.55774 54.983 3.55774 54.8305 3.55774C54.6779 3.55774 54.6016 3.55774 54.4491 3.55774V7.35034H55.2119C55.8984 7.35034 56.3561 7.19864 56.7375 6.89523C57.1952 6.59182 57.3477 6.06086 57.3477 5.37819Z" fill="url(#paint4_linear_265_7049)"/>
<path d="M27.2172 28.1131C27.1409 28.189 27.0646 28.2648 26.9121 28.3407C26.7595 28.4165 26.5307 28.5682 26.3018 28.6441C26.073 28.7199 25.7679 28.7958 25.3865 28.8716C25.0051 28.9475 24.6237 28.9475 24.166 28.9475C23.2506 28.9475 22.4878 28.7958 21.8776 28.4924C21.2673 28.189 20.7333 27.8097 20.2757 27.2787C19.818 26.7478 19.5129 26.141 19.3603 25.4583C19.1315 24.7756 19.0552 24.0171 19.0552 23.1827C19.0552 22.3484 19.1315 21.5898 19.3603 20.9072C19.5891 20.2245 19.8943 19.6177 20.3519 19.0867C20.8096 18.5557 21.3436 18.1765 21.9538 17.8731C22.5641 17.5697 23.3269 17.418 24.2423 17.418C24.6999 17.418 25.0813 17.4938 25.3865 17.5697C25.7679 17.6455 25.9967 17.7214 26.3018 17.8731C26.5307 17.9489 26.7595 18.1006 26.9121 18.1765C27.0646 18.3282 27.2172 18.404 27.2935 18.4799C27.3698 18.5557 27.446 18.7075 27.5223 18.7833C27.5986 18.935 27.5986 19.0109 27.5986 19.1626C27.5986 19.3901 27.5223 19.6177 27.3698 19.8452C27.2172 20.0728 26.9884 20.3003 26.8358 20.4521C26.6832 20.3003 26.5307 20.2245 26.3781 20.0728C26.2255 19.9211 25.9967 19.8452 25.8441 19.6935C25.6153 19.6177 25.3865 19.466 25.1576 19.466C24.9288 19.3901 24.6237 19.3901 24.3185 19.3901C23.7846 19.3901 23.3269 19.466 22.9455 19.6935C22.5641 19.9211 22.259 20.2245 22.0301 20.6038C21.8013 20.983 21.6487 21.3623 21.5724 21.8174C21.4962 22.2725 21.4199 22.7276 21.4199 23.2586C21.4199 23.7895 21.4962 24.2447 21.5724 24.6998C21.6487 25.1549 21.8776 25.61 22.1064 25.9134C22.3352 26.2927 22.6404 26.5961 23.0218 26.7478C23.4032 26.9753 23.8609 27.0512 24.4711 27.0512C24.7762 27.0512 25.0813 26.9753 25.3102 26.8995C25.539 26.8236 25.7679 26.7478 25.9967 26.5961C26.2255 26.5202 26.3781 26.3685 26.5307 26.2168C26.6832 26.0651 26.8358 25.9893 26.9121 25.9134C26.9884 25.9893 27.0646 26.0651 27.1409 26.2168C27.2172 26.2927 27.2935 26.4444 27.3698 26.5961C27.446 26.7478 27.5223 26.8236 27.5986 26.9753C27.6749 27.127 27.6749 27.2029 27.6749 27.2787C27.6749 27.4304 27.6749 27.5063 27.5986 27.658C27.446 27.8856 27.3698 28.0373 27.2172 28.1131Z" fill="url(#paint5_linear_265_7049)"/>
<path d="M38.5069 23.2589C38.5069 24.0174 38.4306 24.7759 38.2018 25.4586C38.0492 26.1413 37.7441 26.7481 37.2864 27.2791C36.905 27.81 36.3711 28.1893 35.7608 28.4927C35.1506 28.7961 34.3878 28.9478 33.4724 28.9478C32.557 28.9478 31.7942 28.7961 31.184 28.4927C30.5737 28.1893 30.0398 27.7342 29.6584 27.2032C29.277 26.6722 28.9718 26.0654 28.8193 25.3828C28.6667 24.7001 28.5142 23.9416 28.5142 23.183C28.5142 22.4245 28.5904 21.666 28.8193 20.9833C29.0481 20.3007 29.3532 19.6939 29.7347 19.1629C30.1161 18.6319 30.65 18.2527 31.3365 17.9493C31.9468 17.6458 32.7096 17.4941 33.625 17.4941C34.464 17.4941 35.2269 17.6458 35.8371 17.9493C36.4473 18.2527 36.9813 18.6319 37.3627 19.1629C37.7441 19.6939 38.0492 20.3007 38.2018 20.9833C38.4306 21.7419 38.5069 22.4245 38.5069 23.2589ZM36.2185 23.2589C36.2185 22.7279 36.1422 22.2728 36.0659 21.7419C35.9897 21.2867 35.8371 20.8316 35.6083 20.5282C35.3794 20.149 35.1506 19.9214 34.7692 19.6939C34.464 19.4663 34.0064 19.3904 33.5487 19.3904C33.0147 19.3904 32.6333 19.4663 32.2519 19.6939C31.8705 19.9214 31.6417 20.149 31.4128 20.5282C31.184 20.9075 31.0314 21.2867 30.9551 21.7419C30.8789 22.197 30.8026 22.7279 30.8026 23.2589C30.8026 23.7899 30.8789 24.245 30.9551 24.7759C31.0314 25.2311 31.184 25.6862 31.4128 26.0654C31.6417 26.4447 31.8705 26.7481 32.2519 26.9757C32.557 27.2032 33.0147 27.2791 33.4724 27.2791C33.9301 27.2791 34.3878 27.2032 34.6929 26.9757C34.998 26.7481 35.3031 26.4447 35.532 26.0654C35.7608 25.6862 35.9134 25.3069 35.9897 24.7759C36.1422 24.3208 36.2185 23.7899 36.2185 23.2589Z" fill="url(#paint6_linear_265_7049)"/>
<path d="M42.0921 17.7217C42.4735 17.7217 42.7023 17.7975 42.9312 17.9492C43.16 18.1009 43.3126 18.3285 43.3888 18.6319L45.9061 24.4725L48.4234 18.7078C48.5759 18.3285 48.8048 18.1009 49.0336 17.9492C49.2624 17.7975 49.4913 17.7217 49.7964 17.7217C50.0253 17.7217 50.2541 17.7217 50.4829 17.7975C50.7118 17.7975 50.8643 17.8734 50.9406 17.8734L51.7034 28.7202H49.5676L49.0336 21.5143L46.8215 26.4447H44.9145L42.7786 21.666L42.3209 28.7202H40.1851L41.0241 17.8734C41.1004 17.8734 41.3293 17.7975 41.4818 17.7975C41.6344 17.7975 41.8632 17.7217 42.0921 17.7217Z" fill="url(#paint7_linear_265_7049)"/>
<path d="M55.2887 17.7217C55.6701 17.7217 55.899 17.7975 56.1278 17.9492C56.3567 18.1009 56.5092 18.3285 56.5855 18.6319L59.1028 24.4725L61.62 18.7078C61.7726 18.3285 62.0014 18.1009 62.2303 17.9492C62.4591 17.7975 62.688 17.7217 62.9931 17.7217C63.2219 17.7217 63.4508 17.7217 63.6796 17.7975C63.9084 17.7975 64.061 17.8734 64.1373 17.8734L64.9001 28.7202H62.7642L62.2303 21.5143L60.0181 26.4447H58.1874L56.0515 21.666L55.5939 28.7202H53.458L54.2971 17.8734C54.3734 17.8734 54.6022 17.7975 54.7548 17.7975C54.8311 17.7975 55.0599 17.7217 55.2887 17.7217Z" fill="url(#paint8_linear_265_7049)"/>
<path d="M14.1678 11.3734C10.6608 10.0176 6.5458 10.7407 3.74014 13.4522C-0.0474948 17.1128 -0.0474948 23.0331 3.74014 26.6937C6.5458 29.4053 10.6608 30.1284 14.1678 28.7726V24.4341C13.4664 24.7504 12.7182 24.9312 11.9233 24.9312C9.11765 24.9312 6.87312 22.7619 6.87312 20.0504C6.87312 17.3388 9.11765 15.1696 11.9233 15.1696C12.7182 15.1696 13.5132 15.3503 14.1678 15.6667V11.3734Z" fill="#FA0056"/>
<path d="M12.3746 6.56984C13.7248 5.21629 13.7248 2.97593 12.3746 1.57571C11.0244 0.22216 8.78968 0.22216 7.39295 1.57571C5.99623 2.92926 6.04278 5.16962 7.39295 6.56984C8.78968 7.92339 11.0244 7.92339 12.3746 6.56984Z" fill="#FA0056"/>
<defs>
<linearGradient id="paint0_linear_265_7049" x1="19.0552" y1="2.71154" x2="24.0564" y2="3.77255" gradientUnits="userSpaceOnUse">
<stop stop-color="white"/>
<stop offset="1" stop-color="#F2E9EC"/>
</linearGradient>
<linearGradient id="paint1_linear_265_7049" x1="23.4033" y1="2.64783" x2="35.7262" y2="12.7135" gradientUnits="userSpaceOnUse">
<stop stop-color="white"/>
<stop offset="1" stop-color="#F2E9EC"/>
</linearGradient>
<linearGradient id="paint2_linear_265_7049" x1="33.2437" y1="2.63952" x2="45.5314" y2="13.3516" gradientUnits="userSpaceOnUse">
<stop stop-color="white"/>
<stop offset="1" stop-color="#F2E9EC"/>
</linearGradient>
<linearGradient id="paint3_linear_265_7049" x1="43.6938" y1="2.64783" x2="55.3004" y2="10.382" gradientUnits="userSpaceOnUse">
<stop stop-color="white"/>
<stop offset="1" stop-color="#F2E9EC"/>
</linearGradient>
<linearGradient id="paint4_linear_265_7049" x1="52.1606" y1="2.57997" x2="64.4273" y2="11.8574" gradientUnits="userSpaceOnUse">
<stop stop-color="white"/>
<stop offset="1" stop-color="#F2E9EC"/>
</linearGradient>
<linearGradient id="paint5_linear_265_7049" x1="19.0552" y1="18.0497" x2="31.7448" y2="27.9185" gradientUnits="userSpaceOnUse">
<stop stop-color="white"/>
<stop offset="1" stop-color="#F2E9EC"/>
</linearGradient>
<linearGradient id="paint6_linear_265_7049" x1="28.5142" y1="18.1217" x2="41.4598" y2="29.8707" gradientUnits="userSpaceOnUse">
<stop stop-color="white"/>
<stop offset="1" stop-color="#F2E9EC"/>
</linearGradient>
<linearGradient id="paint7_linear_265_7049" x1="40.1851" y1="18.3243" x2="52.6292" y2="31.8811" gradientUnits="userSpaceOnUse">
<stop stop-color="white"/>
<stop offset="1" stop-color="#F2E9EC"/>
</linearGradient>
<linearGradient id="paint8_linear_265_7049" x1="53.458" y1="18.3243" x2="65.909" y2="31.7986" gradientUnits="userSpaceOnUse">
<stop stop-color="white"/>
<stop offset="1" stop-color="#F2E9EC"/>
</linearGradient>
</defs>
</svg>
