<svg width="500" height="741" viewBox="0 0 500 741" fill="none" xmlns="http://www.w3.org/2000/svg">
<g clip-path="url(#clip0_521_10769)">
<rect width="500" height="773" fill="#8C0B61"/>
<circle cx="147.528" cy="230.429" r="325.472" transform="rotate(-90 147.528 230.429)" fill="url(#paint0_angular_521_10769)"/>
<circle cx="193.687" cy="619.286" r="241.757" transform="rotate(-90 193.687 619.286)" fill="url(#paint1_angular_521_10769)"/>
<g clip-path="url(#clip1_521_10769)">
<path d="M191.803 197.162H182.925V153.63H184.149C184.456 153.63 184.762 153.63 185.068 153.63C185.374 153.63 185.68 153.63 185.986 153.63C186.598 153.63 187.211 153.63 187.823 153.934C188.435 153.934 189.048 154.239 189.66 154.543C190.272 154.848 190.884 155.456 191.191 156.065C191.497 156.37 191.803 157.283 191.803 158.196V197.162Z" fill="white"/>
<path d="M226.704 183.767V153.63H227.622C227.929 153.63 228.235 153.63 228.541 153.63C228.847 153.63 229.153 153.63 229.459 153.63C230.072 153.63 230.684 153.63 231.296 153.934C231.908 153.934 232.521 154.238 233.133 154.543C233.745 154.847 234.051 155.456 234.664 156.065C234.97 156.674 235.276 157.587 235.276 158.805V197.771H227.622L208.948 168.546V197.466H200.376V153.63C200.682 153.325 201.294 153.325 201.907 153.325C202.519 153.325 203.437 153.325 204.05 153.325C205.58 153.325 206.499 153.63 207.417 153.934C208.336 154.543 208.948 155.152 209.56 156.065L226.704 183.767Z" fill="white"/>
<path d="M253.951 160.631H240.174C240.174 160.022 240.174 159.718 239.868 159.414C239.868 159.109 239.868 158.5 239.868 158.196C239.868 156.978 240.174 156.065 241.093 154.847C242.011 153.934 243.542 153.325 245.379 153.325H276.299C276.299 154.238 276.605 155.152 276.605 156.065C276.605 157.283 276.299 158.196 275.38 159.109C274.462 160.022 273.237 160.631 271.094 160.631H262.829V197.162H253.644V160.631H253.951Z" fill="white"/>
<path d="M304.768 190.464C306.911 190.464 308.442 191.073 309.054 191.987C309.973 192.9 310.279 194.118 310.279 195.335C310.279 195.944 310.279 196.248 310.279 196.553C310.279 196.857 310.279 197.162 310.279 197.771H281.808V153.325H309.36C309.36 153.934 309.36 154.238 309.666 154.543C309.666 154.847 309.666 155.152 309.666 155.761C309.666 157.283 309.36 158.5 308.442 159.109C307.523 159.718 306.299 160.327 304.156 160.327H291.298V170.982H305.38V177.983H291.298V190.16H304.768V190.464Z" fill="white"/>
<path d="M346.098 166.111C346.098 167.937 345.792 169.459 345.486 170.981C344.873 172.199 344.261 173.417 343.649 174.634C342.73 175.548 341.812 176.461 340.894 177.374C339.975 177.983 338.751 178.592 337.832 178.896L348.547 196.857C347.629 197.161 346.71 197.466 345.792 197.77C344.873 198.075 343.955 198.075 343.037 198.075C341.506 198.075 339.975 197.77 339.057 197.161C337.832 196.553 336.914 195.335 335.995 193.813L328.648 180.723H324.974V197.161H315.79V153.629C317.933 153.325 320.076 153.325 322.219 153.325C324.362 153.325 326.199 153.021 327.73 153.021C334.158 153.021 338.751 154.238 341.812 156.369C344.567 158.5 346.098 161.544 346.098 166.111ZM336.608 166.719C336.608 163.98 335.995 162.153 334.465 160.935C332.934 160.022 331.097 159.413 328.648 159.413C327.73 159.413 327.117 159.413 326.505 159.413C325.893 159.413 325.587 159.413 324.974 159.413V174.634H328.036C330.791 174.634 332.628 174.026 334.158 172.808C335.995 171.59 336.608 169.459 336.608 166.719Z" fill="white"/>
<path d="M215.682 257.959C215.376 258.264 215.07 258.568 214.457 258.873C213.845 259.177 212.927 259.786 212.008 260.09C211.09 260.395 209.865 260.699 208.334 261.004C206.804 261.308 205.273 261.308 203.436 261.308C199.763 261.308 196.701 260.699 194.252 259.482C191.803 258.264 189.66 256.742 187.823 254.611C185.986 252.48 184.762 250.044 184.149 247.305C183.231 244.565 182.925 241.521 182.925 238.172C182.925 234.823 183.231 231.779 184.149 229.039C185.068 226.3 186.292 223.864 188.129 221.733C189.966 219.602 192.109 218.08 194.558 216.863C197.007 215.645 200.069 215.036 203.742 215.036C205.579 215.036 207.11 215.341 208.334 215.645C209.865 215.949 210.784 216.254 212.008 216.863C212.927 217.167 213.845 217.776 214.457 218.08C215.07 218.689 215.682 218.994 215.988 219.298C216.294 219.602 216.6 220.211 216.906 220.516C217.212 221.125 217.213 221.429 217.213 222.038C217.213 222.951 216.906 223.864 216.294 224.778C215.682 225.691 214.763 226.604 214.151 227.213C213.539 226.604 212.927 226.3 212.314 225.691C211.702 225.082 210.784 224.778 210.171 224.169C209.253 223.864 208.334 223.255 207.416 223.255C206.498 222.951 205.273 222.951 204.048 222.951C201.905 222.951 200.069 223.255 198.538 224.169C197.007 225.082 195.783 226.3 194.864 227.822C193.946 229.344 193.334 230.866 193.027 232.693C192.721 234.519 192.415 236.346 192.415 238.477C192.415 240.607 192.721 242.434 193.027 244.261C193.334 246.087 194.252 247.914 195.17 249.131C196.089 250.653 197.313 251.871 198.844 252.48C200.375 253.393 202.212 253.698 204.661 253.698C205.885 253.698 207.11 253.393 208.028 253.089C208.947 252.784 209.865 252.48 210.784 251.871C211.702 251.567 212.314 250.958 212.927 250.349C213.539 249.74 214.151 249.436 214.457 249.131C214.763 249.436 215.07 249.74 215.376 250.349C215.682 250.653 215.988 251.262 216.294 251.871C216.6 252.48 216.906 252.784 217.213 253.393C217.519 254.002 217.519 254.306 217.519 254.611C217.519 255.22 217.519 255.524 217.213 256.133C216.6 257.046 216.294 257.655 215.682 257.959Z" fill="white"/>
<path d="M260.991 238.477C260.991 241.521 260.685 244.565 259.767 247.305C259.154 250.045 257.93 252.48 256.093 254.611C254.562 256.742 252.419 258.264 249.97 259.482C247.521 260.699 244.46 261.308 240.786 261.308C237.112 261.308 234.051 260.699 231.602 259.482C229.153 258.264 227.01 256.438 225.479 254.307C223.948 252.176 222.724 249.74 222.111 247.001C221.499 244.261 220.887 241.217 220.887 238.172C220.887 235.128 221.193 232.084 222.111 229.344C223.03 226.604 224.254 224.169 225.785 222.038C227.316 219.907 229.459 218.385 232.214 217.167C234.663 215.95 237.724 215.341 241.398 215.341C244.766 215.341 247.827 215.95 250.276 217.167C252.725 218.385 254.868 219.907 256.399 222.038C257.93 224.169 259.154 226.604 259.767 229.344C260.685 232.388 260.991 235.128 260.991 238.477ZM251.807 238.477C251.807 236.346 251.501 234.519 251.195 232.388C250.888 230.562 250.276 228.735 249.358 227.518C248.439 225.996 247.521 225.082 245.99 224.169C244.766 223.256 242.929 222.951 241.092 222.951C238.949 222.951 237.418 223.256 235.888 224.169C234.357 225.082 233.438 225.996 232.52 227.518C231.602 229.04 230.989 230.562 230.683 232.388C230.377 234.215 230.071 236.346 230.071 238.477C230.071 240.608 230.377 242.434 230.683 244.565C230.989 246.392 231.602 248.218 232.52 249.74C233.438 251.262 234.357 252.48 235.888 253.393C237.112 254.307 238.949 254.611 240.786 254.611C242.623 254.611 244.46 254.307 245.684 253.393C246.909 252.48 248.133 251.262 249.052 249.74C249.97 248.218 250.582 246.696 250.888 244.565C251.501 242.739 251.807 240.608 251.807 238.477Z" fill="white"/>
<path d="M275.379 216.255C276.91 216.255 277.828 216.559 278.747 217.168C279.665 217.777 280.277 218.69 280.583 219.908L290.686 243.348L300.789 220.212C301.401 218.69 302.319 217.777 303.238 217.168C304.156 216.559 305.075 216.255 306.299 216.255C307.218 216.255 308.136 216.255 309.055 216.559C309.973 216.559 310.585 216.864 310.891 216.864L313.953 260.396H305.381L303.238 231.476L294.36 251.263H286.706L278.134 232.085L276.297 260.396H267.726L271.093 216.864C271.399 216.864 272.318 216.559 272.93 216.559C273.542 216.559 274.461 216.255 275.379 216.255Z" fill="white"/>
<path d="M328.341 216.255C329.871 216.255 330.79 216.559 331.708 217.168C332.626 217.777 333.239 218.69 333.545 219.908L343.648 243.348L353.75 220.212C354.362 218.69 355.281 217.777 356.199 217.168C357.118 216.559 358.036 216.255 359.261 216.255C360.179 216.255 361.098 216.255 362.016 216.559C362.934 216.559 363.547 216.864 363.853 216.864L366.914 260.396H358.342L356.199 231.476L347.321 251.263H339.974L331.402 232.085L329.565 260.396H320.993L324.361 216.864C324.667 216.864 325.585 216.559 326.198 216.559C326.504 216.559 327.422 216.255 328.341 216.255Z" fill="white"/>
<path d="M163.34 153.817C142.633 145.548 118.337 149.958 101.772 166.496C79.4092 188.822 79.4092 224.929 101.772 247.255C118.337 263.793 142.633 268.203 163.34 259.934V233.474C159.198 235.403 154.781 236.506 150.087 236.506C133.522 236.506 120.27 223.276 120.27 206.738C120.27 190.2 133.522 176.97 150.087 176.97C154.781 176.97 159.474 178.072 163.34 180.002V153.817Z" fill="white"/>
<path d="M153.958 127.301C162.115 119.125 162.115 105.591 153.958 97.1325C145.802 88.9558 132.302 88.9558 123.865 97.1325C115.427 105.309 115.708 118.843 123.865 127.301C132.302 135.478 145.802 135.478 153.958 127.301Z" fill="white"/>
<path d="M184.059 107V95.5102H188.457C189.288 95.5102 189.978 95.6411 190.528 95.9029C191.081 96.161 191.495 96.5144 191.768 96.9632C192.044 97.4121 192.183 97.9207 192.183 98.4892C192.183 98.9568 192.093 99.357 191.913 99.6898C191.734 100.019 191.493 100.286 191.19 100.492C190.887 100.698 190.548 100.846 190.174 100.935V101.048C190.582 101.07 190.973 101.195 191.347 101.423C191.725 101.648 192.033 101.966 192.272 102.377C192.512 102.789 192.632 103.286 192.632 103.869C192.632 104.464 192.488 104.999 192.2 105.474C191.912 105.945 191.478 106.317 190.898 106.59C190.318 106.863 189.589 107 188.71 107H184.059ZM186.14 105.261H188.379C189.134 105.261 189.679 105.117 190.012 104.829C190.348 104.537 190.516 104.163 190.516 103.707C190.516 103.366 190.432 103.06 190.264 102.787C190.096 102.51 189.856 102.293 189.546 102.136C189.235 101.975 188.865 101.895 188.435 101.895H186.14V105.261ZM186.14 100.397H188.199C188.558 100.397 188.882 100.331 189.17 100.2C189.458 100.066 189.684 99.8768 189.849 99.6337C190.017 99.3869 190.101 99.0951 190.101 98.7585C190.101 98.3134 189.944 97.9469 189.63 97.6589C189.32 97.3709 188.858 97.2269 188.244 97.2269H186.14V100.397ZM204.277 99.3869H202.179C202.119 99.0428 202.009 98.738 201.848 98.4724C201.687 98.2031 201.487 97.975 201.247 97.788C201.008 97.6009 200.735 97.4607 200.428 97.3672C200.125 97.2699 199.798 97.2213 199.447 97.2213C198.822 97.2213 198.268 97.3784 197.786 97.6926C197.303 98.003 196.926 98.4593 196.653 99.0615C196.38 99.6599 196.243 100.391 196.243 101.255C196.243 102.134 196.38 102.875 196.653 103.477C196.929 104.075 197.307 104.528 197.786 104.834C198.268 105.137 198.82 105.289 199.441 105.289C199.785 105.289 200.107 105.244 200.406 105.154C200.709 105.061 200.98 104.924 201.219 104.745C201.463 104.565 201.666 104.344 201.831 104.083C201.999 103.821 202.115 103.522 202.179 103.185L204.277 103.196C204.198 103.742 204.028 104.255 203.766 104.733C203.508 105.212 203.17 105.635 202.751 106.001C202.332 106.364 201.842 106.648 201.281 106.854C200.72 107.056 200.097 107.157 199.413 107.157C198.403 107.157 197.502 106.923 196.709 106.456C195.916 105.988 195.291 105.313 194.835 104.431C194.379 103.548 194.151 102.489 194.151 101.255C194.151 100.017 194.381 98.9586 194.841 98.0797C195.301 97.197 195.927 96.5219 196.72 96.0544C197.513 95.5869 198.411 95.3531 199.413 95.3531C200.053 95.3531 200.647 95.4429 201.197 95.6224C201.747 95.8019 202.237 96.0656 202.667 96.4134C203.097 96.7575 203.45 97.1802 203.727 97.6814C204.008 98.1788 204.191 98.7473 204.277 99.3869ZM206.183 107V95.5102H213.656V97.255H208.265V100.374H213.269V102.119H208.265V105.255H213.701V107H206.183ZM229.965 101.255C229.965 102.493 229.733 103.553 229.269 104.436C228.809 105.315 228.181 105.988 227.384 106.456C226.591 106.923 225.692 107.157 224.686 107.157C223.68 107.157 222.778 106.923 221.982 106.456C221.189 105.985 220.56 105.309 220.097 104.431C219.637 103.548 219.406 102.489 219.406 101.255C219.406 100.017 219.637 98.9586 220.097 98.0797C220.56 97.197 221.189 96.5219 221.982 96.0544C222.778 95.5869 223.68 95.3531 224.686 95.3531C225.692 95.3531 226.591 95.5869 227.384 96.0544C228.181 96.5219 228.809 97.197 229.269 98.0797C229.733 98.9586 229.965 100.017 229.965 101.255ZM227.872 101.255C227.872 100.384 227.736 99.6487 227.463 99.0503C227.194 98.4481 226.82 97.9937 226.341 97.687C225.862 97.3765 225.31 97.2213 224.686 97.2213C224.061 97.2213 223.509 97.3765 223.031 97.687C222.552 97.9937 222.176 98.4481 221.903 99.0503C221.634 99.6487 221.499 100.384 221.499 101.255C221.499 102.127 221.634 102.863 221.903 103.466C222.176 104.064 222.552 104.518 223.031 104.829C223.509 105.136 224.061 105.289 224.686 105.289C225.31 105.289 225.862 105.136 226.341 104.829C226.82 104.518 227.194 104.064 227.463 103.466C227.736 102.863 227.872 102.127 227.872 101.255ZM242.735 107L238.954 101.979H237.933V107H235.852V95.5102H237.933V100.234H238.455L242.539 95.5102H245.103L240.564 100.75L245.299 107H242.735ZM256.363 101.255C256.363 102.493 256.131 103.553 255.667 104.436C255.207 105.315 254.579 105.988 253.782 106.456C252.989 106.923 252.09 107.157 251.083 107.157C250.077 107.157 249.176 106.923 248.379 106.456C247.586 105.985 246.958 105.309 246.494 104.431C246.034 103.548 245.804 102.489 245.804 101.255C245.804 100.017 246.034 98.9586 246.494 98.0797C246.958 97.197 247.586 96.5219 248.379 96.0544C249.176 95.5869 250.077 95.3531 251.083 95.3531C252.09 95.3531 252.989 95.5869 253.782 96.0544C254.579 96.5219 255.207 97.197 255.667 98.0797C256.131 98.9586 256.363 100.017 256.363 101.255ZM254.27 101.255C254.27 100.384 254.134 99.6487 253.861 99.0503C253.591 98.4481 253.217 97.9937 252.738 97.687C252.26 97.3765 251.708 97.2213 251.083 97.2213C250.459 97.2213 249.907 97.3765 249.428 97.687C248.95 97.9937 248.574 98.4481 248.301 99.0503C248.031 99.6487 247.897 100.384 247.897 101.255C247.897 102.127 248.031 102.863 248.301 103.466C248.574 104.064 248.95 104.518 249.428 104.829C249.907 105.136 250.459 105.289 251.083 105.289C251.708 105.289 252.26 105.136 252.738 104.829C253.217 104.518 253.591 104.064 253.861 103.466C254.134 102.863 254.27 102.127 254.27 101.255ZM258.33 107V95.5102H262.639C263.522 95.5102 264.262 95.6748 264.861 96.0039C265.463 96.333 265.917 96.7856 266.224 97.3616C266.535 97.9338 266.69 98.5846 266.69 99.3139C266.69 100.051 266.535 100.705 266.224 101.278C265.914 101.85 265.456 102.3 264.85 102.63C264.244 102.955 263.498 103.118 262.611 103.118H259.755V101.407H262.331C262.847 101.407 263.269 101.317 263.599 101.137C263.928 100.958 264.171 100.711 264.328 100.397C264.489 100.083 264.569 99.7216 264.569 99.3139C264.569 98.9063 264.489 98.5472 264.328 98.2368C264.171 97.9263 263.926 97.6851 263.593 97.513C263.264 97.3373 262.839 97.2494 262.319 97.2494H260.412V107H258.33ZM277.872 95.5102V107H275.808V97.2381H270.781V107H268.716V95.5102H277.872ZM290.629 101.255C290.629 102.493 290.397 103.553 289.933 104.436C289.473 105.315 288.845 105.988 288.048 106.456C287.255 106.923 286.356 107.157 285.349 107.157C284.343 107.157 283.442 106.923 282.645 106.456C281.852 105.985 281.224 105.309 280.76 104.431C280.3 103.548 280.07 102.489 280.07 101.255C280.07 100.017 280.3 98.9586 280.76 98.0797C281.224 97.197 281.852 96.5219 282.645 96.0544C283.442 95.5869 284.343 95.3531 285.349 95.3531C286.356 95.3531 287.255 95.5869 288.048 96.0544C288.845 96.5219 289.473 97.197 289.933 98.0797C290.397 98.9586 290.629 100.017 290.629 101.255ZM288.536 101.255C288.536 100.384 288.4 99.6487 288.127 99.0503C287.857 98.4481 287.483 97.9937 287.005 97.687C286.526 97.3765 285.974 97.2213 285.349 97.2213C284.725 97.2213 284.173 97.3765 283.694 97.687C283.216 97.9937 282.84 98.4481 282.567 99.0503C282.298 99.6487 282.163 100.384 282.163 101.255C282.163 102.127 282.298 102.863 282.567 103.466C282.84 104.064 283.216 104.518 283.694 104.829C284.173 105.136 284.725 105.289 285.349 105.289C285.974 105.289 286.526 105.136 287.005 104.829C287.483 104.518 287.857 104.064 288.127 103.466C288.4 102.863 288.536 102.127 288.536 101.255ZM292.597 107V95.5102H296.905C297.788 95.5102 298.528 95.6748 299.127 96.0039C299.729 96.333 300.183 96.7856 300.49 97.3616C300.801 97.9338 300.956 98.5846 300.956 99.3139C300.956 100.051 300.801 100.705 300.49 101.278C300.18 101.85 299.722 102.3 299.116 102.63C298.51 102.955 297.764 103.118 296.877 103.118H294.022V101.407H296.597C297.113 101.407 297.535 101.317 297.865 101.137C298.194 100.958 298.437 100.711 298.594 100.397C298.755 100.083 298.835 99.7216 298.835 99.3139C298.835 98.9063 298.755 98.5472 298.594 98.2368C298.437 97.9263 298.192 97.6851 297.859 97.513C297.53 97.3373 297.105 97.2494 296.585 97.2494H294.678V107H292.597ZM302.959 107H300.737L304.782 95.5102H307.352L311.402 107H309.18L306.112 97.8665H306.022L302.959 107ZM303.032 102.495H309.091V104.167H303.032V102.495ZM311.022 97.255V95.5102H320.189V97.255H316.638V107H314.573V97.255H311.022ZM321.956 95.5102H324.021V103.342H324.128L329.53 95.5102H331.399V107H329.317V99.1737H329.222L323.802 107H321.956V95.5102ZM333.666 107V95.5102H338.065C338.895 95.5102 339.585 95.6411 340.135 95.9029C340.689 96.161 341.102 96.5144 341.375 96.9632C341.652 97.4121 341.79 97.9207 341.79 98.4892C341.79 98.9568 341.7 99.357 341.521 99.6898C341.341 100.019 341.1 100.286 340.797 100.492C340.494 100.698 340.156 100.846 339.782 100.935V101.048C340.189 101.07 340.58 101.195 340.954 101.423C341.332 101.648 341.641 101.966 341.88 102.377C342.119 102.789 342.239 103.286 342.239 103.869C342.239 104.464 342.095 104.999 341.807 105.474C341.519 105.945 341.085 106.317 340.505 106.59C339.926 106.863 339.196 107 338.317 107H333.666ZM335.748 105.261H337.986C338.742 105.261 339.286 105.117 339.619 104.829C339.956 104.537 340.124 104.163 340.124 103.707C340.124 103.366 340.04 103.06 339.871 102.787C339.703 102.51 339.464 102.293 339.153 102.136C338.843 101.975 338.473 101.895 338.042 101.895H335.748V105.261ZM335.748 100.397H337.807C338.166 100.397 338.489 100.331 338.777 100.2C339.065 100.066 339.292 99.8768 339.456 99.6337C339.625 99.3869 339.709 99.0951 339.709 98.7585C339.709 98.3134 339.552 97.9469 339.237 97.6589C338.927 97.3709 338.465 97.2269 337.852 97.2269H335.748V100.397ZM344.05 107V95.5102H346.131V100.374H351.455V95.5102H353.542V107H351.455V102.119H346.131V107H344.05ZM357.214 99.9479H360.131C361.01 99.9479 361.764 100.092 362.392 100.38C363.024 100.664 363.509 101.066 363.845 101.586C364.182 102.106 364.35 102.718 364.35 103.421C364.35 104.128 364.182 104.75 363.845 105.289C363.509 105.824 363.024 106.243 362.392 106.546C361.764 106.849 361.01 107 360.131 107H355.828V95.5102H357.915V105.294H360.131C360.595 105.294 360.988 105.207 361.31 105.031C361.631 104.855 361.874 104.623 362.039 104.335C362.207 104.047 362.291 103.735 362.291 103.398C362.291 102.912 362.104 102.499 361.73 102.158C361.36 101.814 360.827 101.642 360.131 101.642H357.214V99.9479ZM367.43 95.5102V107H365.343V95.5102H367.43ZM371.431 95.5102L373.961 99.7179H374.051L376.592 95.5102H378.965L375.425 101.255L379.021 107H376.609L374.051 102.82H373.961L371.402 107H369.001L372.631 101.255L369.046 95.5102H371.431ZM190.943 128L187.162 122.979H186.14V128H184.059V116.51H186.14V121.234H186.662L190.746 116.51H193.31L188.772 121.75L193.507 128H190.943ZM204.57 122.255C204.57 123.493 204.338 124.553 203.874 125.436C203.414 126.315 202.786 126.988 201.989 127.456C201.197 127.923 200.297 128.157 199.291 128.157C198.285 128.157 197.383 127.923 196.587 127.456C195.794 126.985 195.165 126.309 194.702 125.431C194.242 124.548 194.012 123.489 194.012 122.255C194.012 121.017 194.242 119.959 194.702 119.08C195.165 118.197 195.794 117.522 196.587 117.054C197.383 116.587 198.285 116.353 199.291 116.353C200.297 116.353 201.197 116.587 201.989 117.054C202.786 117.522 203.414 118.197 203.874 119.08C204.338 119.959 204.57 121.017 204.57 122.255ZM202.478 122.255C202.478 121.384 202.341 120.649 202.068 120.05C201.799 119.448 201.425 118.994 200.946 118.687C200.467 118.377 199.916 118.221 199.291 118.221C198.666 118.221 198.115 118.377 197.636 118.687C197.157 118.994 196.781 119.448 196.508 120.05C196.239 120.649 196.104 121.384 196.104 122.255C196.104 123.127 196.239 123.863 196.508 124.466C196.781 125.064 197.157 125.518 197.636 125.829C198.115 126.136 198.666 126.289 199.291 126.289C199.916 126.289 200.467 126.136 200.946 125.829C201.425 125.518 201.799 125.064 202.068 124.466C202.341 123.863 202.478 123.127 202.478 122.255ZM206.538 116.51H209.085L212.496 124.836H212.631L216.042 116.51H218.589V128H216.592V120.106H216.485L213.31 127.966H211.817L208.642 120.09H208.535V128H206.538V116.51ZM220.855 116.51H223.402L226.813 124.836H226.948L230.359 116.51H232.906V128H230.909V120.106H230.802L227.627 127.966H226.135L222.959 120.09H222.853V128H220.855V116.51ZM236.199 128.157V126.407H236.856C237.151 126.407 237.394 126.364 237.585 126.278C237.776 126.192 237.929 126.068 238.045 125.907C238.165 125.747 238.264 125.56 238.343 125.346L238.494 124.959L234.387 116.51H236.564L239.425 122.659L241.899 116.51H244.043L240.082 125.879C239.898 126.283 239.687 126.659 239.448 127.007C239.208 127.351 238.896 127.63 238.511 127.843C238.129 128.052 237.632 128.157 237.019 128.157H236.199ZM245.525 128V116.51H247.606V121.374H252.931V116.51H255.018V128H252.931V123.119H247.606V128H245.525ZM257.281 116.51H259.346V124.342H259.453L264.855 116.51H266.723V128H264.642V120.174H264.547L259.127 128H257.281V116.51ZM275.875 128L272.094 122.979H271.073V128H268.991V116.51H271.073V121.234H271.595L275.679 116.51H278.243L273.704 121.75L278.439 128H275.875ZM281.328 128H279.107L283.152 116.51H285.721L289.772 128H287.55L284.481 118.866H284.392L281.328 128ZM281.401 123.495H287.46V125.167H281.401V123.495ZM301.917 126.261L301.765 130.715H299.745V128H298.938V126.261H301.917ZM291.285 128V116.51H293.282V126.272H298.444V116.51H300.458V128H291.285ZM303.612 116.51H305.677V124.342H305.783L311.186 116.51H313.054V128H310.973V120.174H310.878L305.458 128H303.612V116.51ZM323.805 128H321.718V118.249H319.811C319.294 118.249 318.87 118.326 318.537 118.479C318.208 118.629 317.963 118.85 317.802 119.141C317.645 119.429 317.566 119.777 317.566 120.185C317.566 120.593 317.645 120.937 317.802 121.217C317.959 121.494 318.202 121.705 318.531 121.851C318.864 121.993 319.287 122.064 319.799 122.064H322.593V123.792H319.519C318.636 123.792 317.892 123.646 317.286 123.355C316.68 123.059 316.22 122.642 315.906 122.104C315.595 121.561 315.44 120.922 315.44 120.185C315.44 119.452 315.593 118.81 315.9 118.261C316.211 117.707 316.667 117.277 317.269 116.97C317.871 116.664 318.612 116.51 319.491 116.51H323.805V128ZM317.864 122.794H320.136L317.342 128H315.019L317.864 122.794ZM327.8 116.51L330.33 120.718H330.42L332.961 116.51H335.334L331.794 122.255L335.39 128H332.978L330.42 123.82H330.33L327.771 128H325.37L329 122.255L325.415 116.51H327.8Z" fill="white"/>
</g>
</g>
<defs>
<radialGradient id="paint0_angular_521_10769" cx="0" cy="0" r="1" gradientUnits="userSpaceOnUse" gradientTransform="translate(147.528 230.429) rotate(135) scale(435.467)">
<stop stop-color="#610865"/>
<stop offset="1" stop-color="#BD0C5A"/>
</radialGradient>
<radialGradient id="paint1_angular_521_10769" cx="0" cy="0" r="1" gradientUnits="userSpaceOnUse" gradientTransform="translate(193.687 619.286) scale(310.606)">
<stop stop-color="#610865"/>
<stop offset="1" stop-color="#BD0C5A"/>
</radialGradient>
<clipPath id="clip0_521_10769">
<rect width="500" height="741" fill="white"/>
</clipPath>
<clipPath id="clip1_521_10769">
<rect width="306.83" height="173" fill="white" transform="translate(85 91)"/>
</clipPath>
</defs>
</svg>
