<svg width="83" height="83" viewBox="0 0 83 83" fill="none" xmlns="http://www.w3.org/2000/svg">
<ellipse cx="44" cy="33.1729" rx="28" ry="28.5" fill="url(#paint0_linear_604_11242)"/>
<path d="M72 33.1729C72 29.4302 71.2758 25.7242 69.8686 22.2664C68.4615 18.8086 66.399 15.6668 63.799 13.0203C61.1989 10.3738 58.1123 8.27454 54.7151 6.84228C51.318 5.41003 47.677 4.67285 44 4.67285L44 33.1729H72Z" fill="url(#paint1_linear_604_11242)"/>
<path d="M16 73.6729V33.6729H44V45.6729C44 61.1368 31.464 73.6729 16 73.6729Z" fill="#FA0056"/>
<path d="M11 49.6729H20L16 33.6729L11 49.6729Z" fill="#FA0056"/>
<path d="M51 13.2775L57.25 19.6729L68 8.67285" stroke="#FA0056" stroke-width="5"/>
<defs>
<linearGradient id="paint0_linear_604_11242" x1="9.53847" y1="-15.0083" x2="89.8579" y2="-5.0835" gradientUnits="userSpaceOnUse">
<stop offset="0.0261371" stop-color="#AD073D" stop-opacity="0.81"/>
<stop offset="1" stop-color="#AD073D" stop-opacity="0"/>
</linearGradient>
<linearGradient id="paint1_linear_604_11242" x1="9.53847" y1="-15.0083" x2="89.8579" y2="-5.0835" gradientUnits="userSpaceOnUse">
<stop offset="0.0261371" stop-color="#AD073D" stop-opacity="0.81"/>
<stop offset="1" stop-color="#AD073D" stop-opacity="0"/>
</linearGradient>
</defs>
</svg>
