<svg width="83" height="83" viewBox="0 0 83 83" fill="none" xmlns="http://www.w3.org/2000/svg">
<ellipse cx="41.0002" cy="40.2885" rx="20" ry="37.5" transform="rotate(30 41.0002 40.2885)" fill="url(#paint0_linear_604_11262)"/>
<ellipse cx="20" cy="37.5" rx="20" ry="37.5" transform="matrix(-0.866025 0.5 0.5 0.866025 39.5703 -2.1875)" fill="url(#paint1_linear_604_11262)"/>
<ellipse cx="20" cy="37.5" rx="20" ry="37.5" transform="matrix(-4.37114e-08 1 1 4.37114e-08 3.5 20.2881)" fill="url(#paint2_linear_604_11262)"/>
<path d="M28 41.7881C28 34.6084 33.8203 28.7881 41 28.7881C48.1797 28.7881 54 34.6084 54 41.7881C54 48.9678 48.1797 54.7881 41 54.7881C33.8203 54.7881 28 48.9678 28 41.7881Z" fill="#FA0056"/>
<defs>
<linearGradient id="paint0_linear_604_11262" x1="16.3848" y1="-23.1077" x2="74.3709" y2="-19.2181" gradientUnits="userSpaceOnUse">
<stop offset="0.0261371" stop-color="#AD073D" stop-opacity="0.81"/>
<stop offset="1" stop-color="#AD073D" stop-opacity="0"/>
</linearGradient>
<linearGradient id="paint1_linear_604_11262" x1="-4.61538" y1="-25.8962" x2="53.3707" y2="-22.0066" gradientUnits="userSpaceOnUse">
<stop offset="0.0261371" stop-color="#AD073D" stop-opacity="0.81"/>
<stop offset="1" stop-color="#AD073D" stop-opacity="0"/>
</linearGradient>
<linearGradient id="paint2_linear_604_11262" x1="-4.61538" y1="-25.8962" x2="53.3707" y2="-22.0066" gradientUnits="userSpaceOnUse">
<stop offset="0.0261371" stop-color="#AD073D" stop-opacity="0.81"/>
<stop offset="1" stop-color="#AD073D" stop-opacity="0"/>
</linearGradient>
</defs>
</svg>
