<svg width="81" height="80" viewBox="0 0 81 80" fill="none" xmlns="http://www.w3.org/2000/svg">
<g id="style-icon 2">
<path id="Union" fill-rule="evenodd" clip-rule="evenodd" d="M40.2858 15.5254C48.8606 15.5254 55.8118 19.001 55.8118 23.2884V31.5366V32.0218H55.7854C55.3127 36.3513 48.554 39.7848 40.2858 39.7848C32.0176 39.7848 25.2589 36.3513 24.7862 32.0218H24.7598V31.5366V23.2884C24.7598 19.001 31.711 15.5254 40.2858 15.5254Z" fill="url(#paint0_linear_3129_21647)"/>
<rect id="Rectangle 30" width="36.967" height="36.967" transform="matrix(0.835391 0.549657 -0.835391 0.549657 40.2876 3.99805)" fill="url(#paint1_linear_3129_21647)"/>
<rect id="Rectangle 32" width="8.58131" height="8.10458" transform="matrix(-0.539245 0.842149 -0.559983 -0.828504 68.1553 31.3691)" fill="white"/>
<circle id="Ellipse 1" cx="40.2856" cy="52.4004" r="23.289" fill="url(#paint2_linear_3129_21647)"/>
<path id="Ellipse 2" d="M16.9966 52.4004C16.9966 49.342 17.599 46.3136 18.7694 43.4881C19.9398 40.6625 21.6552 38.0952 23.8178 35.9326C25.9804 33.77 28.5478 32.0545 31.3733 30.8841C34.1989 29.7138 37.2273 29.1114 40.2857 29.1114C43.344 29.1114 46.3724 29.7138 49.198 30.8841C52.0236 32.0545 54.5909 33.77 56.7535 35.9326C58.9161 38.0952 60.6316 40.6625 61.8019 43.4881C62.9723 46.3136 63.5747 49.342 63.5747 52.4004L40.2857 52.4004L16.9966 52.4004Z" fill="url(#paint3_linear_3129_21647)"/>
<g id="Vector 404" filter="url(#filter0_ii_3129_21647)">
<path d="M21 64.5C21 64.5 28 62.5 41.5 62.5C55 62.5 62 64.5 62 64.5" stroke="white" stroke-width="1.55792"/>
</g>
<g id="Vector 405" filter="url(#filter1_ii_3129_21647)">
<path d="M21 43C21 43 26.5 45 41.5 45C56.5 45 62 43 62 43" stroke="white" stroke-width="1.55792"/>
</g>
<g id="Vector 407" filter="url(#filter2_ii_3129_21647)">
<path d="M42.5 31C42.5 31 51.5 37.1707 51.5 54C51.5 70.8293 42.5 77 42.5 77" stroke="white" stroke-width="1.55792"/>
</g>
<g id="Vector 408" filter="url(#filter3_ii_3129_21647)">
<path d="M39.5 31C39.5 31 30.5 37.1707 30.5 54C30.5 70.8293 39.5 77 39.5 77" stroke="white" stroke-width="1.55792"/>
</g>
</g>
<defs>
<filter id="filter0_ii_3129_21647" x="20.7866" y="61.7207" width="41.4268" height="6.64513" filterUnits="userSpaceOnUse" color-interpolation-filters="sRGB">
<feFlood flood-opacity="0" result="BackgroundImageFix"/>
<feBlend mode="normal" in="SourceGraphic" in2="BackgroundImageFix" result="shape"/>
<feColorMatrix in="SourceAlpha" type="matrix" values="0 0 0 0 0 0 0 0 0 0 0 0 0 0 0 0 0 0 127 0" result="hardAlpha"/>
<feOffset dy="3.11584"/>
<feGaussianBlur stdDeviation="1.55792"/>
<feComposite in2="hardAlpha" operator="arithmetic" k2="-1" k3="1"/>
<feColorMatrix type="matrix" values="0 0 0 0 1 0 0 0 0 1 0 0 0 0 1 0 0 0 0.15 0"/>
<feBlend mode="normal" in2="shape" result="effect1_innerShadow_3129_21647"/>
<feColorMatrix in="SourceAlpha" type="matrix" values="0 0 0 0 0 0 0 0 0 0 0 0 0 0 0 0 0 0 127 0" result="hardAlpha"/>
<feOffset/>
<feGaussianBlur stdDeviation="23.3688"/>
<feComposite in2="hardAlpha" operator="arithmetic" k2="-1" k3="1"/>
<feColorMatrix type="matrix" values="0 0 0 0 1 0 0 0 0 1 0 0 0 0 1 0 0 0 0.05 0"/>
<feBlend mode="normal" in2="effect1_innerShadow_3129_21647" result="effect2_innerShadow_3129_21647"/>
</filter>
<filter id="filter1_ii_3129_21647" x="20.7344" y="42.2676" width="41.5312" height="6.62755" filterUnits="userSpaceOnUse" color-interpolation-filters="sRGB">
<feFlood flood-opacity="0" result="BackgroundImageFix"/>
<feBlend mode="normal" in="SourceGraphic" in2="BackgroundImageFix" result="shape"/>
<feColorMatrix in="SourceAlpha" type="matrix" values="0 0 0 0 0 0 0 0 0 0 0 0 0 0 0 0 0 0 127 0" result="hardAlpha"/>
<feOffset dy="3.11584"/>
<feGaussianBlur stdDeviation="1.55792"/>
<feComposite in2="hardAlpha" operator="arithmetic" k2="-1" k3="1"/>
<feColorMatrix type="matrix" values="0 0 0 0 1 0 0 0 0 1 0 0 0 0 1 0 0 0 0.15 0"/>
<feBlend mode="normal" in2="shape" result="effect1_innerShadow_3129_21647"/>
<feColorMatrix in="SourceAlpha" type="matrix" values="0 0 0 0 0 0 0 0 0 0 0 0 0 0 0 0 0 0 127 0" result="hardAlpha"/>
<feOffset/>
<feGaussianBlur stdDeviation="23.3688"/>
<feComposite in2="hardAlpha" operator="arithmetic" k2="-1" k3="1"/>
<feColorMatrix type="matrix" values="0 0 0 0 1 0 0 0 0 1 0 0 0 0 1 0 0 0 0.05 0"/>
<feBlend mode="normal" in2="effect1_innerShadow_3129_21647" result="effect2_innerShadow_3129_21647"/>
</filter>
<filter id="filter2_ii_3129_21647" x="42.0581" y="30.3574" width="10.2207" height="50.401" filterUnits="userSpaceOnUse" color-interpolation-filters="sRGB">
<feFlood flood-opacity="0" result="BackgroundImageFix"/>
<feBlend mode="normal" in="SourceGraphic" in2="BackgroundImageFix" result="shape"/>
<feColorMatrix in="SourceAlpha" type="matrix" values="0 0 0 0 0 0 0 0 0 0 0 0 0 0 0 0 0 0 127 0" result="hardAlpha"/>
<feOffset dy="3.11584"/>
<feGaussianBlur stdDeviation="1.55792"/>
<feComposite in2="hardAlpha" operator="arithmetic" k2="-1" k3="1"/>
<feColorMatrix type="matrix" values="0 0 0 0 1 0 0 0 0 1 0 0 0 0 1 0 0 0 0.15 0"/>
<feBlend mode="normal" in2="shape" result="effect1_innerShadow_3129_21647"/>
<feColorMatrix in="SourceAlpha" type="matrix" values="0 0 0 0 0 0 0 0 0 0 0 0 0 0 0 0 0 0 127 0" result="hardAlpha"/>
<feOffset/>
<feGaussianBlur stdDeviation="23.3688"/>
<feComposite in2="hardAlpha" operator="arithmetic" k2="-1" k3="1"/>
<feColorMatrix type="matrix" values="0 0 0 0 1 0 0 0 0 1 0 0 0 0 1 0 0 0 0.05 0"/>
<feBlend mode="normal" in2="effect1_innerShadow_3129_21647" result="effect2_innerShadow_3129_21647"/>
</filter>
<filter id="filter3_ii_3129_21647" x="29.7212" y="30.3574" width="10.2207" height="50.401" filterUnits="userSpaceOnUse" color-interpolation-filters="sRGB">
<feFlood flood-opacity="0" result="BackgroundImageFix"/>
<feBlend mode="normal" in="SourceGraphic" in2="BackgroundImageFix" result="shape"/>
<feColorMatrix in="SourceAlpha" type="matrix" values="0 0 0 0 0 0 0 0 0 0 0 0 0 0 0 0 0 0 127 0" result="hardAlpha"/>
<feOffset dy="3.11584"/>
<feGaussianBlur stdDeviation="1.55792"/>
<feComposite in2="hardAlpha" operator="arithmetic" k2="-1" k3="1"/>
<feColorMatrix type="matrix" values="0 0 0 0 1 0 0 0 0 1 0 0 0 0 1 0 0 0 0.15 0"/>
<feBlend mode="normal" in2="shape" result="effect1_innerShadow_3129_21647"/>
<feColorMatrix in="SourceAlpha" type="matrix" values="0 0 0 0 0 0 0 0 0 0 0 0 0 0 0 0 0 0 127 0" result="hardAlpha"/>
<feOffset/>
<feGaussianBlur stdDeviation="23.3688"/>
<feComposite in2="hardAlpha" operator="arithmetic" k2="-1" k3="1"/>
<feColorMatrix type="matrix" values="0 0 0 0 1 0 0 0 0 1 0 0 0 0 1 0 0 0 0.05 0"/>
<feBlend mode="normal" in2="effect1_innerShadow_3129_21647" result="effect2_innerShadow_3129_21647"/>
</filter>
<linearGradient id="paint0_linear_3129_21647" x1="55.9757" y1="36.0807" x2="22.8595" y2="36.0807" gradientUnits="userSpaceOnUse">
<stop offset="0.0261371" stop-color="white"/>
<stop offset="1" stop-color="white" stop-opacity="0"/>
</linearGradient>
<linearGradient id="paint1_linear_3129_21647" x1="-20.3593" y1="8.76481" x2="38.1862" y2="9.40734" gradientUnits="userSpaceOnUse">
<stop offset="0.0261371" stop-color="white"/>
<stop offset="1" stop-color="white" stop-opacity="0"/>
</linearGradient>
<linearGradient id="paint2_linear_3129_21647" x1="11.6222" y1="13.0287" x2="78.3918" y2="21.4265" gradientUnits="userSpaceOnUse">
<stop offset="0.0261371" stop-color="white" stop-opacity="0.81"/>
<stop offset="1" stop-color="white" stop-opacity="0"/>
</linearGradient>
<linearGradient id="paint3_linear_3129_21647" x1="68.9491" y1="91.7721" x2="2.17945" y2="83.3743" gradientUnits="userSpaceOnUse">
<stop offset="0.0261371" stop-color="white" stop-opacity="0.81"/>
<stop offset="1" stop-color="white" stop-opacity="0"/>
</linearGradient>
</defs>
</svg>
