<svg width="67" height="67" viewBox="0 0 67 67" fill="none" xmlns="http://www.w3.org/2000/svg">
<g clip-path="url(#clip0_521_10713)">
<path d="M33.3476 66.6093C51.6571 66.6093 66.4999 51.7665 66.4999 33.457C66.4999 15.1475 51.6571 0.304688 33.3476 0.304688C15.0381 0.304688 0.195312 15.1475 0.195312 33.457C0.195312 51.7665 15.0381 66.6093 33.3476 66.6093Z" fill="url(#paint0_linear_521_10713)"/>
<path fill-rule="evenodd" clip-rule="evenodd" d="M15.2006 33.1083C24.8652 28.8976 31.3098 26.1217 34.5343 24.7805C43.7411 20.9511 45.6542 20.2859 46.9011 20.2639C47.1753 20.2591 47.7885 20.327 48.1857 20.6493C48.5211 20.9215 48.6134 21.2891 48.6576 21.5472C48.7017 21.8052 48.7567 22.393 48.713 22.8522C48.2141 28.0944 46.0553 40.8157 44.957 46.687C44.4923 49.1714 43.5772 50.0044 42.6913 50.0859C40.7661 50.2631 39.3042 48.8136 37.4395 47.5913C34.5217 45.6786 32.8733 44.488 30.041 42.6216C26.7679 40.4646 28.8897 39.2791 30.7551 37.3416C31.2433 36.8346 39.7258 29.1191 39.89 28.4192C39.9105 28.3316 39.9296 28.0053 39.7358 27.833C39.5419 27.6607 39.2558 27.7196 39.0494 27.7665C38.7567 27.8329 34.0954 30.9139 25.0655 37.0093C23.7424 37.9178 22.544 38.3605 21.4703 38.3373C20.2866 38.3117 18.0096 37.668 16.3169 37.1178C14.2407 36.4429 12.5906 36.0861 12.7343 34.9399C12.8091 34.343 13.6313 33.7324 15.2006 33.1083Z" fill="white"/>
</g>
<defs>
<linearGradient id="paint0_linear_521_10713" x1="33.3476" y1="0.304688" x2="33.3476" y2="66.1176" gradientUnits="userSpaceOnUse">
<stop stop-color="#2AABEE"/>
<stop offset="1" stop-color="#229ED9"/>
</linearGradient>
<clipPath id="clip0_521_10713">
<rect width="66.3046" height="66.3046" fill="white" transform="translate(0.195312 0.304688)"/>
</clipPath>
</defs>
</svg>
