<svg width="211" height="211" viewBox="0 0 211 211" fill="none" xmlns="http://www.w3.org/2000/svg">
<g opacity="0.2">
<rect x="3.51758" y="49.2344" width="203.967" height="144.183" fill="url(#paint0_linear_309_7496)"/>
<path d="M210.12 193.414L210.12 49.2305L65.9368 49.2305L210.12 193.414Z" fill="url(#paint1_linear_309_7496)"/>
<rect x="3.51758" y="49.2344" width="203.967" height="70.3333" fill="url(#paint2_linear_309_7496)"/>
<path d="M66.8164 49.234V44.8707C66.8164 29.8007 79.0331 17.584 94.1032 17.584H120.413C135.483 17.584 147.7 29.8007 147.7 44.8707V49.234" stroke="white" stroke-width="20.4651"/>
<rect width="29.1605" height="29.1605" transform="matrix(-0.539245 0.842149 -0.559984 -0.828504 119.567 119.109)" fill="white"/>
<g style="mix-blend-mode:lighten" filter="url(#filter0_f_309_7496)">
<circle cx="133.194" cy="38.2438" r="77.8063" fill="white" fill-opacity="0.3"/>
</g>
</g>
<defs>
<filter id="filter0_f_309_7496" x="23.1171" y="-71.8331" width="220.153" height="220.154" filterUnits="userSpaceOnUse" color-interpolation-filters="sRGB">
<feFlood flood-opacity="0" result="BackgroundImageFix"/>
<feBlend mode="normal" in="SourceGraphic" in2="BackgroundImageFix" result="shape"/>
<feGaussianBlur stdDeviation="16.1353" result="effect1_foregroundBlur_309_7496"/>
</filter>
<linearGradient id="paint0_linear_309_7496" x1="-20.017" y1="7.58145" x2="267.093" y2="60.8995" gradientUnits="userSpaceOnUse">
<stop offset="0.0261371" stop-color="white" stop-opacity="0.81"/>
<stop offset="1" stop-color="white" stop-opacity="0"/>
</linearGradient>
<linearGradient id="paint1_linear_309_7496" x1="176.847" y1="130.565" x2="25.2697" y2="49.2305" gradientUnits="userSpaceOnUse">
<stop stop-color="white" stop-opacity="0"/>
<stop offset="1" stop-color="white"/>
</linearGradient>
<linearGradient id="paint2_linear_309_7496" x1="-20.017" y1="28.9159" x2="239.397" y2="127.674" gradientUnits="userSpaceOnUse">
<stop offset="0.0261371" stop-color="white" stop-opacity="0.81"/>
<stop offset="1" stop-color="white" stop-opacity="0"/>
</linearGradient>
</defs>
</svg>
