<svg width="26" height="25" viewBox="0 0 26 25" fill="none" xmlns="http://www.w3.org/2000/svg">
<path d="M21.8257 8.15416C21.6217 7.3916 21.0181 6.79002 20.2502 6.58385C18.8618 6.21387 13.2909 6.21387 13.2909 6.21387C13.2909 6.21387 7.72296 6.21387 6.33168 6.58385C5.56661 6.7872 4.96306 7.38877 4.75621 8.15416C4.38501 9.53806 4.38501 12.4273 4.38501 12.4273C4.38501 12.4273 4.38501 15.3166 4.75621 16.7005C4.96023 17.463 5.56378 18.0646 6.33168 18.2708C7.72296 18.6408 13.2909 18.6408 13.2909 18.6408C13.2909 18.6408 18.8618 18.6408 20.2502 18.2708C21.0153 18.0674 21.6188 17.4658 21.8257 16.7005C22.1969 15.3166 22.1969 12.4273 22.1969 12.4273C22.1969 12.4273 22.1969 9.53806 21.8257 8.15416Z" fill="white"/>
<path d="M11.427 15.3264V9.94141L16.1906 12.6339L11.427 15.3264Z" fill="black"/>
</svg>
