<svg width="637" height="416" viewBox="0 0 637 416" fill="none" xmlns="http://www.w3.org/2000/svg">
<circle cx="403" cy="208" r="208" fill="url(#paint0_angular_502_7416)"/>
<circle cx="154.5" cy="237.5" r="154.5" fill="url(#paint1_angular_502_7416)"/>
<path d="M131 257.726L306.841 81.8848V257.726H131Z" fill="url(#paint2_linear_502_7416)"/>
<path d="M412.128 257.726L587.969 81.8848V257.726H412.128Z" fill="url(#paint3_linear_502_7416)"/>
<path d="M530.44 208.337L400.188 338.59L400.188 208.337L530.44 208.337Z" fill="url(#paint4_linear_502_7416)"/>
<path d="M637 208.404L587.969 257.435L587.969 208.404L637 208.404Z" fill="url(#paint5_linear_502_7416)"/>
<path d="M356.543 208.404L307.512 257.435L307.512 208.404L356.543 208.404Z" fill="url(#paint6_linear_502_7416)"/>
<path d="M306.841 176.86L226.519 257.183V323.937H306.841V176.86Z" fill="url(#paint7_linear_502_7416)"/>
<path d="M587.969 176.86L507.646 257.183V323.937H587.969V176.86Z" fill="url(#paint8_linear_502_7416)"/>
<path d="M530.441 207.795C530.441 181.926 522.77 156.638 508.398 135.129C494.026 113.62 473.599 96.8558 449.699 86.9562C425.799 77.0566 399.501 74.4664 374.129 79.5132C348.757 84.56 325.452 97.017 307.16 115.309C288.868 133.601 276.411 156.907 271.364 182.278C266.317 207.65 268.907 233.949 278.807 257.848C288.706 281.748 305.471 302.175 326.98 316.547C348.489 330.919 373.777 338.59 399.646 338.59V269.167C387.508 269.167 375.642 265.568 365.549 258.824C355.457 252.08 347.591 242.495 342.946 231.281C338.301 220.067 337.085 207.727 339.453 195.822C341.821 183.917 347.666 172.982 356.249 164.399C364.832 155.816 375.768 149.971 387.673 147.603C399.578 145.235 411.917 146.45 423.132 151.095C434.346 155.74 443.931 163.606 450.675 173.699C457.418 183.791 461.018 195.657 461.018 207.795H530.441Z" fill="url(#paint9_linear_502_7416)"/>
<defs>
<radialGradient id="paint0_angular_502_7416" cx="0" cy="0" r="1" gradientUnits="userSpaceOnUse" gradientTransform="translate(403 208) rotate(135) scale(278.295)">
<stop stop-color="#610865"/>
<stop offset="1" stop-color="#BD0C5A"/>
</radialGradient>
<radialGradient id="paint1_angular_502_7416" cx="0" cy="0" r="1" gradientUnits="userSpaceOnUse" gradientTransform="translate(154.5 237.5) scale(198.5)">
<stop stop-color="#610865"/>
<stop offset="1" stop-color="#BD0C5A"/>
</radialGradient>
<linearGradient id="paint2_linear_502_7416" x1="212.272" y1="136.699" x2="311.441" y2="235.868" gradientUnits="userSpaceOnUse">
<stop offset="0.0261371" stop-color="white"/>
<stop offset="1" stop-color="white" stop-opacity="0"/>
</linearGradient>
<linearGradient id="paint3_linear_502_7416" x1="493.4" y1="136.699" x2="592.569" y2="235.868" gradientUnits="userSpaceOnUse">
<stop offset="0.0261371" stop-color="white"/>
<stop offset="1" stop-color="white" stop-opacity="0"/>
</linearGradient>
<linearGradient id="paint4_linear_502_7416" x1="470.239" y1="297.986" x2="396.78" y2="224.528" gradientUnits="userSpaceOnUse">
<stop offset="0.0261371" stop-color="white"/>
<stop offset="1" stop-color="white" stop-opacity="0"/>
</linearGradient>
<linearGradient id="paint5_linear_502_7416" x1="614.338" y1="242.15" x2="586.686" y2="214.498" gradientUnits="userSpaceOnUse">
<stop offset="0.0261371" stop-color="white"/>
<stop offset="1" stop-color="white" stop-opacity="0"/>
</linearGradient>
<linearGradient id="paint6_linear_502_7416" x1="333.881" y1="242.15" x2="306.229" y2="214.498" gradientUnits="userSpaceOnUse">
<stop offset="0.0261371" stop-color="white"/>
<stop offset="1" stop-color="white" stop-opacity="0"/>
</linearGradient>
<linearGradient id="paint7_linear_502_7416" x1="263.643" y1="222.708" x2="333.428" y2="260.82" gradientUnits="userSpaceOnUse">
<stop offset="0.0261371" stop-color="white"/>
<stop offset="1" stop-color="white" stop-opacity="0"/>
</linearGradient>
<linearGradient id="paint8_linear_502_7416" x1="544.771" y1="222.708" x2="614.556" y2="260.82" gradientUnits="userSpaceOnUse">
<stop offset="0.0261371" stop-color="white"/>
<stop offset="1" stop-color="white" stop-opacity="0"/>
</linearGradient>
<linearGradient id="paint9_linear_502_7416" x1="305.755" y1="85.1408" x2="537.285" y2="306.075" gradientUnits="userSpaceOnUse">
<stop offset="0.0261371" stop-color="white"/>
<stop offset="1" stop-color="white" stop-opacity="0"/>
</linearGradient>
</defs>
</svg>
