<svg width="96" height="97" viewBox="0 0 96 97" fill="none" xmlns="http://www.w3.org/2000/svg">
<g style="mix-blend-mode:lighten" filter="url(#filter0_f_944_21733)">
<circle cx="52.9607" cy="42.7327" r="24.7327" fill="white" fill-opacity="0.3"/>
</g>
<rect x="6.22803" y="34" width="70" height="56" fill="url(#paint0_linear_944_21733)"/>
<path d="M76.228 21H6.22803V90L76.228 21Z" fill="url(#paint1_linear_944_21733)"/>
<rect x="2.22803" y="21" width="78" height="13" fill="white"/>
<path fill-rule="evenodd" clip-rule="evenodd" d="M29.887 43H35.3075L36.9982 48.6358C37.5026 48.8177 37.9934 49.0281 38.4686 49.2651L43.6699 46.4644L47.5027 50.2972L44.7018 55.4988C44.9387 55.9741 45.149 56.4648 45.3309 56.9691L50.9671 58.66V64.0805L45.5519 65.705C45.3615 66.3313 45.1279 66.9388 44.8546 67.524L47.5032 72.4428L43.6704 76.2757L39.0311 73.7776C38.3221 74.1728 37.5748 74.5076 36.7961 74.7749L35.3071 79.7381H29.8867L28.4604 74.984C27.5519 74.7227 26.6817 74.3709 25.8601 73.939L21.5243 76.2737L17.6915 72.4409L20.0264 68.1045C19.595 67.2836 19.2436 66.4142 18.9825 65.5064L14.228 64.0801V58.6596L19.1913 57.1707C19.4587 56.3916 19.7936 55.644 20.189 54.9347L17.6919 50.2973L21.5248 46.4644L26.4417 49.112C27.0276 48.8383 27.6358 48.6045 28.2628 48.4139L29.887 43ZM32.2966 66.9364C29.3878 66.9364 27.0299 64.5785 27.0299 61.6697C27.0299 58.761 29.3878 56.403 32.2966 56.403C35.2053 56.403 37.5633 58.761 37.5633 61.6697C37.5633 64.5785 35.2053 66.9364 32.2966 66.9364ZM62.0915 77.1792C61.7787 77.3476 61.4502 77.4905 61.1086 77.605L60.362 79.7381H57.8325L57.0858 77.6048C56.7438 77.4901 56.4148 77.347 56.1017 77.1782L54.1964 78.2041L52.4999 76.5076L53.5261 74.6018C53.3578 74.2893 53.215 73.9611 53.1005 73.6198L50.9671 72.8731V70.3435L53.1 69.597C53.2145 69.2552 53.3575 68.9263 53.5261 68.6133L52.4996 66.7069L54.1961 65.0104L56.1021 66.0367C56.4151 65.8681 56.744 65.7251 57.0858 65.6104L57.8321 63.4782H60.3617L61.1078 65.6099C61.45 65.7246 61.7791 65.8677 62.0923 66.0364L63.9983 65.0102L65.6948 66.7067L64.6686 68.6125C64.8372 68.9256 64.9803 69.2546 65.0949 69.5966L67.228 70.3432V72.8727L65.0947 73.6194C64.98 73.9613 64.8369 74.2902 64.6682 74.6033L65.6946 76.5093L63.9981 78.2059L62.0915 77.1792Z" fill="white"/>
<defs>
<filter id="filter0_f_944_21733" x="10.3656" y="0.137526" width="85.1903" height="85.1937" filterUnits="userSpaceOnUse" color-interpolation-filters="sRGB">
<feFlood flood-opacity="0" result="BackgroundImageFix"/>
<feBlend mode="normal" in="SourceGraphic" in2="BackgroundImageFix" result="shape"/>
<feGaussianBlur stdDeviation="8.93124" result="effect1_foregroundBlur_944_21733"/>
</filter>
<linearGradient id="paint0_linear_944_21733" x1="-1.84889" y1="17.8222" x2="97.4106" y2="34.1101" gradientUnits="userSpaceOnUse">
<stop offset="0.0261371" stop-color="white" stop-opacity="0.81"/>
<stop offset="1" stop-color="white" stop-opacity="0"/>
</linearGradient>
<linearGradient id="paint1_linear_944_21733" x1="45.7152" y1="36.9231" x2="7.10331" y2="109.924" gradientUnits="userSpaceOnUse">
<stop stop-color="white" stop-opacity="0"/>
<stop offset="1" stop-color="white"/>
</linearGradient>
</defs>
</svg>
