<svg width="94" height="93" viewBox="0 0 94 93" fill="none" xmlns="http://www.w3.org/2000/svg">
<circle cx="41.2719" cy="51.2718" r="37.099" fill="url(#paint0_linear_114_4352)"/>
<path d="M78.3709 51.2718C78.3709 46.3999 77.4113 41.5757 75.5469 37.0747C73.6825 32.5736 70.9498 28.4839 67.5049 25.0389C64.0599 21.5939 59.9702 18.8612 55.4691 16.9968C50.9681 15.1324 46.1438 14.1729 41.2719 14.1729L41.2719 51.2718H78.3709Z" fill="url(#paint1_linear_114_4352)"/>
<path d="M35 24H47L46 60H36L35 24Z" fill="white"/>
<g filter="url(#filter0_ii_114_4352)">
<path d="M34.4016 71.8829C34.4016 68.0886 37.4775 65.0127 41.2718 65.0127V65.0127C45.0661 65.0127 48.142 68.0886 48.142 71.8829V71.8829C48.142 75.6772 45.0661 78.7531 41.2718 78.7531V78.7531C37.4775 78.7531 34.4016 75.6772 34.4016 71.8829V71.8829Z" fill="white"/>
</g>
<path d="M4.08461 51.0847L41.1342 88.1343L78.1837 51.0847H4.08461Z" fill="url(#paint2_linear_114_4352)"/>
<g style="mix-blend-mode:lighten" opacity="0.6" filter="url(#filter1_f_114_4352)">
<circle cx="55" cy="39" r="21" fill="white" fill-opacity="0.3"/>
</g>
<defs>
<filter id="filter0_ii_114_4352" x="34.4016" y="65.0127" width="13.7404" height="16.8561" filterUnits="userSpaceOnUse" color-interpolation-filters="sRGB">
<feFlood flood-opacity="0" result="BackgroundImageFix"/>
<feBlend mode="normal" in="SourceGraphic" in2="BackgroundImageFix" result="shape"/>
<feColorMatrix in="SourceAlpha" type="matrix" values="0 0 0 0 0 0 0 0 0 0 0 0 0 0 0 0 0 0 127 0" result="hardAlpha"/>
<feOffset dy="3.11584"/>
<feGaussianBlur stdDeviation="1.55792"/>
<feComposite in2="hardAlpha" operator="arithmetic" k2="-1" k3="1"/>
<feColorMatrix type="matrix" values="0 0 0 0 1 0 0 0 0 1 0 0 0 0 1 0 0 0 0.15 0"/>
<feBlend mode="normal" in2="shape" result="effect1_innerShadow_114_4352"/>
<feColorMatrix in="SourceAlpha" type="matrix" values="0 0 0 0 0 0 0 0 0 0 0 0 0 0 0 0 0 0 127 0" result="hardAlpha"/>
<feOffset/>
<feGaussianBlur stdDeviation="23.3688"/>
<feComposite in2="hardAlpha" operator="arithmetic" k2="-1" k3="1"/>
<feColorMatrix type="matrix" values="0 0 0 0 1 0 0 0 0 1 0 0 0 0 1 0 0 0 0.05 0"/>
<feBlend mode="normal" in2="effect1_innerShadow_114_4352" result="effect2_innerShadow_114_4352"/>
</filter>
<filter id="filter1_f_114_4352" x="16.1375" y="0.137526" width="77.7249" height="77.7249" filterUnits="userSpaceOnUse" color-interpolation-filters="sRGB">
<feFlood flood-opacity="0" result="BackgroundImageFix"/>
<feBlend mode="normal" in="SourceGraphic" in2="BackgroundImageFix" result="shape"/>
<feGaussianBlur stdDeviation="8.93124" result="effect1_foregroundBlur_114_4352"/>
</filter>
<linearGradient id="paint0_linear_114_4352" x1="-4.38833" y1="-11.4464" x2="101.974" y2="1.93109" gradientUnits="userSpaceOnUse">
<stop offset="0.0261371" stop-color="white" stop-opacity="0.81"/>
<stop offset="1" stop-color="white" stop-opacity="0"/>
</linearGradient>
<linearGradient id="paint1_linear_114_4352" x1="-4.38833" y1="-11.4464" x2="101.974" y2="1.93109" gradientUnits="userSpaceOnUse">
<stop offset="0.0261371" stop-color="white" stop-opacity="0.81"/>
<stop offset="1" stop-color="white" stop-opacity="0"/>
</linearGradient>
<linearGradient id="paint2_linear_114_4352" x1="28.7843" y1="58.6846" x2="88.6336" y2="40.6348" gradientUnits="userSpaceOnUse">
<stop stop-color="white" stop-opacity="0"/>
<stop offset="1" stop-color="white"/>
</linearGradient>
</defs>
</svg>
