<svg width="66" height="67" viewBox="0 0 66 67" fill="none" xmlns="http://www.w3.org/2000/svg">
<g style="mix-blend-mode:lighten" filter="url(#filter0_f_265_5562)">
<circle cx="29.9382" cy="30.5" r="12" fill="white" fill-opacity="0.3"/>
</g>
<path d="M35.2544 55.5C45.7478 55.5 54.2544 46.9934 54.2544 36.5C54.2544 26.0066 45.7478 17.5 35.2544 17.5C24.761 17.5 16.2544 26.0066 16.2544 36.5C16.2544 46.9934 24.761 55.5 35.2544 55.5Z" fill="url(#paint0_linear_265_5562)"/>
<path fill-rule="evenodd" clip-rule="evenodd" d="M56.9382 36.508C56.9382 36.5054 56.9382 36.5027 56.9382 36.5C56.9382 36.4973 56.9382 36.4946 56.9382 36.4918C45.2088 36.1734 35.7575 26.5022 35.4462 14.5C35.4435 14.5 35.4409 14.5 35.4382 14.5C35.4356 14.5 35.4329 14.5 35.4303 14.5C35.119 26.5022 25.6676 36.1734 13.9382 36.4919C13.9382 36.4946 13.9382 36.4973 13.9382 36.5C13.9382 36.5027 13.9382 36.5053 13.9382 36.508C25.6677 36.8264 35.1192 46.4977 35.4304 58.5C35.433 58.5 35.4356 58.5 35.4382 58.5C35.4409 58.5 35.4435 58.5 35.4462 58.5C35.7574 46.4978 45.2088 36.8265 56.9382 36.508Z" fill="white"/>
<defs>
<filter id="filter0_f_265_5562" x="0.075758" y="0.637526" width="59.7249" height="59.7249" filterUnits="userSpaceOnUse" color-interpolation-filters="sRGB">
<feFlood flood-opacity="0" result="BackgroundImageFix"/>
<feBlend mode="normal" in="SourceGraphic" in2="BackgroundImageFix" result="shape"/>
<feGaussianBlur stdDeviation="8.93124" result="effect1_foregroundBlur_265_5562"/>
</filter>
<linearGradient id="paint0_linear_265_5562" x1="16.2544" y1="30.1667" x2="54.2024" y2="31.5714" gradientUnits="userSpaceOnUse">
<stop stop-color="white" stop-opacity="0"/>
<stop offset="1" stop-color="white"/>
</linearGradient>
</defs>
</svg>
