<svg width="68" height="67" viewBox="0 0 68 67" fill="none" xmlns="http://www.w3.org/2000/svg">
<g clip-path="url(#clip0_521_10712)">
<path d="M66.5059 34.2208C66.5059 31.9672 66.3232 29.7014 65.9334 27.4844H34.6631V40.2507H52.5701C51.827 44.3681 49.4394 48.0104 45.9433 50.3249V58.6084H56.6266C62.9002 52.8344 66.5059 44.3072 66.5059 34.2208Z" fill="#4285F4"/>
<path d="M34.6638 66.6121C43.6051 66.6121 51.1456 63.6763 56.6395 58.6088L45.9562 50.3252C42.9839 52.3474 39.1467 53.4925 34.676 53.4925C26.027 53.4925 18.6937 47.6575 16.0625 39.8125H5.03809V48.3518C10.666 59.5467 22.1289 66.6121 34.6638 66.6121V66.6121Z" fill="#34A853"/>
<path d="M16.0495 39.8127C14.6608 35.6953 14.6608 31.2368 16.0495 27.1194V18.5801H5.03732C0.335215 27.9478 0.335215 38.9843 5.03732 48.352L16.0495 39.8127V39.8127Z" fill="#FBBC04"/>
<path d="M34.6638 13.4265C39.3903 13.3534 43.9584 15.132 47.3814 18.3966L56.8466 8.93152C50.8532 3.3036 42.8986 0.209469 34.6638 0.306922C22.1289 0.306922 10.666 7.37227 5.03809 18.5794L16.0503 27.1187C18.6693 19.2615 26.0149 13.4265 34.6638 13.4265V13.4265Z" fill="#EA4335"/>
</g>
<defs>
<clipPath id="clip0_521_10712">
<rect width="66.3046" height="66.3046" fill="white" transform="translate(0.847656 0.304688)"/>
</clipPath>
</defs>
</svg>
