<svg width="175" height="99" viewBox="0 0 175 99" fill="none" xmlns="http://www.w3.org/2000/svg">
<g clip-path="url(#clip0_304_1477)">
<path d="M60.9147 60.5479H55.8511V35.7195H56.5496C56.7242 35.7195 56.8988 35.7195 57.0734 35.7195C57.248 35.7195 57.4226 35.7195 57.5972 35.7195C57.9464 35.7195 58.2956 35.7195 58.6448 35.8931C58.9941 35.8931 59.3433 36.0667 59.6925 36.2404C60.0417 36.414 60.3909 36.7612 60.5655 37.1085C60.7401 37.2821 60.9147 37.803 60.9147 38.3239V60.5479Z" fill="black"/>
<path d="M80.8201 52.9085V35.7195H81.3439C81.5185 35.7195 81.6931 35.7195 81.8677 35.7195C82.0424 35.7195 82.217 35.7195 82.3916 35.7195C82.7408 35.7195 83.09 35.7195 83.4392 35.8931C83.7884 35.8931 84.1376 36.0668 84.4868 36.2404C84.8361 36.414 85.0107 36.7613 85.3599 37.1085C85.5345 37.4558 85.7091 37.9767 85.7091 38.6712V60.8952H81.3439L70.6929 44.2272V60.7216H65.804V35.7195C65.9786 35.5459 66.3278 35.5459 66.677 35.5459C67.0262 35.5459 67.55 35.5459 67.8992 35.5459C68.7723 35.5459 69.2961 35.7195 69.8199 35.8931C70.3437 36.2404 70.6929 36.5877 71.0421 37.1085L80.8201 52.9085Z" fill="black"/>
<path d="M96.3603 39.7129H88.503C88.503 39.3657 88.503 39.192 88.3284 39.0184C88.3284 38.8448 88.3284 38.4975 88.3284 38.3239C88.3284 37.6294 88.503 37.1085 89.0268 36.414C89.5506 35.8931 90.4236 35.5459 91.4713 35.5459H109.107C109.107 36.0668 109.281 36.5877 109.281 37.1085C109.281 37.803 109.107 38.3239 108.583 38.8448C108.059 39.3657 107.36 39.7129 106.138 39.7129H101.424V60.548H96.1857V39.7129H96.3603Z" fill="black"/>
<path d="M125.344 56.7282C126.566 56.7282 127.439 57.0755 127.788 57.5963C128.312 58.1172 128.487 58.8117 128.487 59.5062C128.487 59.8535 128.487 60.0271 128.487 60.2007C128.487 60.3744 128.487 60.548 128.487 60.8952H112.248V35.5459H127.963C127.963 35.8931 127.963 36.0668 128.138 36.2404C128.138 36.414 128.138 36.5877 128.138 36.9349C128.138 37.803 127.963 38.4975 127.439 38.8448C126.915 39.192 126.217 39.5393 124.995 39.5393H117.661V45.6162H125.693V49.6096H117.661V56.5546H125.344V56.7282Z" fill="black"/>
<path d="M148.917 42.8382C148.917 43.88 148.742 44.7481 148.567 45.6162C148.218 46.3107 147.869 47.0052 147.52 47.6997C146.996 48.2206 146.472 48.7415 145.948 49.2624C145.424 49.6096 144.726 49.9569 144.202 50.1305L150.313 60.3744C149.79 60.548 149.266 60.7217 148.742 60.8953C148.218 61.0689 147.694 61.0689 147.17 61.0689C146.297 61.0689 145.424 60.8953 144.901 60.548C144.202 60.2008 143.678 59.5063 143.155 58.6381L138.964 51.1722H136.869V60.548H131.63V35.7196C132.853 35.5459 134.075 35.5459 135.297 35.5459C136.519 35.5459 137.567 35.3723 138.44 35.3723C142.107 35.3723 144.726 36.0668 146.472 37.2822C148.044 38.4976 148.917 40.2338 148.917 42.8382ZM143.504 43.1855C143.504 41.6228 143.155 40.5811 142.281 39.8866C141.408 39.3657 140.361 39.0185 138.964 39.0185C138.44 39.0185 138.091 39.0185 137.742 39.0185C137.393 39.0185 137.218 39.0185 136.869 39.0185V47.6997H138.615C140.186 47.6997 141.234 47.3525 142.107 46.658C143.155 45.9635 143.504 44.7481 143.504 43.1855Z" fill="black"/>
<path d="M74.534 95.2258C74.3594 95.3995 74.1847 95.5731 73.8355 95.7467C73.4863 95.9203 72.9625 96.2676 72.4387 96.4412C71.9149 96.6149 71.2164 96.7885 70.3434 96.9621C69.4704 97.1357 68.5973 97.1357 67.5497 97.1357C65.4544 97.1357 63.7084 96.7885 62.3115 96.094C60.9147 95.3995 59.6924 94.5313 58.6448 93.316C57.5971 92.1006 56.8987 90.7116 56.5495 89.1489C56.0257 87.5863 55.8511 85.8501 55.8511 83.9402C55.8511 82.0303 56.0257 80.294 56.5495 78.7314C57.0733 77.1688 57.7717 75.7798 58.8194 74.5644C59.867 73.349 61.0893 72.4809 62.4861 71.7864C63.883 71.0919 65.629 70.7446 67.7243 70.7446C68.7719 70.7446 69.645 70.9183 70.3434 71.0919C71.2164 71.2655 71.7403 71.4391 72.4387 71.7864C72.9625 71.96 73.4863 72.3073 73.8355 72.4809C74.1847 72.8281 74.534 73.0018 74.7086 73.1754C74.8832 73.349 75.0578 73.6963 75.2324 73.8699C75.407 74.2171 75.407 74.3908 75.407 74.738C75.407 75.2589 75.2324 75.7798 74.8832 76.3006C74.534 76.8215 74.0101 77.3424 73.6609 77.6897C73.3117 77.3424 72.9625 77.1688 72.6133 76.8215C72.2641 76.4743 71.7403 76.3006 71.391 75.9534C70.8672 75.7798 70.3434 75.4325 69.8196 75.4325C69.2958 75.2589 68.5973 75.2589 67.8989 75.2589C66.6767 75.2589 65.629 75.4325 64.756 75.9534C63.883 76.4743 63.1845 77.1688 62.6607 78.0369C62.1369 78.905 61.7877 79.7732 61.6131 80.8149C61.4385 81.8567 61.2639 82.8984 61.2639 84.1138C61.2639 85.3292 61.4385 86.3709 61.6131 87.4127C61.7877 88.4544 62.3115 89.4962 62.8353 90.1907C63.3591 91.0588 64.0576 91.7533 64.9306 92.1006C65.8036 92.6215 66.8513 92.7951 68.2481 92.7951C68.9466 92.7951 69.645 92.6215 70.1688 92.4478C70.6926 92.2742 71.2164 92.1006 71.7403 91.7533C72.2641 91.5797 72.6133 91.2325 72.9625 90.8852C73.3117 90.538 73.6609 90.3643 73.8355 90.1907C74.0101 90.3643 74.1847 90.538 74.3594 90.8852C74.534 91.0588 74.7086 91.4061 74.8832 91.7533C75.0578 92.1006 75.2324 92.2742 75.407 92.6215C75.5816 92.9687 75.5816 93.1423 75.5816 93.316C75.5816 93.6632 75.5816 93.8368 75.407 94.1841C75.0578 94.705 74.8832 95.0522 74.534 95.2258Z" fill="black"/>
<path d="M100.376 84.1139C100.376 85.8501 100.201 87.5864 99.6775 89.149C99.3282 90.7117 98.6298 92.1007 97.5822 93.316C96.7092 94.5314 95.4869 95.3995 94.0901 96.0941C92.6932 96.7886 90.9471 97.1358 88.8519 97.1358C86.7566 97.1358 85.0105 96.7886 83.6137 96.0941C82.2168 95.3995 80.9946 94.3578 80.1215 93.1424C79.2485 91.927 78.5501 90.538 78.2009 88.9754C77.8517 87.4128 77.5024 85.6765 77.5024 83.9403C77.5024 82.204 77.6771 80.4677 78.2009 78.9051C78.7247 77.3425 79.4231 75.9535 80.2961 74.7381C81.1692 73.5227 82.3914 72.6546 83.9629 71.9601C85.3597 71.2656 87.1058 70.9183 89.2011 70.9183C91.1217 70.9183 92.8678 71.2656 94.2647 71.9601C95.6615 72.6546 96.8838 73.5227 97.7568 74.7381C98.6298 75.9535 99.3282 77.3425 99.6775 78.9051C100.201 80.6414 100.376 82.204 100.376 84.1139ZM95.1377 84.1139C95.1377 82.8985 94.9631 81.8567 94.7885 80.6414C94.6139 79.5996 94.2647 78.5579 93.7408 77.8634C93.217 76.9952 92.6932 76.4744 91.8202 75.9535C91.1217 75.4326 90.0741 75.259 89.0265 75.259C87.8042 75.259 86.9312 75.4326 86.0582 75.9535C85.1851 76.4744 84.6613 76.9952 84.1375 77.8634C83.6137 78.7315 83.2645 79.5996 83.0898 80.6414C82.9152 81.6831 82.7406 82.8985 82.7406 84.1139C82.7406 85.3293 82.9152 86.371 83.0898 87.5864C83.2645 88.6281 83.6137 89.6699 84.1375 90.538C84.6613 91.4062 85.1851 92.1007 86.0582 92.6215C86.7566 93.1424 87.8042 93.316 88.8519 93.316C89.8995 93.316 90.9471 93.1424 91.6456 92.6215C92.344 92.1007 93.0424 91.4062 93.5662 90.538C94.0901 89.6699 94.4393 88.8018 94.6139 87.5864C94.9631 86.5446 95.1377 85.3293 95.1377 84.1139Z" fill="black"/>
<path d="M108.582 71.4392C109.455 71.4392 109.979 71.6128 110.503 71.9601C111.027 72.3073 111.376 72.8282 111.551 73.5227L117.313 86.8919L123.075 73.6963C123.424 72.8282 123.948 72.3073 124.472 71.9601C124.995 71.6128 125.519 71.4392 126.218 71.4392C126.741 71.4392 127.265 71.4392 127.789 71.6128C128.313 71.6128 128.662 71.7865 128.837 71.7865L130.583 96.6149H125.694L124.472 80.1205L119.408 91.4062H115.043L110.154 80.4677L109.106 96.6149H104.217L106.138 71.7865C106.312 71.7865 106.836 71.6128 107.185 71.6128C107.535 71.6128 108.059 71.4392 108.582 71.4392Z" fill="black"/>
<path d="M138.789 71.4392C139.662 71.4392 140.186 71.6128 140.71 71.9601C141.234 72.3073 141.583 72.8282 141.757 73.5227L147.519 86.8919L153.282 73.6963C153.631 72.8282 154.155 72.3073 154.678 71.9601C155.202 71.6128 155.726 71.4392 156.424 71.4392C156.948 71.4392 157.472 71.4392 157.996 71.6128C158.52 71.6128 158.869 71.7865 159.044 71.7865L160.79 96.6149H155.901L154.678 80.1205L149.615 91.4062H145.424L140.535 80.4677L139.488 96.6149H134.599L136.519 71.7865C136.694 71.7865 137.218 71.6128 137.567 71.6128C137.742 71.6128 138.265 71.4392 138.789 71.4392Z" fill="black"/>
<path d="M44.6808 35.8285C32.8709 31.1123 19.0139 33.6276 9.56597 43.0599C-3.18874 55.7935 -3.18874 76.3873 9.56597 89.1209C19.0139 98.5532 32.8709 101.069 44.6808 96.3524V81.2607C42.3188 82.3611 39.7994 82.9899 37.1224 82.9899C27.6745 82.9899 20.1162 75.4441 20.1162 66.0118C20.1162 56.5795 27.6745 49.0337 37.1224 49.0337C39.7994 49.0337 42.4763 49.6625 44.6808 50.7629V35.8285Z" fill="#FA0056"/>
<path d="M39.3303 20.7045C43.9822 16.0409 43.9822 8.32199 39.3303 3.49765C34.6784 -1.16588 26.9787 -1.16588 22.1664 3.49765C17.3541 8.16118 17.5145 15.8801 22.1664 20.7045C26.9787 25.368 34.6784 25.368 39.3303 20.7045Z" fill="#FA0056"/>
<path d="M56.4975 9V2.44681H59.0061C59.4797 2.44681 59.8733 2.52147 60.1869 2.67079C60.5026 2.81799 60.7383 3.01957 60.894 3.27556C61.0519 3.53154 61.1308 3.82166 61.1308 4.1459C61.1308 4.41255 61.0796 4.6408 60.9772 4.83066C60.8748 5.01838 60.7372 5.17091 60.5644 5.28823C60.3917 5.40556 60.1986 5.48982 59.9853 5.54102V5.60501C60.2178 5.61781 60.4407 5.68927 60.654 5.8194C60.8695 5.94739 61.0455 6.12871 61.182 6.36336C61.3185 6.59802 61.3868 6.88173 61.3868 7.21451C61.3868 7.55369 61.3047 7.85874 61.1404 8.12965C60.9761 8.39844 60.7287 8.61069 60.3981 8.76641C60.0674 8.92214 59.6514 9 59.1501 9H56.4975ZM57.6846 8.00806H58.9613C59.3922 8.00806 59.7026 7.92593 59.8925 7.76168C60.0845 7.59529 60.1805 7.38197 60.1805 7.12172C60.1805 6.9276 60.1325 6.75267 60.0365 6.59695C59.9405 6.43909 59.804 6.31537 59.6269 6.22577C59.4498 6.13405 59.2387 6.08818 58.9933 6.08818H57.6846V8.00806ZM57.6846 5.23383H58.8589C59.0637 5.23383 59.2483 5.1965 59.4125 5.12184C59.5768 5.04505 59.7058 4.93732 59.7997 4.79866C59.8957 4.65787 59.9437 4.49148 59.9437 4.29949C59.9437 4.04564 59.8541 3.83659 59.6749 3.67233C59.4978 3.50808 59.2344 3.42595 58.8845 3.42595H57.6846V5.23383ZM68.0288 4.65787H66.8321C66.7979 4.46162 66.735 4.28776 66.6433 4.1363C66.5515 3.98271 66.4374 3.85259 66.3009 3.74593C66.1644 3.63927 66.0086 3.55927 65.8337 3.50594C65.6609 3.45048 65.4743 3.42275 65.2737 3.42275C64.9175 3.42275 64.6018 3.51234 64.3266 3.69153C64.0514 3.86859 63.836 4.12884 63.6802 4.47228C63.5245 4.81359 63.4467 5.23063 63.4467 5.7234C63.4467 6.22471 63.5245 6.64708 63.6802 6.99053C63.8381 7.33184 64.0536 7.58995 64.3266 7.76488C64.6018 7.93767 64.9164 8.02406 65.2705 8.02406C65.4668 8.02406 65.6503 7.99846 65.8209 7.94727C65.9937 7.89394 66.1484 7.81607 66.2849 7.71368C66.4235 7.61129 66.5398 7.48543 66.6337 7.3361C66.7297 7.18678 66.7958 7.01612 66.8321 6.82414L68.0288 6.83054C67.984 7.14198 67.8869 7.43423 67.7376 7.70728C67.5904 7.98033 67.3973 8.22138 67.1584 8.43044C66.9195 8.63736 66.6401 8.79948 66.3201 8.91681C66.0001 9.032 65.6449 9.08959 65.2545 9.08959C64.6786 9.08959 64.1645 8.95627 63.7122 8.68962C63.26 8.42297 62.9038 8.03793 62.6435 7.53449C62.3833 7.03106 62.2531 6.42736 62.2531 5.7234C62.2531 5.01731 62.3843 4.41362 62.6467 3.91232C62.9091 3.40888 63.2664 3.02384 63.7186 2.75719C64.1709 2.49054 64.6829 2.35721 65.2545 2.35721C65.6193 2.35721 65.9585 2.40841 66.2721 2.5108C66.5857 2.6132 66.8651 2.76359 67.1104 2.96198C67.3558 3.15823 67.5573 3.39928 67.7152 3.68513C67.8752 3.96885 67.9797 4.29309 68.0288 4.65787ZM69.1159 9V2.44681H73.378V3.44195H70.303V5.22104H73.1573V6.21617H70.303V8.00486H73.4036V9H69.1159ZM82.6799 5.7234C82.6799 6.42949 82.5476 7.03426 82.2831 7.53769C82.0207 8.03899 81.6623 8.42297 81.208 8.68962C80.7557 8.95627 80.2427 9.08959 79.6689 9.08959C79.095 9.08959 78.5809 8.95627 78.1265 8.68962C77.6743 8.42084 77.3159 8.03579 77.0514 7.53449C76.789 7.03106 76.6578 6.42736 76.6578 5.7234C76.6578 5.01731 76.789 4.41362 77.0514 3.91232C77.3159 3.40888 77.6743 3.02384 78.1265 2.75719C78.5809 2.49054 79.095 2.35721 79.6689 2.35721C80.2427 2.35721 80.7557 2.49054 81.208 2.75719C81.6623 3.02384 82.0207 3.40888 82.2831 3.91232C82.5476 4.41362 82.6799 5.01731 82.6799 5.7234ZM81.4863 5.7234C81.4863 5.22637 81.4085 4.80719 81.2528 4.46588C81.0992 4.12244 80.8858 3.86325 80.6128 3.68833C80.3397 3.51128 80.0251 3.42275 79.6689 3.42275C79.3126 3.42275 78.998 3.51128 78.7249 3.68833C78.4519 3.86325 78.2375 4.12244 78.0817 4.46588C77.9282 4.80719 77.8514 5.22637 77.8514 5.7234C77.8514 6.22044 77.9282 6.64068 78.0817 6.98413C78.2375 7.32544 78.4519 7.58462 78.7249 7.76168C78.998 7.9366 79.3126 8.02406 79.6689 8.02406C80.0251 8.02406 80.3397 7.9366 80.6128 7.76168C80.8858 7.58462 81.0992 7.32544 81.2528 6.98413C81.4085 6.64068 81.4863 6.22044 81.4863 5.7234ZM89.9634 9L87.8067 6.13618H87.2244V9H86.0373V2.44681H87.2244V5.14104H87.522L89.8514 2.44681H91.3137L88.7251 5.43542L91.4257 9H89.9634ZM97.7357 5.7234C97.7357 6.42949 97.6035 7.03426 97.3389 7.53769C97.0766 8.03899 96.7182 8.42297 96.2638 8.68962C95.8116 8.95627 95.2985 9.08959 94.7247 9.08959C94.1509 9.08959 93.6368 8.95627 93.1824 8.68962C92.7302 8.42084 92.3718 8.03579 92.1073 7.53449C91.8449 7.03106 91.7137 6.42736 91.7137 5.7234C91.7137 5.01731 91.8449 4.41362 92.1073 3.91232C92.3718 3.40888 92.7302 3.02384 93.1824 2.75719C93.6368 2.49054 94.1509 2.35721 94.7247 2.35721C95.2985 2.35721 95.8116 2.49054 96.2638 2.75719C96.7182 3.02384 97.0766 3.40888 97.3389 3.91232C97.6035 4.41362 97.7357 5.01731 97.7357 5.7234ZM96.5422 5.7234C96.5422 5.22637 96.4643 4.80719 96.3086 4.46588C96.155 4.12244 95.9417 3.86325 95.6687 3.68833C95.3956 3.51128 95.081 3.42275 94.7247 3.42275C94.3685 3.42275 94.0538 3.51128 93.7808 3.68833C93.5077 3.86325 93.2933 4.12244 93.1376 4.46588C92.984 4.80719 92.9072 5.22637 92.9072 5.7234C92.9072 6.22044 92.984 6.64068 93.1376 6.98413C93.2933 7.32544 93.5077 7.58462 93.7808 7.76168C94.0538 7.9366 94.3685 8.02406 94.7247 8.02406C95.081 8.02406 95.3956 7.9366 95.6687 7.76168C95.9417 7.58462 96.155 7.32544 96.3086 6.98413C96.4643 6.64068 96.5422 6.22044 96.5422 5.7234ZM98.8581 9V2.44681H101.315C101.819 2.44681 102.241 2.54067 102.583 2.72839C102.926 2.91611 103.185 3.17423 103.36 3.50274C103.537 3.82912 103.626 4.2003 103.626 4.61627C103.626 5.03651 103.537 5.40982 103.36 5.7362C103.183 6.06258 102.922 6.31963 102.576 6.50736C102.231 6.69294 101.805 6.78574 101.3 6.78574H99.6708V5.8098H101.14C101.434 5.8098 101.675 5.7586 101.863 5.65621C102.05 5.55381 102.189 5.41302 102.279 5.23383C102.37 5.05465 102.416 4.84879 102.416 4.61627C102.416 4.38375 102.37 4.17897 102.279 4.00191C102.189 3.82486 102.049 3.68726 101.859 3.58914C101.672 3.48888 101.43 3.43875 101.133 3.43875H100.045V9H98.8581ZM110.004 2.44681V9H108.826V3.43235H105.959V9H104.782V2.44681H110.004ZM117.279 5.7234C117.279 6.42949 117.147 7.03426 116.883 7.53769C116.62 8.03899 116.262 8.42297 115.807 8.68962C115.355 8.95627 114.842 9.08959 114.268 9.08959C113.694 9.08959 113.18 8.95627 112.726 8.68962C112.274 8.42084 111.915 8.03579 111.651 7.53449C111.388 7.03106 111.257 6.42736 111.257 5.7234C111.257 5.01731 111.388 4.41362 111.651 3.91232C111.915 3.40888 112.274 3.02384 112.726 2.75719C113.18 2.49054 113.694 2.35721 114.268 2.35721C114.842 2.35721 115.355 2.49054 115.807 2.75719C116.262 3.02384 116.62 3.40888 116.883 3.91232C117.147 4.41362 117.279 5.01731 117.279 5.7234ZM116.086 5.7234C116.086 5.22637 116.008 4.80719 115.852 4.46588C115.699 4.12244 115.485 3.86325 115.212 3.68833C114.939 3.51128 114.625 3.42275 114.268 3.42275C113.912 3.42275 113.597 3.51128 113.324 3.68833C113.051 3.86325 112.837 4.12244 112.681 4.46588C112.528 4.80719 112.451 5.22637 112.451 5.7234C112.451 6.22044 112.528 6.64068 112.681 6.98413C112.837 7.32544 113.051 7.58462 113.324 7.76168C113.597 7.9366 113.912 8.02406 114.268 8.02406C114.625 8.02406 114.939 7.9366 115.212 7.76168C115.485 7.58462 115.699 7.32544 115.852 6.98413C116.008 6.64068 116.086 6.22044 116.086 5.7234ZM118.402 9V2.44681H120.859C121.363 2.44681 121.785 2.54067 122.126 2.72839C122.47 2.91611 122.729 3.17423 122.904 3.50274C123.081 3.82912 123.169 4.2003 123.169 4.61627C123.169 5.03651 123.081 5.40982 122.904 5.7362C122.727 6.06258 122.465 6.31963 122.12 6.50736C121.774 6.69294 121.349 6.78574 120.843 6.78574H119.214V5.8098H120.683C120.977 5.8098 121.219 5.7586 121.406 5.65621C121.594 5.55381 121.733 5.41302 121.822 5.23383C121.914 5.05465 121.96 4.84879 121.96 4.61627C121.96 4.38375 121.914 4.17897 121.822 4.00191C121.733 3.82486 121.593 3.68726 121.403 3.58914C121.215 3.48888 120.973 3.43875 120.677 3.43875H119.589V9H118.402ZM124.312 9H123.045L125.352 2.44681H126.817L129.127 9H127.86L126.11 3.79072H126.059L124.312 9ZM124.353 6.43056H127.809V7.3841H124.353V6.43056ZM128.911 3.44195V2.44681H134.139V3.44195H132.114V9H130.936V3.44195H128.911ZM135.147 2.44681H136.325V6.91373H136.385L139.467 2.44681H140.532V9H139.345V4.53628H139.291L136.2 9H135.147V2.44681ZM141.826 9V2.44681H144.334C144.808 2.44681 145.202 2.52147 145.515 2.67079C145.831 2.81799 146.067 3.01957 146.222 3.27556C146.38 3.53154 146.459 3.82166 146.459 4.1459C146.459 4.41255 146.408 4.6408 146.305 4.83066C146.203 5.01838 146.066 5.17091 145.893 5.28823C145.72 5.40556 145.527 5.48982 145.314 5.54102V5.60501C145.546 5.61781 145.769 5.68927 145.982 5.8194C146.198 5.94739 146.374 6.12871 146.51 6.36336C146.647 6.59802 146.715 6.88173 146.715 7.21451C146.715 7.55369 146.633 7.85874 146.469 8.12965C146.304 8.39844 146.057 8.61069 145.726 8.76641C145.396 8.92214 144.98 9 144.478 9H141.826ZM143.013 8.00806H144.29C144.721 8.00806 145.031 7.92593 145.221 7.76168C145.413 7.59529 145.509 7.38197 145.509 7.12172C145.509 6.9276 145.461 6.75267 145.365 6.59695C145.269 6.43909 145.132 6.31537 144.955 6.22577C144.778 6.13405 144.567 6.08818 144.322 6.08818H143.013V8.00806ZM143.013 5.23383H144.187C144.392 5.23383 144.577 5.1965 144.741 5.12184C144.905 5.04505 145.034 4.93732 145.128 4.79866C145.224 4.65787 145.272 4.49148 145.272 4.29949C145.272 4.04564 145.182 3.83659 145.003 3.67233C144.826 3.50808 144.563 3.42595 144.213 3.42595H143.013V5.23383ZM147.748 9V2.44681H148.935V5.22104H151.972V2.44681H153.162V9H151.972V6.21617H148.935V9H147.748ZM155.256 4.97785H156.92C157.421 4.97785 157.851 5.05998 158.21 5.22424C158.57 5.38636 158.846 5.61568 159.038 5.91219C159.23 6.20871 159.326 6.55749 159.326 6.95853C159.326 7.3617 159.23 7.71688 159.038 8.02406C158.846 8.32911 158.57 8.56803 158.21 8.74082C157.851 8.91361 157.421 9 156.92 9H154.466V2.44681H155.656V8.02726H156.92C157.185 8.02726 157.409 7.97713 157.592 7.87687C157.775 7.77661 157.914 7.64435 158.008 7.48009C158.104 7.31584 158.152 7.13772 158.152 6.94573C158.152 6.66841 158.045 6.43269 157.832 6.23857C157.621 6.04232 157.317 5.94419 156.92 5.94419H155.256V4.97785ZM161.083 2.44681V9H159.893V2.44681H161.083ZM163.364 2.44681L164.808 4.84666H164.859L166.308 2.44681H167.662L165.643 5.7234L167.694 9H166.318L164.859 6.61615H164.808L163.348 9H161.979L164.049 5.7234L162.005 2.44681H163.364ZM60.4237 21L58.267 18.1362H57.6846V21H56.4975V14.4468H57.6846V17.141H57.9822L60.3117 14.4468H61.774L59.1853 17.4354L61.886 21H60.4237ZM68.196 17.7234C68.196 18.4295 68.0637 19.0343 67.7992 19.5377C67.5368 20.039 67.1784 20.423 66.7241 20.6896C66.2718 20.9563 65.7588 21.0896 65.185 21.0896C64.6111 21.0896 64.097 20.9563 63.6426 20.6896C63.1904 20.4208 62.832 20.0358 62.5675 19.5345C62.3051 19.0311 62.1739 18.4274 62.1739 17.7234C62.1739 17.0173 62.3051 16.4136 62.5675 15.9123C62.832 15.4089 63.1904 15.0238 63.6426 14.7572C64.097 14.4905 64.6111 14.3572 65.185 14.3572C65.7588 14.3572 66.2718 14.4905 66.7241 14.7572C67.1784 15.0238 67.5368 15.4089 67.7992 15.9123C68.0637 16.4136 68.196 17.0173 68.196 17.7234ZM67.0024 17.7234C67.0024 17.2264 66.9246 16.8072 66.7689 16.4659C66.6153 16.1224 66.4019 15.8633 66.1289 15.6883C65.8558 15.5113 65.5412 15.4227 65.185 15.4227C64.8287 15.4227 64.5141 15.5113 64.241 15.6883C63.968 15.8633 63.7536 16.1224 63.5979 16.4659C63.4443 16.8072 63.3675 17.2264 63.3675 17.7234C63.3675 18.2204 63.4443 18.6407 63.5979 18.9841C63.7536 19.3254 63.968 19.5846 64.241 19.7617C64.5141 19.9366 64.8287 20.0241 65.185 20.0241C65.5412 20.0241 65.8558 19.9366 66.1289 19.7617C66.4019 19.5846 66.6153 19.3254 66.7689 18.9841C66.9246 18.6407 67.0024 18.2204 67.0024 17.7234ZM69.3183 14.4468H70.771L72.7165 19.1953H72.7933L74.7388 14.4468H76.1915V21H75.0523V16.4979H74.9915L73.1805 20.9808H72.3293L70.5182 16.4883H70.4574V21H69.3183V14.4468ZM77.4842 14.4468H78.9369L80.8824 19.1953H80.9592L82.9046 14.4468H84.3574V21H83.2182V16.4979H83.1574L81.3463 20.9808H80.4952L78.6841 16.4883H78.6233V21H77.4842V14.4468ZM86.2356 21.0896V20.0913H86.61C86.7785 20.0913 86.9172 20.0667 87.026 20.0177C87.1348 19.9686 87.2222 19.8982 87.2884 19.8065C87.3566 19.7147 87.4132 19.6081 87.458 19.4865L87.5444 19.2657L85.2021 14.4468H86.4436L88.0755 17.9538L89.4866 14.4468H90.709L88.4499 19.7905C88.3454 20.0209 88.2249 20.2352 88.0883 20.4336C87.9518 20.6299 87.7737 20.7888 87.554 20.9104C87.3364 21.0299 87.0527 21.0896 86.7028 21.0896H86.2356ZM91.5545 21V14.4468H92.7416V17.221H95.7782V14.4468H96.9686V21H95.7782V18.2162H92.7416V21H91.5545ZM98.2597 14.4468H99.4372V18.9137H99.498L102.579 14.4468H103.645V21H102.458V16.5363H102.403L99.3124 21H98.2597V14.4468ZM108.865 21L106.708 18.1362H106.126V21H104.938V14.4468H106.126V17.141H106.423L108.753 14.4468H110.215L107.626 17.4354L110.327 21H108.865ZM111.975 21H110.708L113.015 14.4468H114.48L116.791 21H115.523L113.773 15.7907H113.722L111.975 21ZM112.016 18.4306H115.472V19.3841H112.016V18.4306ZM123.717 20.0081L123.631 22.5487H122.479V21H122.018V20.0081H123.717ZM117.654 21V14.4468H118.793V20.0145H121.737V14.4468H122.885V21H117.654ZM124.684 14.4468H125.862V18.9137H125.923L129.004 14.4468H130.07V21H128.883V16.5363H128.828L125.737 21H124.684V14.4468ZM136.201 21H135.011V15.4387H133.923C133.629 15.4387 133.387 15.4825 133.197 15.5699C133.009 15.6553 132.869 15.7811 132.778 15.9475C132.688 16.1118 132.643 16.3102 132.643 16.5427C132.643 16.7752 132.688 16.9715 132.778 17.1314C132.867 17.2893 133.006 17.4098 133.194 17.493C133.383 17.5741 133.624 17.6146 133.917 17.6146H135.51V18.6001H133.757C133.253 18.6001 132.829 18.517 132.483 18.3506C132.138 18.182 131.875 17.9442 131.696 17.637C131.519 17.3277 131.43 16.9629 131.43 16.5427C131.43 16.1246 131.518 15.7587 131.693 15.4451C131.87 15.1294 132.13 14.8841 132.474 14.7092C132.817 14.5343 133.239 14.4468 133.741 14.4468H136.201V21ZM132.813 18.0306H134.109L132.515 21H131.19L132.813 18.0306ZM138.48 14.4468L139.923 16.8467H139.974L141.423 14.4468H142.777L140.758 17.7234L142.809 21H141.433L139.974 18.6161H139.923L138.464 21H137.094L139.164 17.7234L137.12 14.4468H138.48Z" fill="#FA0056"/>
</g>
<defs>
<clipPath id="clip0_304_1477">
<rect width="175" height="98.6702" fill="white"/>
</clipPath>
</defs>
</svg>
