<svg width="84" height="84" viewBox="0 0 84 84" fill="none" xmlns="http://www.w3.org/2000/svg">
<path fill-rule="evenodd" clip-rule="evenodd" d="M62.6359 52.7744V30.805L62.6359 30.7901C62.6359 24.7193 53.1007 19.7979 41.3384 19.7979C29.5762 19.7979 20.0411 24.7191 20.0408 30.7898H20.0408V52.7744C20.0408 52.7745 20.0408 52.7745 20.0408 52.7746C20.0408 58.8455 29.576 63.7669 41.3383 63.7669C53.1007 63.7669 62.6359 58.8455 62.6359 52.7746C62.6359 52.7745 62.6359 52.7745 62.6359 52.7744Z" fill="url(#paint0_linear_114_4609)"/>
<rect width="49.0821" height="49.0821" transform="matrix(0.835391 0.549657 -0.835391 0.549657 41.8069 4.68311)" fill="url(#paint1_linear_114_4609)"/>
<rect width="11.3936" height="11.3936" transform="matrix(-0.539245 0.842149 -0.559984 -0.828504 79.2823 47.1001)" fill="white"/>
<path d="M41.8069 4.68311V58.6397L0.804178 31.6614L41.8069 4.68311Z" fill="url(#paint2_linear_114_4609)"/>
<defs>
<linearGradient id="paint0_linear_114_4609" x1="62.6359" y1="47.2786" x2="18.6667" y2="47.2786" gradientUnits="userSpaceOnUse">
<stop offset="0.0261371" stop-color="white"/>
<stop offset="1" stop-color="white" stop-opacity="0"/>
</linearGradient>
<linearGradient id="paint1_linear_114_4609" x1="-27.0316" y1="11.6373" x2="50.7008" y2="12.4904" gradientUnits="userSpaceOnUse">
<stop offset="0.0261371" stop-color="white"/>
<stop offset="1" stop-color="white" stop-opacity="0"/>
</linearGradient>
<linearGradient id="paint2_linear_114_4609" x1="9.50328" y1="-3.77849" x2="47.9763" y2="55.9921" gradientUnits="userSpaceOnUse">
<stop offset="0.0261371" stop-color="white"/>
<stop offset="1" stop-color="white" stop-opacity="0"/>
</linearGradient>
</defs>
</svg>
