<svg width="86" height="91" viewBox="0 0 86 91" fill="none" xmlns="http://www.w3.org/2000/svg">
<path fill-rule="evenodd" clip-rule="evenodd" d="M47.0593 74.5699C68.4242 74.5699 85.7437 58.0024 85.7437 37.5655C85.7437 17.1286 68.4242 0.561035 47.0593 0.561035C25.6944 0.561035 8.37489 17.1286 8.37489 37.5655C8.37489 49.1056 13.8975 59.4118 22.5518 66.1981C17.5454 74.1218 10.3866 80.4739 1.92749 84.3773C12.9468 82.8432 22.732 77.8952 29.9365 70.7567C35.0979 73.1979 40.911 74.5699 47.0593 74.5699ZM55.2099 42.3922C55.8985 48.4127 60.4169 53.7208 67.1476 57.2396C56.6163 54.84 48.8301 49.1969 47.3245 42.3922H55.2099ZM55.4885 37.5655C57.1365 30.4622 64.1553 24.5388 73.6981 21.6903C59.9462 22.9288 49.1284 29.4136 47.3245 37.5655H55.4885ZM16.4341 21.4766C26.0722 24.3536 33.1358 30.3675 34.6918 37.5655H42.8534C41.1927 29.3135 30.3057 22.7259 16.4341 21.4766Z" fill="white"/>
<g style="mix-blend-mode:lighten" filter="url(#filter0_f_114_4391)">
<circle cx="31" cy="60" r="18" fill="white" fill-opacity="0.3"/>
</g>
<defs>
<filter id="filter0_f_114_4391" x="0" y="29" width="62" height="62" filterUnits="userSpaceOnUse" color-interpolation-filters="sRGB">
<feFlood flood-opacity="0" result="BackgroundImageFix"/>
<feBlend mode="normal" in="SourceGraphic" in2="BackgroundImageFix" result="shape"/>
<feGaussianBlur stdDeviation="6.5" result="effect1_foregroundBlur_114_4391"/>
</filter>
</defs>
</svg>
