<svg width="66" height="66" viewBox="0 0 66 66" fill="none" xmlns="http://www.w3.org/2000/svg">
<g clip-path="url(#clip0_538_10858)">
<circle cx="33" cy="33" r="33" fill="#F99400"/>
<path fill-rule="evenodd" clip-rule="evenodd" d="M33 19.3353C30.9761 19.3353 29.3353 20.9761 29.3353 23C29.3353 25.0239 30.9761 26.6647 33 26.6647C35.0239 26.6647 36.6647 25.0239 36.6647 23C36.6647 20.9761 35.0239 19.3353 33 19.3353ZM24 23C24 18.0294 28.0294 14 33 14C37.9706 14 42 18.0294 42 23C42 27.9706 37.9706 32 33 32C28.0294 32 24 27.9706 24 23Z" fill="white"/>
<path fill-rule="evenodd" clip-rule="evenodd" d="M44.0731 34.4224C44.9734 35.7392 44.5953 37.5099 43.2285 38.3772C37.0852 42.2757 29.0661 42.2682 22.9301 38.3545C21.5654 37.4841 21.1915 35.7126 22.0949 34.3978C22.9984 33.083 24.8371 32.7228 26.2019 33.5933C30.3581 36.2442 35.8069 36.2494 39.9682 33.6086C41.335 32.7413 43.1729 33.1056 44.0731 34.4224Z" fill="white"/>
<path fill-rule="evenodd" clip-rule="evenodd" d="M33 36L44.0058 45.8265C45.3314 47.01 45.3314 48.9289 44.0058 50.1124C42.6803 51.2959 40.5311 51.2959 39.2056 50.1124L33 44.5717L26.7944 50.1124C25.4689 51.2959 23.3197 51.2959 21.9942 50.1124C20.6686 48.9289 20.6686 47.01 21.9942 45.8265L33 36Z" fill="white"/>
</g>
<defs>
<clipPath id="clip0_538_10858">
<rect width="66" height="66" fill="white"/>
</clipPath>
</defs>
</svg>
