<svg width="94" height="94" viewBox="0 0 94 94" fill="none" xmlns="http://www.w3.org/2000/svg">
<g style="mix-blend-mode:lighten" opacity="0.3" filter="url(#filter0_f_966_19772)">
<ellipse cx="51.6213" cy="41.8828" rx="24" ry="24" fill="white"/>
</g>
<rect x="4.38159" y="44" width="20.3779" height="21" fill="url(#paint0_linear_966_19772)"/>
<rect x="4.38159" y="71" width="20.3779" height="21" fill="url(#paint1_linear_966_19772)"/>
<rect x="31.552" y="44" width="48.5188" height="21" fill="url(#paint2_linear_966_19772)"/>
<rect x="31.552" y="71" width="48.5188" height="21" fill="url(#paint3_linear_966_19772)"/>
<rect x="4.38159" y="16" width="20.3779" height="21" fill="url(#paint4_linear_966_19772)"/>
<rect x="31.552" y="16" width="48.5188" height="21" fill="url(#paint5_linear_966_19772)"/>
<path d="M59.6929 64.4609L80.0708 64.4609L80.0708 44.083L59.6929 64.4609Z" fill="url(#paint6_linear_966_19772)"/>
<path d="M59.6929 92L80.0708 92L80.0708 71L59.6929 92Z" fill="url(#paint7_linear_966_19772)"/>
<path d="M59.6929 37L80.0708 37L80.0708 16L59.6929 37Z" fill="url(#paint8_linear_966_19772)"/>
<path d="M4.5 52.5L12 60L27 45" stroke="white" stroke-width="10"/>
<defs>
<filter id="filter0_f_966_19772" x="9.75886" y="0.0203381" width="83.7249" height="83.7249" filterUnits="userSpaceOnUse" color-interpolation-filters="sRGB">
<feFlood flood-opacity="0" result="BackgroundImageFix"/>
<feBlend mode="normal" in="SourceGraphic" in2="BackgroundImageFix" result="shape"/>
<feGaussianBlur stdDeviation="8.93124" result="effect1_foregroundBlur_966_19772"/>
</filter>
<linearGradient id="paint0_linear_966_19772" x1="2.0303" y1="37.9333" x2="31.2303" y2="41.653" gradientUnits="userSpaceOnUse">
<stop offset="0.0261371" stop-color="white" stop-opacity="0.81"/>
<stop offset="1" stop-color="white" stop-opacity="0"/>
</linearGradient>
<linearGradient id="paint1_linear_966_19772" x1="2.0303" y1="64.9333" x2="31.2303" y2="68.653" gradientUnits="userSpaceOnUse">
<stop offset="0.0261371" stop-color="white" stop-opacity="0.81"/>
<stop offset="1" stop-color="white" stop-opacity="0"/>
</linearGradient>
<linearGradient id="paint2_linear_966_19772" x1="25.9537" y1="37.9333" x2="90.6538" y2="57.5569" gradientUnits="userSpaceOnUse">
<stop offset="0.0261371" stop-color="white" stop-opacity="0.81"/>
<stop offset="1" stop-color="white" stop-opacity="0"/>
</linearGradient>
<linearGradient id="paint3_linear_966_19772" x1="25.9537" y1="64.9333" x2="90.6538" y2="84.5569" gradientUnits="userSpaceOnUse">
<stop offset="0.0261371" stop-color="white" stop-opacity="0.81"/>
<stop offset="1" stop-color="white" stop-opacity="0"/>
</linearGradient>
<linearGradient id="paint4_linear_966_19772" x1="2.0303" y1="9.93334" x2="31.2303" y2="13.653" gradientUnits="userSpaceOnUse">
<stop offset="0.0261371" stop-color="white" stop-opacity="0.81"/>
<stop offset="1" stop-color="white" stop-opacity="0"/>
</linearGradient>
<linearGradient id="paint5_linear_966_19772" x1="25.9537" y1="9.93334" x2="90.6538" y2="29.5569" gradientUnits="userSpaceOnUse">
<stop offset="0.0261371" stop-color="white" stop-opacity="0.81"/>
<stop offset="1" stop-color="white" stop-opacity="0"/>
</linearGradient>
<linearGradient id="paint6_linear_966_19772" x1="63.7685" y1="65.1402" x2="63.7685" y2="44.083" gradientUnits="userSpaceOnUse">
<stop stop-color="white" stop-opacity="0"/>
<stop offset="1" stop-color="white"/>
</linearGradient>
<linearGradient id="paint7_linear_966_19772" x1="63.7685" y1="92.7" x2="63.7685" y2="71" gradientUnits="userSpaceOnUse">
<stop stop-color="white" stop-opacity="0"/>
<stop offset="1" stop-color="white"/>
</linearGradient>
<linearGradient id="paint8_linear_966_19772" x1="63.7685" y1="37.7" x2="63.7685" y2="16" gradientUnits="userSpaceOnUse">
<stop stop-color="white" stop-opacity="0"/>
<stop offset="1" stop-color="white"/>
</linearGradient>
</defs>
</svg>
