<svg width="67" height="67" viewBox="0 0 67 67" fill="none" xmlns="http://www.w3.org/2000/svg">
<path d="M36.8159 55.2117C47.3093 55.2117 55.8159 46.7051 55.8159 36.2117C55.8159 25.7183 47.3093 17.2117 36.8159 17.2117C26.3225 17.2117 17.8159 25.7183 17.8159 36.2117C17.8159 46.7051 26.3225 55.2117 36.8159 55.2117Z" fill="url(#paint0_linear_265_5545)"/>
<mask id="mask0_265_5545" style="mask-type:alpha" maskUnits="userSpaceOnUse" x="17" y="17" width="39" height="39">
<path d="M36.8159 55.2117C47.3093 55.2117 55.8159 46.7051 55.8159 36.2117C55.8159 25.7183 47.3093 17.2117 36.8159 17.2117C26.3225 17.2117 17.8159 25.7183 17.8159 36.2117C17.8159 46.7051 26.3225 55.2117 36.8159 55.2117Z" fill="url(#paint1_linear_265_5545)"/>
</mask>
<g mask="url(#mask0_265_5545)">
<path d="M55.5 17.2117H17.5V55.2117L55.5 17.2117Z" fill="url(#paint2_linear_265_5545)"/>
</g>
<path d="M31.4481 39.2881L21.5325 36.6881L47.2741 25.8938L31.4481 39.2881Z" fill="white"/>
<path d="M33.6113 39.7349L45.8789 43.9337L47.2741 25.8938L33.6113 39.7349Z" fill="url(#paint3_linear_265_5545)"/>
<g style="mix-blend-mode:lighten" filter="url(#filter0_f_265_5545)">
<circle cx="30.5" cy="30.2117" r="12" fill="white" fill-opacity="0.3"/>
</g>
<defs>
<filter id="filter0_f_265_5545" x="0.637526" y="0.349195" width="59.7249" height="59.7249" filterUnits="userSpaceOnUse" color-interpolation-filters="sRGB">
<feFlood flood-opacity="0" result="BackgroundImageFix"/>
<feBlend mode="normal" in="SourceGraphic" in2="BackgroundImageFix" result="shape"/>
<feGaussianBlur stdDeviation="8.93124" result="effect1_foregroundBlur_265_5545"/>
</filter>
<linearGradient id="paint0_linear_265_5545" x1="29" y1="56.7117" x2="73.4752" y2="16.858" gradientUnits="userSpaceOnUse">
<stop stop-color="white" stop-opacity="0"/>
<stop offset="1" stop-color="white"/>
</linearGradient>
<linearGradient id="paint1_linear_265_5545" x1="17.8159" y1="29.8783" x2="55.7639" y2="31.283" gradientUnits="userSpaceOnUse">
<stop stop-color="white" stop-opacity="0"/>
<stop offset="1" stop-color="white"/>
</linearGradient>
<linearGradient id="paint2_linear_265_5545" x1="41" y1="13.7117" x2="20.5" y2="49.2117" gradientUnits="userSpaceOnUse">
<stop stop-color="white" stop-opacity="0"/>
<stop offset="1" stop-color="white"/>
</linearGradient>
<linearGradient id="paint3_linear_265_5545" x1="31.4269" y1="32.2865" x2="47.4177" y2="32.4181" gradientUnits="userSpaceOnUse">
<stop stop-color="white" stop-opacity="0"/>
<stop offset="1" stop-color="white"/>
</linearGradient>
</defs>
</svg>
