<svg width="26" height="25" viewBox="0 0 26 25" fill="none" xmlns="http://www.w3.org/2000/svg">
<path d="M13.1191 20.2974C17.4658 20.2974 20.9895 16.7737 20.9895 12.427C20.9895 8.08033 17.4658 4.55664 13.1191 4.55664C8.77247 4.55664 5.24878 8.08033 5.24878 12.427C5.24878 16.7737 8.77247 20.2974 13.1191 20.2974Z" fill="white"/>
<path d="M8.6227 12.2543C8.6227 12.2543 12.5213 10.5957 13.8734 10.0117C14.3917 9.77812 16.1494 9.03056 16.1494 9.03056C16.1494 9.03056 16.9607 8.70353 16.8931 9.49778C16.8705 9.82484 16.6903 10.9695 16.51 12.2076C16.2395 13.9597 15.9466 15.8752 15.9466 15.8752C15.9466 15.8752 15.9015 16.4125 15.5184 16.506C15.1353 16.5994 14.5043 16.1789 14.3917 16.0855C14.3015 16.0154 12.7015 14.9642 12.1156 14.4502C11.9579 14.3101 11.7776 14.0298 12.1382 13.7027C12.9494 12.9318 13.9184 11.974 14.5043 11.3666C14.7748 11.0863 15.0452 10.4322 13.9184 11.2265C12.3185 12.3711 10.741 13.4457 10.741 13.4457C10.741 13.4457 10.3804 13.6793 9.70438 13.4691C9.0283 13.2589 8.23958 12.9785 8.23958 12.9785C8.23958 12.9785 7.69876 12.6281 8.6227 12.2543Z" fill="black"/>
</svg>
