<svg width="84" height="99" viewBox="0 0 84 99" fill="none" xmlns="http://www.w3.org/2000/svg">
<rect x="2.3017" y="34.9341" width="79.6941" height="56.3355" fill="url(#paint0_linear_114_4461)"/>
<path d="M58.6372 34.9341H2.3017V91.2696L58.6372 34.9341Z" fill="url(#paint1_linear_114_4461)"/>
<rect x="2.3017" y="34.9341" width="79.6941" height="27.4807" fill="url(#paint2_linear_114_4461)"/>
<path d="M27.0341 34.9342V33.5602C27.0341 27.4893 31.9556 22.5679 38.0264 22.5679H47.6447C53.7156 22.5679 58.637 27.4893 58.637 33.5602V34.9342" stroke="white" stroke-width="8.24422"/>
<rect width="11.3936" height="11.3936" transform="matrix(-0.539245 0.842149 -0.559984 -0.828504 47.6449 62.2363)" fill="white"/>
<g style="mix-blend-mode:lighten" filter="url(#filter0_f_114_4461)">
<circle cx="53" cy="31" r="18" fill="white" fill-opacity="0.3"/>
</g>
<defs>
<filter id="filter0_f_114_4461" x="22" y="0" width="62" height="62" filterUnits="userSpaceOnUse" color-interpolation-filters="sRGB">
<feFlood flood-opacity="0" result="BackgroundImageFix"/>
<feBlend mode="normal" in="SourceGraphic" in2="BackgroundImageFix" result="shape"/>
<feGaussianBlur stdDeviation="6.5" result="effect1_foregroundBlur_114_4461"/>
</filter>
<linearGradient id="paint0_linear_114_4461" x1="-6.89377" y1="18.6594" x2="105.286" y2="39.4919" gradientUnits="userSpaceOnUse">
<stop offset="0.0261371" stop-color="white" stop-opacity="0.81"/>
<stop offset="1" stop-color="white" stop-opacity="0"/>
</linearGradient>
<linearGradient id="paint1_linear_114_4461" x1="34.0807" y1="47.9346" x2="2.3017" y2="107.159" gradientUnits="userSpaceOnUse">
<stop stop-color="white" stop-opacity="0"/>
<stop offset="1" stop-color="white"/>
</linearGradient>
<linearGradient id="paint2_linear_114_4461" x1="-6.89377" y1="26.9952" x2="94.4649" y2="65.5822" gradientUnits="userSpaceOnUse">
<stop offset="0.0261371" stop-color="white" stop-opacity="0.81"/>
<stop offset="1" stop-color="white" stop-opacity="0"/>
</linearGradient>
</defs>
</svg>
