<svg width="25" height="25" viewBox="0 0 25 25" fill="none" xmlns="http://www.w3.org/2000/svg">
<path fill-rule="evenodd" clip-rule="evenodd" d="M21.1216 8.12923C21.2483 7.74119 21.1216 7.45605 20.5186 7.45605H18.5247C18.0177 7.45605 17.7839 7.70237 17.6572 7.97398C17.6572 7.97398 16.6432 10.244 15.2067 11.7185C14.742 12.1453 14.5307 12.2811 14.2772 12.2811C14.1505 12.2811 13.967 12.1453 13.967 11.7573V8.12923C13.967 7.66358 13.8199 7.45605 13.3974 7.45605H10.264C9.94721 7.45605 9.75667 7.67217 9.75667 7.877C9.75667 8.31842 10.4749 8.42022 10.5489 9.66194V12.3588C10.5489 12.95 10.4326 13.0572 10.1791 13.0572C9.50317 13.0572 7.85891 10.7771 6.88371 8.16802C6.69259 7.6609 6.5009 7.45605 5.99131 7.45605H3.99736C3.42767 7.45605 3.31372 7.70237 3.31372 7.97398C3.31372 8.45904 3.98971 10.8648 6.46125 14.0467C8.10892 16.2197 10.4304 17.3976 12.5428 17.3976C13.8103 17.3976 13.9671 17.1359 13.9671 16.6853V15.043C13.9671 14.5198 14.0871 14.4153 14.4885 14.4153C14.7842 14.4153 15.2912 14.5511 16.4742 15.5988C17.8262 16.8405 18.0491 17.3976 18.8095 17.3976H20.8035C21.3731 17.3976 21.658 17.1359 21.4937 16.6197C21.3139 16.1051 20.6684 15.3585 19.8119 14.4735C19.3471 13.9691 18.65 13.4259 18.4388 13.1542C18.143 12.805 18.2275 12.6498 18.4388 12.3394C18.4388 12.3394 20.8681 9.1963 21.1216 8.12923Z" fill="white"/>
</svg>
