<svg width="67" height="67" viewBox="0 0 67 67" fill="none" xmlns="http://www.w3.org/2000/svg">
<g clip-path="url(#clip0_521_10673)">
<path d="M0.499023 31.8262C0.499023 16.8231 0.499023 9.32168 5.15987 4.66084C9.82071 0 17.3222 0 32.3252 0H34.9774C49.9805 0 57.4819 0 62.1428 4.66084C66.8036 9.32168 66.8036 16.8231 66.8036 31.8262V34.4784C66.8036 49.4815 66.8036 56.9829 62.1428 61.6438C57.4819 66.3046 49.9805 66.3046 34.9774 66.3046H32.3252C17.3222 66.3046 9.82071 66.3046 5.15987 61.6438C0.499023 56.9829 0.499023 49.4815 0.499023 34.4784V31.8262Z" fill="#0077FF"/>
<path d="M35.778 47.7682C20.6661 47.7682 12.0467 37.4081 11.6875 20.1689H19.2573C19.5059 32.8221 25.0864 38.1817 29.5067 39.2868V20.1689H36.6348V31.0816C40.9998 30.6119 45.5853 25.6391 47.1324 20.1689H54.2603C53.0724 26.9099 48.0995 31.8828 44.5633 33.9272C48.0995 35.5848 53.7633 39.9222 55.9182 47.7682H48.0719C46.3866 42.5191 42.1878 38.458 36.6348 37.9054V47.7682H35.778Z" fill="white"/>
</g>
<defs>
<clipPath id="clip0_521_10673">
<rect width="66.3046" height="66.3046" fill="white" transform="translate(0.499023)"/>
</clipPath>
</defs>
</svg>
