<svg width="67" height="67" viewBox="0 0 67 67" fill="none" xmlns="http://www.w3.org/2000/svg">
<g style="mix-blend-mode:lighten" filter="url(#filter0_f_265_5537)">
<circle cx="30.5" cy="30.2117" r="12" fill="white" fill-opacity="0.3"/>
</g>
<path fill-rule="evenodd" clip-rule="evenodd" d="M15.3269 34.3961C14.1208 31.4843 13.5 28.3634 13.5 25.2117H23.2492C23.2492 27.0831 23.6178 28.9362 24.334 30.6652C25.0501 32.3942 26.0998 33.9652 27.4232 35.2885C28.6057 36.471 29.9859 37.435 31.5 38.1378V28.2117L28.5 25.2117H39.5V49.2117H37.5C34.3483 49.2117 31.2274 48.5909 28.3156 47.3848C25.4038 46.1787 22.758 44.4108 20.5294 42.1822C18.3008 39.9536 16.533 37.3079 15.3269 34.3961Z" fill="#D9D9D9"/>
<path fill-rule="evenodd" clip-rule="evenodd" d="M55.0537 32.4827C56.0085 30.1775 56.5 27.7068 56.5 25.2117H48.0188C48.0188 26.593 47.7467 27.9608 47.2181 29.237C46.6894 30.5132 45.9146 31.6728 44.9379 32.6496C43.9611 33.6263 42.8015 34.4011 41.5254 34.9297C40.2492 35.4584 38.8813 35.7304 37.5 35.7304V44.2117C39.5495 44.2117 41.5825 43.8801 43.5208 43.2325L49.5 49.2117H60.5L50.4257 39.1374C50.5984 38.9771 50.7682 38.8135 50.935 38.6467C52.6993 36.8824 54.0989 34.7878 55.0537 32.4827Z" fill="url(#paint0_linear_265_5537)"/>
<defs>
<filter id="filter0_f_265_5537" x="0.637526" y="0.349195" width="59.7249" height="59.7249" filterUnits="userSpaceOnUse" color-interpolation-filters="sRGB">
<feFlood flood-opacity="0" result="BackgroundImageFix"/>
<feBlend mode="normal" in="SourceGraphic" in2="BackgroundImageFix" result="shape"/>
<feGaussianBlur stdDeviation="8.93124" result="effect1_foregroundBlur_265_5537"/>
</filter>
<linearGradient id="paint0_linear_265_5537" x1="37.5" y1="33.2117" x2="60.4711" y2="34.0265" gradientUnits="userSpaceOnUse">
<stop stop-color="white" stop-opacity="0"/>
<stop offset="1" stop-color="white"/>
</linearGradient>
</defs>
</svg>
