<svg width="94" height="94" viewBox="0 0 94 94" fill="none" xmlns="http://www.w3.org/2000/svg">
<g style="mix-blend-mode:lighten" opacity="0.3" filter="url(#filter0_f_966_19766)">
<circle cx="51.1667" cy="42" r="24" fill="white"/>
</g>
<path d="M41.8951 46.0119L41.895 89.8319L15.3564 72.3705L15.3565 28.5589L41.8951 46.0119Z" fill="url(#paint0_linear_966_19766)"/>
<path d="M39.6683 48.9023L39.6683 61.1423L17.5838 46.6116L17.5838 34.3785L39.6683 48.9023Z" fill="white"/>
<path d="M22.8186 53.4883L22.8186 56.6979L17.4934 53.1141L17.4934 49.9062L22.8186 53.4883Z" fill="white"/>
<path d="M39.664 64.8749L39.664 84.8395L24.2839 74.72L24.2839 54.7602L39.664 64.8749Z" fill="white"/>
<path d="M53.2325 40.1916L53.2324 84.0116L26.6938 66.5502L26.6939 22.7385L53.2325 40.1916Z" fill="url(#paint1_linear_966_19766)"/>
<path d="M64.877 34.3713L64.877 78.1913L38.3384 60.7299L38.3384 16.9182L64.877 34.3713Z" fill="url(#paint2_linear_966_19766)"/>
<defs>
<filter id="filter0_f_966_19766" x="9.30427" y="0.137526" width="83.7249" height="83.7249" filterUnits="userSpaceOnUse" color-interpolation-filters="sRGB">
<feFlood flood-opacity="0" result="BackgroundImageFix"/>
<feBlend mode="normal" in="SourceGraphic" in2="BackgroundImageFix" result="shape"/>
<feGaussianBlur stdDeviation="8.93124" result="effect1_foregroundBlur_966_19766"/>
</filter>
<linearGradient id="paint0_linear_966_19766" x1="9.9308" y1="20.1486" x2="42.7229" y2="92.7598" gradientUnits="userSpaceOnUse">
<stop offset="0.0261371" stop-color="white"/>
<stop offset="1" stop-color="white" stop-opacity="0"/>
</linearGradient>
<linearGradient id="paint1_linear_966_19766" x1="21.2682" y1="14.3283" x2="54.0603" y2="86.9395" gradientUnits="userSpaceOnUse">
<stop offset="0.0261371" stop-color="white"/>
<stop offset="1" stop-color="white" stop-opacity="0"/>
</linearGradient>
<linearGradient id="paint2_linear_966_19766" x1="32.9127" y1="8.50796" x2="65.7049" y2="81.1192" gradientUnits="userSpaceOnUse">
<stop offset="0.0261371" stop-color="white"/>
<stop offset="1" stop-color="white" stop-opacity="0"/>
</linearGradient>
</defs>
</svg>
