<svg width="67" height="67" viewBox="0 0 67 67" fill="none" xmlns="http://www.w3.org/2000/svg">
<g style="mix-blend-mode:lighten" filter="url(#filter0_f_265_5555)">
<circle cx="30.5" cy="30.5" r="12" fill="white" fill-opacity="0.3"/>
</g>
<path d="M57.8236 26.1841C57.3311 24.3432 55.874 22.8909 54.0202 22.3932C50.6683 21.5 37.2197 21.5 37.2197 21.5C37.2197 21.5 23.778 21.5 20.4192 22.3932C18.5723 22.8841 17.1152 24.3364 16.6158 26.1841C15.7197 29.525 15.7197 36.5 15.7197 36.5C15.7197 36.5 15.7197 43.475 16.6158 46.8159C17.1084 48.6568 18.5654 50.1091 20.4192 50.6068C23.778 51.5 37.2197 51.5 37.2197 51.5C37.2197 51.5 50.6683 51.5 54.0202 50.6068C55.8672 50.1159 57.3242 48.6636 57.8236 46.8159C58.7197 43.475 58.7197 36.5 58.7197 36.5C58.7197 36.5 58.7197 29.525 57.8236 26.1841Z" fill="url(#paint0_linear_265_5555)"/>
<mask id="mask0_265_5555" style="mask-type:alpha" maskUnits="userSpaceOnUse" x="15" y="21" width="44" height="31">
<path d="M57.8236 26.1841C57.3311 24.3432 55.874 22.8909 54.0202 22.3932C50.6683 21.5 37.2197 21.5 37.2197 21.5C37.2197 21.5 23.778 21.5 20.4192 22.3932C18.5723 22.8841 17.1152 24.3364 16.6158 26.1841C15.7197 29.525 15.7197 36.5 15.7197 36.5C15.7197 36.5 15.7197 43.475 16.6158 46.8159C17.1084 48.6568 18.5654 50.1091 20.4192 50.6068C23.778 51.5 37.2197 51.5 37.2197 51.5C37.2197 51.5 50.6683 51.5 54.0202 50.6068C55.8672 50.1159 57.3242 48.6636 57.8236 46.8159C58.7197 43.475 58.7197 36.5 58.7197 36.5C58.7197 36.5 58.7197 29.525 57.8236 26.1841Z" fill="url(#paint1_linear_265_5555)"/>
</mask>
<g mask="url(#mask0_265_5555)">
<path d="M14.5 21.5H58.5V51.5L14.5 21.5Z" fill="url(#paint2_linear_265_5555)"/>
</g>
<path d="M31 44V31L42.5 37.5L31 44Z" fill="white"/>
<defs>
<filter id="filter0_f_265_5555" x="0.637526" y="0.637526" width="59.7249" height="59.7249" filterUnits="userSpaceOnUse" color-interpolation-filters="sRGB">
<feFlood flood-opacity="0" result="BackgroundImageFix"/>
<feBlend mode="normal" in="SourceGraphic" in2="BackgroundImageFix" result="shape"/>
<feGaussianBlur stdDeviation="8.93124" result="effect1_foregroundBlur_265_5555"/>
</filter>
<linearGradient id="paint0_linear_265_5555" x1="15.7197" y1="31.5" x2="58.599" y2="33.775" gradientUnits="userSpaceOnUse">
<stop stop-color="white" stop-opacity="0"/>
<stop offset="1" stop-color="white"/>
</linearGradient>
<linearGradient id="paint1_linear_265_5555" x1="15.7197" y1="31.5" x2="58.599" y2="33.775" gradientUnits="userSpaceOnUse">
<stop stop-color="white" stop-opacity="0"/>
<stop offset="1" stop-color="white"/>
</linearGradient>
<linearGradient id="paint2_linear_265_5555" x1="33.6795" y1="28.4231" x2="46.7859" y2="64.2472" gradientUnits="userSpaceOnUse">
<stop stop-color="white" stop-opacity="0"/>
<stop offset="1" stop-color="white"/>
</linearGradient>
</defs>
</svg>
